<svg width="16" height="16" viewBox="0 0 16 16" fill="none" xmlns="http://www.w3.org/2000/svg">
<path d="M5.71425 6.85721C7.13441 6.85721 8.28568 5.70594 8.28568 4.28578C8.28568 2.86562 7.13441 1.71436 5.71425 1.71436C4.29409 1.71436 3.14282 2.86562 3.14282 4.28578C3.14282 5.70594 4.29409 6.85721 5.71425 6.85721Z" stroke="white" stroke-linecap="round" stroke-linejoin="round"/>
<path d="M10.8571 15.4288H0.571411V14.2859C0.571411 12.922 1.11325 11.6138 2.07772 10.6494C3.04219 9.6849 4.3503 9.14307 5.71427 9.14307C7.07824 9.14307 8.38634 9.6849 9.35082 10.6494C10.3153 11.6138 10.8571 12.922 10.8571 14.2859V15.4288Z" stroke="white" stroke-linecap="round" stroke-linejoin="round"/>
<path d="M10.2857 1.71436C10.9677 1.71436 11.6217 1.98527 12.104 2.46751C12.5862 2.94975 12.8571 3.6038 12.8571 4.28578C12.8571 4.96777 12.5862 5.62182 12.104 6.10406C11.6217 6.58629 10.9677 6.85721 10.2857 6.85721" stroke="white" stroke-linecap="round" stroke-linejoin="round"/>
<path d="M12.1143 9.35986C13.0878 9.7302 13.9259 10.3874 14.5177 11.2445C15.1096 12.1017 15.4272 13.1183 15.4285 14.1599V15.4284H13.7143" stroke="white" stroke-linecap="round" stroke-linejoin="round"/>
</svg>
