<svg width="16" height="16" viewBox="0 0 16 16" fill="none" xmlns="http://www.w3.org/2000/svg">
<path d="M3.42853 8.00009V4.99438C3.43745 4.40356 3.56287 3.82031 3.7976 3.27804C4.03233 2.73577 4.37175 2.24515 4.79641 1.83429C5.22108 1.42343 5.72264 1.1004 6.27236 0.883706C6.82209 0.667018 7.40916 0.56093 7.99996 0.571523C8.59075 0.56093 9.17783 0.667018 9.72755 0.883706C10.2773 1.1004 10.7788 1.42343 11.2035 1.83429C11.6282 2.24515 11.9676 2.73577 12.2023 3.27804C12.437 3.82031 12.5625 4.40356 12.5714 4.99438V8.00009" stroke="#32373D" stroke-linecap="round" stroke-linejoin="round"/>
<path d="M1.71427 6.28564H2.85713C3.00868 6.28564 3.15402 6.34585 3.26119 6.45301C3.36835 6.56018 3.42855 6.70552 3.42855 6.85707V10.2856C3.42855 10.4372 3.36835 10.5825 3.26119 10.6897C3.15402 10.7969 3.00868 10.8571 2.85713 10.8571H1.71427C1.41116 10.8571 1.12047 10.7367 0.906146 10.5223C0.691819 10.308 0.571411 10.0173 0.571411 9.71422V7.4285C0.571411 7.1254 0.691819 6.83471 0.906146 6.62038C1.12047 6.40605 1.41116 6.28564 1.71427 6.28564Z" stroke="#32373D" stroke-linecap="round" stroke-linejoin="round"/>
<path d="M14.2857 10.8574H13.1428C12.9913 10.8574 12.8459 10.7972 12.7388 10.6901C12.6316 10.5829 12.5714 10.4375 12.5714 10.286V6.85742C12.5714 6.70587 12.6316 6.56052 12.7388 6.45336C12.8459 6.3462 12.9913 6.28599 13.1428 6.28599H14.2857C14.5888 6.28599 14.8795 6.4064 15.0938 6.62073C15.3081 6.83506 15.4285 7.12575 15.4285 7.42885V9.71456C15.4285 10.0177 15.3081 10.3084 15.0938 10.5227C14.8795 10.737 14.5888 10.8574 14.2857 10.8574Z" stroke="#32373D" stroke-linecap="round" stroke-linejoin="round"/>
<path d="M10.2857 14.0002C10.8919 14.0002 11.4733 13.7594 11.9019 13.3307C12.3306 12.9021 12.5714 12.3207 12.5714 11.7145V9.14307" stroke="#32373D" stroke-linecap="round" stroke-linejoin="round"/>
<path d="M10.2857 13.9999C10.2857 14.3787 10.1352 14.7421 9.8673 15.01C9.5994 15.2779 9.23603 15.4284 8.85715 15.4284H7.14287C6.76399 15.4284 6.40062 15.2779 6.13271 15.01C5.8648 14.7421 5.71429 14.3787 5.71429 13.9999C5.71429 13.621 5.8648 13.2576 6.13271 12.9897C6.40062 12.7218 6.76399 12.5713 7.14287 12.5713H8.85715C9.23603 12.5713 9.5994 12.7218 9.8673 12.9897C10.1352 13.2576 10.2857 13.621 10.2857 13.9999Z" stroke="#32373D" stroke-linecap="round" stroke-linejoin="round"/>
</svg>
