<svg width="250" height="250" viewBox="0 0 250 250" fill="none" xmlns="http://www.w3.org/2000/svg">
<path d="M171 193.5C171 193.5 195 192 211.5 162.5C228 133 225 87.9999 204.5 62.9999C184 37.9999 152 29.4999 121.5 37.4999C106.64 41.3949 96.73 51.4999 88.165 63.6899C80.705 74.3099 72.315 84.5399 61.025 91.2599C49.845 97.9099 38.35 103.22 32.705 115.86C18.965 146.64 29 182.44 61.5 194.5C96.5 207.5 155 200.5 171 193.5Z" fill="#1D4ED8"/>
<path opacity="0.7" d="M171 193.5C171 193.5 195 192 211.5 162.5C228 133 225 87.9999 204.5 62.9999C184 37.9999 152 29.4999 121.5 37.4999C106.64 41.3949 96.73 51.4999 88.165 63.6899C80.705 74.3099 72.315 84.5399 61.025 91.2599C49.845 97.9099 38.35 103.22 32.705 115.86C18.965 146.64 29 182.44 61.5 194.5C96.5 207.5 155 200.5 171 193.5Z" fill="white"/>
<path d="M127.585 215.51C174.758 215.51 213 212.152 213 208.01C213 203.868 174.758 200.51 127.585 200.51C80.4115 200.51 42.1699 203.868 42.1699 208.01C42.1699 212.152 80.4115 215.51 127.585 215.51Z" fill="#1D4ED8"/>
<path opacity="0.5" d="M127.585 215.51C174.758 215.51 213 212.152 213 208.01C213 203.868 174.758 200.51 127.585 200.51C80.4115 200.51 42.1699 203.868 42.1699 208.01C42.1699 212.152 80.4115 215.51 127.585 215.51Z" fill="white"/>
<path d="M40.4851 113.15V117.585" stroke="#263238" stroke-linecap="round" stroke-linejoin="round"/>
<path d="M42.705 115.37H38.27" stroke="#263238" stroke-linecap="round" stroke-linejoin="round"/>
<path d="M191.82 75.1499V79.5849" stroke="#263238" stroke-linecap="round" stroke-linejoin="round"/>
<path d="M194.035 77.3696H189.6" stroke="#263238" stroke-linecap="round" stroke-linejoin="round"/>
<path d="M128.82 40.8198V45.2548" stroke="#263238" stroke-linecap="round" stroke-linejoin="round"/>
<path d="M131.035 43.0347H126.6" stroke="#263238" stroke-linecap="round" stroke-linejoin="round"/>
<path d="M55.8201 162.82V167.255" stroke="#263238" stroke-linecap="round" stroke-linejoin="round"/>
<path d="M58.0351 165.035H53.6001" stroke="#263238" stroke-linecap="round" stroke-linejoin="round"/>
<path d="M189.835 59.165C189.836 59.8911 189.622 60.6011 189.219 61.2053C188.816 61.8095 188.244 62.2807 187.573 62.5592C186.903 62.8377 186.164 62.9111 185.452 62.7701C184.74 62.629 184.086 62.2799 183.572 61.7668C183.058 61.2538 182.708 60.5999 182.566 59.8878C182.424 59.1758 182.496 58.4376 182.774 57.7667C183.052 57.0958 183.522 56.5223 184.126 56.1189C184.729 55.7154 185.439 55.5 186.165 55.5C187.138 55.5 188.07 55.886 188.758 56.5732C189.447 57.2603 189.834 58.1925 189.835 59.165Z" stroke="#263238" stroke-linecap="round" stroke-linejoin="round"/>
<path d="M32.903 147.223C34.773 146.448 35.6611 144.304 34.8865 142.434C34.1119 140.564 31.968 139.676 30.0979 140.45C28.2279 141.225 27.3399 143.369 28.1145 145.239C28.8891 147.109 31.033 147.997 32.903 147.223Z" stroke="#263238" stroke-linecap="round" stroke-linejoin="round"/>
<path d="M206.5 96.665C206.509 96.7797 206.494 96.8951 206.456 97.0038C206.418 97.1125 206.359 97.2122 206.28 97.2967C206.202 97.3811 206.107 97.4485 206.002 97.4946C205.896 97.5407 205.783 97.5645 205.668 97.5645C205.552 97.5645 205.439 97.5407 205.333 97.4946C205.228 97.4485 205.133 97.3811 205.055 97.2967C204.976 97.2122 204.917 97.1125 204.879 97.0038C204.841 96.8951 204.826 96.7797 204.835 96.665C204.851 96.4553 204.946 96.2595 205.1 96.1167C205.255 95.9739 205.457 95.8945 205.668 95.8945C205.878 95.8945 206.08 95.9739 206.235 96.1167C206.389 96.2595 206.484 96.4553 206.5 96.665Z" stroke="#263238" stroke-linecap="round" stroke-linejoin="round"/>
<path d="M79.335 84.665C79.336 84.8303 79.2879 84.9922 79.1967 85.1302C79.1056 85.2682 78.9755 85.376 78.823 85.44C78.6706 85.5039 78.5025 85.5212 78.3402 85.4895C78.1779 85.4579 78.0287 85.3787 77.9114 85.2622C77.7941 85.1456 77.7141 84.9968 77.6815 84.8347C77.6488 84.6726 77.6651 84.5045 77.7281 84.3516C77.7912 84.1987 77.8982 84.068 78.0356 83.976C78.173 83.8841 78.3347 83.835 78.5 83.835C78.7206 83.835 78.9323 83.9222 79.0887 84.0778C79.2452 84.2333 79.3337 84.4444 79.335 84.665Z" stroke="#263238" stroke-linecap="round" stroke-linejoin="round"/>
<path d="M219.46 133.835V133.81H219.43V133.785C218.735 133.715 211.54 133.1 204.975 136.51C207.875 132.867 209.213 128.223 208.695 123.595C207.11 107.745 192.155 98.6751 191 97.9951V98.0001H190.965H190.93C189.775 98.6801 174.82 107.75 173.235 123.6C172.896 126.668 173.369 129.772 174.605 132.6C166.185 127.565 156.365 128.415 155.46 128.505V128.475V128.51H155.425V128.535C154.98 129.56 149.36 143.075 156.11 154.56C162.15 164.83 174.815 162.115 178.255 161.15C181.145 164.185 186.415 171.095 188.755 182.885H185.475L187 205.245H194.38L196 182.915H192.135C193.906 174.924 197.1 167.316 201.565 160.455C205.01 161.315 214.33 162.765 218.925 154.955C224.385 145.63 219.825 134.67 219.46 133.835ZM190.73 133.75L182.93 122.915C182.913 122.893 182.901 122.868 182.895 122.841C182.888 122.814 182.887 122.786 182.891 122.758C182.895 122.731 182.905 122.704 182.919 122.681C182.934 122.657 182.953 122.636 182.975 122.62C183.021 122.586 183.078 122.572 183.134 122.581C183.19 122.589 183.241 122.619 183.275 122.665L190.745 133.04V122.065L182.945 111.235C182.911 111.189 182.897 111.132 182.905 111.076C182.914 111.02 182.944 110.969 182.99 110.935C183.037 110.903 183.094 110.891 183.15 110.9C183.206 110.909 183.256 110.94 183.29 110.985L190.76 121.36V105.36C190.76 105.333 190.765 105.305 190.776 105.28C190.786 105.254 190.802 105.231 190.821 105.212C190.841 105.192 190.864 105.177 190.89 105.166C190.915 105.156 190.942 105.15 190.97 105.15C191.026 105.15 191.079 105.172 191.118 105.212C191.158 105.251 191.18 105.304 191.18 105.36V120.805L199.28 110.535C199.314 110.491 199.365 110.462 199.421 110.455C199.477 110.448 199.533 110.463 199.577 110.498C199.622 110.532 199.651 110.583 199.658 110.639C199.665 110.694 199.649 110.751 199.615 110.795L191.18 121.49V132.49L199.28 122.215C199.315 122.171 199.367 122.143 199.423 122.136C199.479 122.13 199.535 122.145 199.58 122.18C199.602 122.197 199.62 122.218 199.633 122.242C199.647 122.266 199.655 122.293 199.659 122.32C199.662 122.348 199.66 122.376 199.652 122.402C199.645 122.429 199.632 122.453 199.615 122.475L191.18 133.175V142.5L199.28 132.23C199.314 132.186 199.365 132.157 199.421 132.15C199.477 132.143 199.533 132.158 199.577 132.193C199.622 132.227 199.651 132.278 199.658 132.334C199.665 132.389 199.649 132.446 199.615 132.49L191.18 143.185V143.39H190.5L182.955 132.89C182.921 132.844 182.907 132.787 182.916 132.731C182.924 132.675 182.954 132.624 183 132.59C183.047 132.558 183.104 132.546 183.16 132.555C183.216 132.564 183.266 132.595 183.3 132.64L190.745 143V133.73L190.73 133.75ZM178.335 160.195L177.57 159.145L166.57 156.085C166.526 156.07 166.489 156.039 166.467 155.999C166.445 155.958 166.439 155.91 166.45 155.865C166.463 155.82 166.493 155.781 166.534 155.757C166.575 155.734 166.624 155.728 166.67 155.74L177.21 158.68L172.625 152.41L161.625 149.35C161.579 149.337 161.541 149.307 161.517 149.266C161.494 149.225 161.488 149.176 161.5 149.13C161.515 149.086 161.546 149.049 161.587 149.027C161.627 149.005 161.675 148.999 161.72 149.01L172.265 151.95L166.845 144.53L155.845 141.47C155.823 141.464 155.802 141.454 155.783 141.44C155.765 141.426 155.75 141.408 155.739 141.388C155.728 141.368 155.721 141.346 155.718 141.323C155.716 141.3 155.718 141.277 155.725 141.255C155.731 141.233 155.741 141.212 155.755 141.193C155.769 141.175 155.786 141.159 155.806 141.148C155.826 141.136 155.848 141.129 155.871 141.126C155.894 141.123 155.918 141.124 155.94 141.13L166.485 144.07L158.86 133.64C158.832 133.602 158.821 133.554 158.829 133.507C158.836 133.46 158.862 133.418 158.9 133.39C158.918 133.376 158.94 133.366 158.962 133.36C158.985 133.354 159.008 133.353 159.031 133.357C159.054 133.361 159.076 133.369 159.096 133.382C159.115 133.394 159.132 133.411 159.145 133.43L167.035 144.22L167 133.525C167.001 133.478 167.021 133.433 167.054 133.399C167.088 133.366 167.133 133.346 167.18 133.345C167.227 133.346 167.271 133.366 167.304 133.4C167.337 133.433 167.355 133.478 167.355 133.525L167.435 144.69L172.855 152.105L172.775 141.41C172.771 141.384 172.772 141.358 172.779 141.333C172.786 141.307 172.798 141.284 172.815 141.264C172.832 141.244 172.853 141.228 172.877 141.217C172.9 141.206 172.926 141.2 172.952 141.2C172.979 141.2 173.004 141.206 173.028 141.217C173.052 141.228 173.073 141.244 173.09 141.264C173.107 141.284 173.119 141.307 173.126 141.333C173.133 141.358 173.134 141.384 173.13 141.41L173.21 152.58L177.79 158.845L177.71 148.15C177.711 148.103 177.731 148.059 177.764 148.026C177.798 147.993 177.843 147.975 177.89 147.975C177.936 147.975 177.981 147.994 178.014 148.026C178.046 148.059 178.065 148.104 178.065 148.15L178.145 159.32L178.8 160.215L178.335 160.195ZM179.585 160.195C181.185 157.76 185.805 149.765 183.045 142.07C185.191 143.486 187.486 144.659 189.89 145.57V180.29C187.355 169.65 182.585 163.29 179.675 160.195H179.585ZM191.585 178.15V145.73C193.873 144.899 196.066 143.83 198.13 142.54C193.725 149.6 198.66 157.755 199.96 159.68C196.259 165.383 193.436 171.609 191.585 178.15ZM219.045 144.305L210.14 146.805L205.74 152.805L214.295 150.42C214.313 150.414 214.333 150.412 214.352 150.414C214.371 150.415 214.39 150.421 214.407 150.431C214.424 150.44 214.439 150.453 214.45 150.468C214.462 150.484 214.47 150.501 214.475 150.52C214.484 150.557 214.479 150.595 214.46 150.628C214.442 150.66 214.411 150.685 214.375 150.695L205.47 153.195L201.75 158.28L210.305 155.895C210.341 155.886 210.38 155.891 210.413 155.91C210.445 155.928 210.469 155.959 210.48 155.995C210.489 156.032 210.484 156.072 210.466 156.105C210.447 156.138 210.416 156.164 210.38 156.175L201.475 158.675L201.005 159.315C200.92 159.265 200.84 159.22 200.76 159.165L201.025 158.8L201.095 149.74C201.091 149.719 201.092 149.698 201.097 149.677C201.102 149.656 201.112 149.637 201.126 149.621C201.139 149.604 201.156 149.591 201.176 149.582C201.195 149.573 201.216 149.568 201.237 149.568C201.259 149.568 201.28 149.573 201.299 149.582C201.318 149.591 201.335 149.604 201.349 149.621C201.363 149.637 201.372 149.656 201.378 149.677C201.383 149.698 201.384 149.719 201.38 149.74L201.32 158.42L205 153.31L205.065 144.25C205.065 144.231 205.069 144.213 205.076 144.195C205.083 144.178 205.094 144.162 205.108 144.149C205.121 144.136 205.137 144.126 205.155 144.119C205.172 144.113 205.191 144.109 205.21 144.11C205.229 144.11 205.248 144.114 205.265 144.121C205.283 144.128 205.299 144.139 205.312 144.153C205.326 144.166 205.337 144.182 205.344 144.2C205.351 144.217 205.355 144.236 205.355 144.255L205.29 152.93L209.69 146.93L209.755 137.87C209.755 137.851 209.759 137.832 209.766 137.815C209.773 137.797 209.784 137.781 209.797 137.768C209.811 137.754 209.827 137.743 209.844 137.736C209.862 137.729 209.881 137.725 209.9 137.725C209.919 137.725 209.937 137.729 209.955 137.736C209.972 137.744 209.988 137.754 210.001 137.768C210.014 137.781 210.024 137.797 210.031 137.815C210.037 137.833 210.041 137.851 210.04 137.87L209.98 146.545L216.38 137.79C216.403 137.76 216.436 137.74 216.474 137.734C216.511 137.729 216.549 137.738 216.58 137.76C216.595 137.771 216.608 137.785 216.618 137.801C216.628 137.817 216.635 137.835 216.638 137.854C216.64 137.872 216.639 137.891 216.635 137.91C216.63 137.928 216.621 137.945 216.61 137.96L210.425 146.425L218.98 144.04C219.016 144.031 219.055 144.036 219.088 144.055C219.12 144.073 219.144 144.104 219.155 144.14C219.159 144.158 219.16 144.177 219.157 144.195C219.153 144.214 219.146 144.231 219.136 144.247C219.126 144.262 219.112 144.275 219.097 144.285C219.081 144.295 219.063 144.302 219.045 144.305Z" fill="#263238"/>
<path d="M170.445 56.04H93.2451C91.3812 56.04 89.8701 57.5511 89.8701 59.415V203.96C89.8701 205.824 91.3812 207.335 93.2451 207.335H170.445C172.309 207.335 173.82 205.824 173.82 203.96V59.415C173.82 57.5511 172.309 56.04 170.445 56.04Z" fill="#263238" stroke="#263238" stroke-linecap="round" stroke-linejoin="round"/>
<path d="M167.78 56.04H90.5801C88.7161 56.04 87.2051 57.5511 87.2051 59.415V203.96C87.2051 205.824 88.7161 207.335 90.5801 207.335H167.78C169.644 207.335 171.155 205.824 171.155 203.96V59.415C171.155 57.5511 169.644 56.04 167.78 56.04Z" fill="white"/>
<mask id="mask0_244_273" style="mask-type:luminance" maskUnits="userSpaceOnUse" x="87" y="56" width="85" height="152">
<path d="M167.78 56.04H90.5801C88.7161 56.04 87.2051 57.5511 87.2051 59.415V203.96C87.2051 205.824 88.7161 207.335 90.5801 207.335H167.78C169.644 207.335 171.155 205.824 171.155 203.96V59.415C171.155 57.5511 169.644 56.04 167.78 56.04Z" fill="white"/>
</mask>
<g mask="url(#mask0_244_273)">
<path d="M171.155 113.13L97.335 207.34H167.785C168.679 207.339 169.536 206.982 170.168 206.35C170.8 205.717 171.155 204.859 171.155 203.965V113.13Z" fill="#1D4ED8"/>
<path opacity="0.5" d="M171.155 113.13L97.335 207.34H167.785C168.679 207.339 169.536 206.982 170.168 206.35C170.8 205.717 171.155 204.859 171.155 203.965V113.13Z" fill="white"/>
</g>
<path d="M167.78 56.04H90.5801C88.7161 56.04 87.2051 57.5511 87.2051 59.415V203.96C87.2051 205.824 88.7161 207.335 90.5801 207.335H167.78C169.644 207.335 171.155 205.824 171.155 203.96V59.415C171.155 57.5511 169.644 56.04 167.78 56.04Z" stroke="#263238" stroke-linecap="round" stroke-linejoin="round"/>
<path d="M135 65.0801H124.55C124.265 65.0801 123.992 64.9668 123.79 64.7652C123.588 64.5636 123.475 64.2902 123.475 64.0051C123.475 63.8641 123.503 63.7246 123.557 63.5944C123.611 63.4643 123.69 63.3461 123.79 63.2467C123.89 63.1473 124.009 63.0686 124.139 63.0151C124.269 62.9616 124.409 62.9344 124.55 62.9351H135C135.284 62.9351 135.556 63.0478 135.757 63.2485C135.957 63.4491 136.07 63.7213 136.07 64.0051C136.071 64.146 136.044 64.2857 135.99 64.4161C135.937 64.5465 135.858 64.665 135.758 64.7649C135.659 64.8648 135.541 64.9441 135.411 64.9981C135.281 65.0522 135.141 65.0801 135 65.0801Z" fill="#263238" stroke="#263238" stroke-linecap="round" stroke-linejoin="round"/>
<path d="M165.85 193.815H92.5V65.2051H109.885L111.84 66.8251C112.522 67.3933 113.382 67.7047 114.27 67.7051H144.945C145.866 67.7014 146.754 67.3638 147.445 66.7551L149.215 65.2051H165.85V193.815Z" fill="#263238" stroke="#263238" stroke-linecap="round" stroke-linejoin="round"/>
<path d="M106.27 166.085H152.09" stroke="white" stroke-linecap="round" stroke-linejoin="round"/>
<path d="M106.27 172.115H152.09" stroke="white" stroke-linecap="round" stroke-linejoin="round"/>
<path d="M106.27 178.145H152.09" stroke="white" stroke-linecap="round" stroke-linejoin="round"/>
<path d="M110.5 110.1C107.62 114.272 106.222 119.289 106.528 124.35C106.834 129.41 108.828 134.222 112.189 138.016C115.551 141.811 120.087 144.37 125.074 145.284C130.061 146.198 135.209 145.414 139.698 143.058C144.187 140.703 147.758 136.911 149.838 132.288C151.919 127.665 152.391 122.478 151.178 117.556C149.966 112.633 147.138 108.259 143.148 105.132C139.158 102.005 134.235 100.306 129.165 100.305C127.775 100.305 126.388 100.431 125.02 100.68" stroke="white" stroke-linecap="round" stroke-linejoin="round"/>
<path d="M114.365 105.815C113.603 106.474 112.885 107.182 112.215 107.935" stroke="white" stroke-linecap="round" stroke-linejoin="round"/>
<path d="M146.882 130.524C151.045 120.748 146.496 109.447 136.72 105.283C126.943 101.119 115.643 105.669 111.479 115.445C107.315 125.221 111.865 136.522 121.641 140.686C131.417 144.85 142.718 140.3 146.882 130.524Z" fill="#1D4ED8"/>
<path d="M120.295 120.985L127.595 129.28L139.535 112.365" stroke="#263238" stroke-width="6" stroke-linecap="round" stroke-linejoin="round"/>
<path d="M147.465 66.7551C146.774 67.3638 145.886 67.7014 144.965 67.7051H114.28C113.392 67.7047 112.532 67.3933 111.85 66.8251L109.895 65.2051H92.5V78.3601H165.85V65.2051H149.235L147.465 66.7551Z" fill="#1D4ED8" stroke="#263238" stroke-linecap="round" stroke-linejoin="round"/>
<path d="M131.525 197.78C131.526 197.449 131.429 197.126 131.246 196.85C131.063 196.575 130.802 196.36 130.496 196.233C130.191 196.106 129.855 196.073 129.53 196.137C129.206 196.201 128.908 196.36 128.674 196.594C128.44 196.828 128.281 197.126 128.217 197.45C128.153 197.775 128.186 198.111 128.313 198.416C128.44 198.722 128.655 198.982 128.93 199.166C129.206 199.349 129.529 199.446 129.86 199.445C130.301 199.444 130.724 199.268 131.036 198.956C131.348 198.644 131.524 198.221 131.525 197.78Z" fill="#263238" stroke="#263238" stroke-linecap="round" stroke-linejoin="round"/>
<path d="M66.2899 146.63L59.7499 205.13C59.7499 205.13 54.9549 209.3 55.3749 210.985C55.7949 212.67 61.3299 209.985 62.0949 208.595C62.6378 207.438 63.0246 206.214 63.2449 204.955L77.0149 160.955L87.6049 208.14C87.6049 208.14 92.1049 211.835 94.6049 211.71C97.1049 211.585 96.2149 210.6 94.7899 208.795C93.3649 206.99 90.1399 205.96 90.1399 205.96L88.5499 145.145L66.2899 146.63Z" fill="#263238" stroke="#263238" stroke-linecap="round" stroke-linejoin="round"/>
<path d="M88.1911 144.122L66.2195 145.239L66.3718 148.235L88.3434 147.118L88.1911 144.122Z" fill="#263238" stroke="#263238" stroke-linecap="round" stroke-linejoin="round"/>
<path d="M79.85 146.025C79.885 146.77 78.94 147.42 77.73 147.485C76.52 147.55 75.5 147 75.5 146.25C75.5 145.5 76.415 144.855 77.62 144.795C78.825 144.735 79.81 145.285 79.85 146.025Z" fill="white"/>
<path d="M76.085 115.285L67.825 117.705L68.85 145.315L88.225 144.835L85.775 116.295L76.085 115.285Z" fill="white" stroke="#263238" stroke-linecap="round" stroke-linejoin="round"/>
<path d="M72.4701 115.595L71.3601 162.71L60.8401 157.615L65.4651 142.735L62.3101 117.61L72.4701 115.595Z" fill="#1D4ED8" stroke="#263238" stroke-linecap="round" stroke-linejoin="round"/>
<path d="M80.835 115.17L86.715 161.93L96.67 155.795L90.56 141.46L91.15 116.145L80.835 115.17Z" fill="#1D4ED8" stroke="#263238" stroke-linecap="round" stroke-linejoin="round"/>
<path d="M74.575 120.87L76.215 123.54L74.905 142.13L78.015 145.81L79.625 141.39L77.135 123.575L78.67 120.995L76.44 118.105L74.575 120.87Z" fill="#263238" stroke="#263238" stroke-linecap="round" stroke-linejoin="round"/>
<path d="M76.605 120.515L73.51 122.845L71.03 116.795L72.425 114.635L80 114.25L81.79 116.665L80.315 122.165L76.605 120.515Z" fill="white" stroke="#263238" stroke-linecap="round" stroke-linejoin="round"/>
<path d="M73.0549 112.31L73.7499 116.155L76.6049 120.515L79.2199 115.375L79.0549 112.13L73.0549 112.31Z" fill="white" stroke="#263238" stroke-linecap="round" stroke-linejoin="round"/>
<path d="M62.31 117.61L48.28 134.595L57.605 145.635L61.36 143.195L56.75 133.79L63.63 128.81L62.31 117.61Z" fill="#1D4ED8" stroke="#263238" stroke-linecap="round" stroke-linejoin="round"/>
<path d="M61.36 143.195L61.92 144.415L58.76 146.205L58.335 145.225L61.36 143.195Z" fill="white" stroke="#263238" stroke-linecap="round" stroke-linejoin="round"/>
<path d="M61.9199 144.415L65.1399 148.635L64.0799 149.94L63.3099 149.605L61.7499 150.935C61.7499 150.935 60.6099 150.615 60.4649 150.25C60.3199 149.885 58.7749 148.955 58.7399 148.335C58.7049 147.715 58.7399 146.205 58.7399 146.205L61.9199 144.415Z" fill="white" stroke="#263238" stroke-linecap="round" stroke-linejoin="round"/>
<path d="M98.965 119.46C99.155 118.964 99.1967 118.424 99.085 117.905C98.855 117.31 98.345 115.25 98.445 114.57C98.545 113.89 99.575 112.9 99.665 112.02C99.755 111.14 99.665 110.335 99.665 109.86C99.6733 109.73 99.7233 109.606 99.8076 109.507C99.892 109.407 100.006 109.338 100.133 109.309C100.26 109.28 100.393 109.292 100.512 109.345C100.632 109.397 100.731 109.487 100.795 109.6C101.295 110.18 101.595 110.775 101.355 111.39C101.192 112.078 101.114 112.783 101.125 113.49C101.125 113.49 101.925 114.595 102.365 115.315C102.805 116.035 102.765 117.92 102.47 118.675C102.195 119.247 101.807 119.757 101.33 120.175L101.38 121.475L98.965 119.46Z" fill="white" stroke="#263238" stroke-linecap="round" stroke-linejoin="round"/>
<path d="M100.425 112.45C100.425 112.45 100.075 113.48 100.69 113.715C101.305 113.95 103.82 114.3 103.845 113.49C103.87 112.68 103.92 112.275 103.515 112.295C103.11 112.315 101.225 112.295 101.225 112.295C101.225 112.295 100.35 112.25 100.425 112.45Z" fill="white" stroke="#263238" stroke-linecap="round" stroke-linejoin="round"/>
<path d="M100.71 117.5C100.71 117.5 100.46 118.265 100.905 118.44C101.35 118.615 103.16 118.88 103.175 118.275C103.19 117.67 103.225 117.37 102.935 117.385C102.645 117.4 101.285 117.385 101.285 117.385C101.285 117.385 100.655 117.34 100.71 117.5Z" fill="white" stroke="#263238" stroke-linecap="round" stroke-linejoin="round"/>
<path d="M100.375 115.865C100.375 115.865 100.085 116.755 100.6 116.96C101.115 117.165 103.21 117.46 103.23 116.77C103.25 116.08 103.29 115.72 102.95 115.735C102.61 115.75 101.04 115.735 101.04 115.735C101.04 115.735 100.31 115.695 100.375 115.865Z" fill="white" stroke="#263238" stroke-linecap="round" stroke-linejoin="round"/>
<path d="M100.18 114.28C100.18 114.28 99.83 115.31 100.45 115.545C101.07 115.78 103.575 116.13 103.6 115.32C103.625 114.51 103.675 114.105 103.27 114.125C102.865 114.145 100.98 114.125 100.98 114.125C100.98 114.125 100.105 114.085 100.18 114.28Z" fill="white" stroke="#263238" stroke-linecap="round" stroke-linejoin="round"/>
<path d="M98.6799 120.485L99.0699 118.915L101.78 120.53L101.325 122.235L98.6799 120.485Z" fill="white" stroke="#263238" stroke-linecap="round" stroke-linejoin="round"/>
<path d="M91.15 116.145L96.34 127.19L98.89 120.085L101.39 122.465L98.83 135.635C98.7502 136.04 98.5536 136.414 98.2644 136.709C97.9752 137.004 97.6061 137.209 97.2023 137.297C96.7986 137.385 96.3778 137.353 95.9919 137.205C95.606 137.058 95.2716 136.8 95.03 136.465L90.885 130.68L91.15 116.145Z" fill="#1D4ED8" stroke="#263238" stroke-linecap="round" stroke-linejoin="round"/>
<path d="M70.6399 107.82C70.6399 107.82 69.5899 106.7 69.4549 107.52C69.3199 108.34 69.7449 109.755 70.4049 110.26C71.0649 110.765 71.6449 109.93 71.6449 109.93L70.6399 107.82Z" fill="white" stroke="#263238" stroke-linecap="round" stroke-linejoin="round"/>
<path d="M80.5651 107.315C80.5651 107.315 81.4901 106.095 81.7151 106.895C81.9401 107.695 81.6501 109.15 81.0451 109.72C80.4401 110.29 79.7751 109.515 79.7751 109.515L80.5651 107.315Z" fill="white" stroke="#263238" stroke-linecap="round" stroke-linejoin="round"/>
<path d="M71.0601 108.97L70.0601 106.855C69.2552 105.722 68.6981 104.433 68.4251 103.07C67.9251 100.75 68.7501 98.82 69.8001 98.225C70.3902 97.8718 71.0869 97.7406 71.7651 97.855C71.7651 97.855 71.9651 96.495 75.2651 95.355C78.5651 94.215 82.1551 96.27 82.1001 96.99C82.0451 97.71 81.1651 98.03 81.1651 98.03C81.1651 98.03 83.7351 98.98 82.8051 100.195C82.2316 100.937 81.4894 101.532 80.6401 101.93C80.8265 102.543 80.9784 103.165 81.0951 103.795C81.2251 104.6 80.5001 108.06 80.5001 108.06L78.7251 103.195L73.1551 103.48C73.1551 103.48 72.8251 105.84 72.2351 106.68C71.8585 107.318 71.6487 108.04 71.6251 108.78C71.6251 108.78 71.3651 109.67 71.0601 108.97Z" fill="#263238" stroke="#263238" stroke-linecap="round" stroke-linejoin="round"/>
<path d="M72.05 100.18C72.0404 101.632 71.9352 103.082 71.735 104.52C71.6145 105.32 71.2011 106.047 70.575 106.56C70.575 106.56 71.285 109.855 72.185 111.61C73.085 113.365 74.955 114.805 76.84 114.61C78.725 114.415 80.23 112.275 80.41 110.465C80.59 108.655 79.705 101.965 79.705 101.965C79.705 101.965 73.815 103 72.05 100.18Z" fill="white" stroke="#263238" stroke-linecap="round" stroke-linejoin="round"/>
<path d="M72.55 106.945C72.8503 106.768 73.1892 106.666 73.5377 106.648C73.8861 106.631 74.2336 106.698 74.55 106.845" stroke="#263238" stroke-linecap="round" stroke-linejoin="round"/>
<path d="M72.47 105.445C72.47 105.445 72.585 104.445 74.255 104.355" stroke="#263238" stroke-linecap="round" stroke-linejoin="round"/>
<path d="M76.915 104.135C77.2929 103.98 77.7104 103.951 78.1064 104.051C78.5023 104.151 78.8558 104.375 79.115 104.69" stroke="#263238" stroke-linecap="round" stroke-linejoin="round"/>
<path d="M76.3299 105.75C76.3299 105.75 76.5949 107.75 76.6099 107.995C76.6249 108.24 77.4599 108.285 77.2349 108.795C77.0099 109.305 76.2849 109.845 75.6799 109.46" stroke="#263238" stroke-linecap="round" stroke-linejoin="round"/>
<path d="M77.27 111.135C77.27 111.135 76.635 111.75 75.355 111.23" stroke="#263238" stroke-linecap="round" stroke-linejoin="round"/>
<path d="M78.5351 106.39C78.5351 106.76 78.38 107.07 78.15 107.08C77.92 107.09 77.72 106.8 77.7 106.435C77.68 106.07 77.855 105.76 78.085 105.745C78.315 105.73 78.5001 106.025 78.5351 106.39Z" fill="#263238"/>
</svg>
