<svg width="16" height="16" viewBox="0 0 16 16" fill="none" xmlns="http://www.w3.org/2000/svg">
<path d="M3.71427 6.857C5.45002 6.857 6.85713 5.4499 6.85713 3.71415C6.85713 1.97839 5.45002 0.571289 3.71427 0.571289C1.97852 0.571289 0.571411 1.97839 0.571411 3.71415C0.571411 5.4499 1.97852 6.857 3.71427 6.857Z" stroke="#32373D" stroke-linecap="round" stroke-linejoin="round"/>
<path d="M12.2857 6.857C14.0214 6.857 15.4285 5.4499 15.4285 3.71415C15.4285 1.97839 14.0214 0.571289 12.2857 0.571289C10.5499 0.571289 9.14282 1.97839 9.14282 3.71415C9.14282 5.4499 10.5499 6.857 12.2857 6.857Z" stroke="#32373D" stroke-linecap="round" stroke-linejoin="round"/>
<path d="M3.71427 15.4283C5.45002 15.4283 6.85713 14.0212 6.85713 12.2854C6.85713 10.5497 5.45002 9.14258 3.71427 9.14258C1.97852 9.14258 0.571411 10.5497 0.571411 12.2854C0.571411 14.0212 1.97852 15.4283 3.71427 15.4283Z" stroke="#32373D" stroke-linecap="round" stroke-linejoin="round"/>
<path d="M12.2857 15.4283C14.0214 15.4283 15.4285 14.0212 15.4285 12.2854C15.4285 10.5497 14.0214 9.14258 12.2857 9.14258C10.5499 9.14258 9.14282 10.5497 9.14282 12.2854C9.14282 14.0212 10.5499 15.4283 12.2857 15.4283Z" stroke="#32373D" stroke-linecap="round" stroke-linejoin="round"/>
</svg>
