<svg width="400" height="400" viewBox="0 0 400 400" fill="none" xmlns="http://www.w3.org/2000/svg">
<path d="M132.464 125.816C126.064 129.608 119.48 133.016 113.032 136.824C83.3441 154.2 58.9121 177.496 55.9121 213.184C53.7201 239.312 61.9521 269.712 84.9361 284.832C90.6105 288.549 96.9426 291.147 103.592 292.488C112.968 294.4 122.896 293.648 132.464 293.096V125.816Z" fill="#1D4ED8"/>
<path d="M270.28 88.6562H178.112C172.177 92.3582 166.613 96.6232 161.496 101.392H288.168C282.585 96.6382 276.599 92.3769 270.28 88.6562Z" fill="#1D4ED8"/>
<path d="M265.968 86.2561C259.292 82.6887 252.251 79.8484 244.968 77.7841C222.928 71.6161 201.096 75.7201 182.2 86.2561H265.968Z" fill="#1D4ED8"/>
<path d="M320 138.672C312.003 125.73 302.213 113.986 290.92 103.792H205.496V304.312C211.875 306.447 218.406 308.099 225.032 309.256C268.584 316.232 317.312 300.72 334.208 256.824C349.352 217.488 341.824 173.696 320 138.672Z" fill="#1D4ED8"/>
<path d="M200.256 103.792H158.984C157.283 105.472 155.624 107.205 154.008 108.992C149.195 114.223 143.713 118.796 137.704 122.592V292.84C152.636 292.271 167.575 293.752 182.104 297.24C188.256 298.712 194.256 300.68 200.256 302.632V103.792Z" fill="#1D4ED8"/>
<g opacity="0.8">
<path d="M132.464 125.816C126.064 129.608 119.48 133.016 113.032 136.824C83.3441 154.2 58.9121 177.496 55.9121 213.184C53.7201 239.312 61.9521 269.712 84.9361 284.832C90.6105 288.549 96.9426 291.147 103.592 292.488C112.968 294.4 122.896 293.648 132.464 293.096V125.816Z" fill="white"/>
<path d="M270.28 88.6562H178.112C172.177 92.3582 166.613 96.6232 161.496 101.392H288.168C282.585 96.6382 276.599 92.3769 270.28 88.6562Z" fill="white"/>
<path d="M265.968 86.2561C259.292 82.6887 252.251 79.8484 244.968 77.7841C222.928 71.6161 201.096 75.7201 182.2 86.2561H265.968Z" fill="white"/>
<path d="M320 138.672C312.003 125.73 302.213 113.986 290.92 103.792H205.496V304.312C211.875 306.447 218.406 308.099 225.032 309.256C268.584 316.232 317.312 300.72 334.208 256.824C349.352 217.488 341.824 173.696 320 138.672Z" fill="white"/>
<path d="M200.256 103.792H158.984C157.283 105.472 155.624 107.205 154.008 108.992C149.195 114.223 143.713 118.796 137.704 122.592V292.84C152.636 292.271 167.575 293.752 182.104 297.24C188.256 298.712 194.256 300.68 200.256 302.632V103.792Z" fill="white"/>
</g>
<path d="M197.088 327.88C262.032 327.88 314.68 324.363 314.68 320.024C314.68 315.685 262.032 312.168 197.088 312.168C132.144 312.168 79.4961 315.685 79.4961 320.024C79.4961 324.363 132.144 327.88 197.088 327.88Z" fill="#1D4ED8"/>
<path opacity="0.5" d="M197.088 327.88C262.032 327.88 314.68 324.363 314.68 320.024C314.68 315.685 262.032 312.168 197.088 312.168C132.144 312.168 79.4961 315.685 79.4961 320.024C79.4961 324.363 132.144 327.88 197.088 327.88Z" fill="white"/>
<path d="M169.952 110.632H158.696V113.088V127.512V129.968H182.568V113.088H170.752L169.952 110.632Z" fill="#1D4ED8"/>
<path d="M169.952 147.432H158.696V149.888V164.312V166.768H182.568V149.888H170.752L169.952 147.432Z" fill="#1D4ED8"/>
<path d="M169.952 184.232H158.696V186.688V201.112V203.568H182.568V186.688H170.752L169.952 184.232Z" fill="#1D4ED8"/>
<path d="M169.952 221.032H158.696V223.488V237.912V240.368H182.568V223.488H170.752L169.952 221.032Z" fill="#1D4ED8"/>
<path d="M169.952 257.832H158.696V260.288V274.712V277.168H182.568V260.288H170.752L169.952 257.832Z" fill="#1D4ED8"/>
<path d="M242.08 110.632H230.832V113.088V127.512V129.968H254.696V113.088H242.88L242.08 110.632Z" fill="#1D4ED8"/>
<path d="M288.88 113.088L288.08 110.632H276.832V113.088V127.512V129.968H300.696V113.088H288.88Z" fill="#1D4ED8"/>
<path d="M242.08 147.432H230.832V149.888V164.312V166.768H254.696V149.888H242.88L242.08 147.432Z" fill="#1D4ED8"/>
<path d="M288.08 184.232H276.832V186.688V201.112V203.568H300.696V186.688H288.88L288.08 184.232Z" fill="#1D4ED8"/>
<path d="M288.08 147.432H276.832V149.888V164.312V166.768H300.696V149.888H288.88L288.08 147.432Z" fill="#1D4ED8"/>
<path d="M242.08 184.232H230.832V186.688V201.112V203.568H254.696V186.688H242.88L242.08 184.232Z" fill="#1D4ED8"/>
<path d="M242.08 221.032H230.832V223.488V237.912V240.368H254.696V223.488H242.88L242.08 221.032Z" fill="#1D4ED8"/>
<path d="M288.08 221.032H276.832V223.488V237.912V240.368H300.696V223.488H288.88L288.08 221.032Z" fill="#1D4ED8"/>
<path d="M242.08 257.832H230.832V260.288V274.712V277.168H254.696V260.288H242.88L242.08 257.832Z" fill="#1D4ED8"/>
<path d="M288.08 257.832H276.832V260.288V274.712V277.168H300.696V260.288H288.88L288.08 257.832Z" fill="#1D4ED8"/>
<g opacity="0.5">
<path d="M169.952 110.632H158.696V113.088V127.512V129.968H182.568V113.088H170.752L169.952 110.632Z" fill="white"/>
<path d="M169.952 147.432H158.696V149.888V164.312V166.768H182.568V149.888H170.752L169.952 147.432Z" fill="white"/>
<path d="M169.952 184.232H158.696V186.688V201.112V203.568H182.568V186.688H170.752L169.952 184.232Z" fill="white"/>
<path d="M169.952 221.032H158.696V223.488V237.912V240.368H182.568V223.488H170.752L169.952 221.032Z" fill="white"/>
<path d="M169.952 257.832H158.696V260.288V274.712V277.168H182.568V260.288H170.752L169.952 257.832Z" fill="white"/>
<path d="M242.08 110.632H230.832V113.088V127.512V129.968H254.696V113.088H242.88L242.08 110.632Z" fill="white"/>
<path d="M288.88 113.088L288.08 110.632H276.832V113.088V127.512V129.968H300.696V113.088H288.88Z" fill="white"/>
<path d="M242.08 147.432H230.832V149.888V164.312V166.768H254.696V149.888H242.88L242.08 147.432Z" fill="white"/>
<path d="M288.08 184.232H276.832V186.688V201.112V203.568H300.696V186.688H288.88L288.08 184.232Z" fill="white"/>
<path d="M288.08 147.432H276.832V149.888V164.312V166.768H300.696V149.888H288.88L288.08 147.432Z" fill="white"/>
<path d="M242.08 184.232H230.832V186.688V201.112V203.568H254.696V186.688H242.88L242.08 184.232Z" fill="white"/>
<path d="M242.08 221.032H230.832V223.488V237.912V240.368H254.696V223.488H242.88L242.08 221.032Z" fill="white"/>
<path d="M288.08 221.032H276.832V223.488V237.912V240.368H300.696V223.488H288.88L288.08 221.032Z" fill="white"/>
<path d="M242.08 257.832H230.832V260.288V274.712V277.168H254.696V260.288H242.88L242.08 257.832Z" fill="white"/>
<path d="M288.08 257.832H276.832V260.288V274.712V277.168H300.696V260.288H288.88L288.08 257.832Z" fill="white"/>
</g>
<path d="M106.776 165.64C106.776 165.64 106.056 170.576 108.44 173.952C110.824 177.328 128.216 191.472 129.768 192.288C131.32 193.104 137.992 191.36 135.976 185.968C133.96 180.576 119.312 169.168 116.376 166.08C113.44 162.992 110.704 163.44 110.704 163.44" fill="#1D4ED8"/>
<path d="M106.776 165.64C106.776 165.64 106.056 170.576 108.44 173.952C110.824 177.328 128.216 191.472 129.768 192.288C131.32 193.104 137.992 191.36 135.976 185.968C133.96 180.576 119.312 169.168 116.376 166.08C113.44 162.992 110.704 163.44 110.704 163.44" stroke="#263238" stroke-miterlimit="10"/>
<path d="M133.376 183.64C133.376 183.64 136.712 183.872 142.904 183.64C149.096 183.408 164.584 184.352 166.968 184.352H169.368L169.136 189.832C169.136 189.832 157.456 190.784 149.36 191.976C141.264 193.168 134.592 194.6 127.92 191.264" fill="#1D4ED8"/>
<path d="M133.376 183.64C133.376 183.64 136.712 183.872 142.904 183.64C149.096 183.408 164.584 184.352 166.968 184.352H169.368L169.136 189.832C169.136 189.832 157.456 190.784 149.36 191.976C141.264 193.168 134.592 194.6 127.92 191.264" stroke="#263238" stroke-linecap="round" stroke-linejoin="round"/>
<path d="M169.344 184.352L169.76 183.384C170.418 181.846 171.536 180.55 172.96 179.672C174.215 179.305 175.413 178.767 176.52 178.072L176.72 177.952C176.72 177.952 178.208 178.384 177.336 179.552C177.117 179.892 176.812 180.168 176.453 180.353C176.094 180.539 175.692 180.627 175.288 180.608L174.096 182.512L182.296 183.176C182.296 183.176 183.48 183.648 182.528 184.36C181.576 185.072 176.928 184.896 176.928 184.896L182.84 185.936C182.84 185.936 183.512 186.608 183.224 187.176C182.936 187.744 176.736 186.984 176.736 186.984L181.984 188.416C182.198 188.578 182.351 188.808 182.419 189.067C182.487 189.327 182.466 189.602 182.36 189.848C182.176 190.328 181.032 190.136 180.552 189.944C180.072 189.752 176.64 189.184 176.64 189.184L180.456 191.28C180.418 191.507 180.326 191.721 180.186 191.904C180.047 192.086 179.865 192.232 179.656 192.328C179.093 192.485 178.499 192.485 177.936 192.328L172.976 190.328C172.976 190.328 172.712 190.992 169.032 189.896L169.344 184.352Z" fill="white" stroke="#263238" stroke-linecap="round" stroke-linejoin="round"/>
<path d="M174.112 182.448C174.112 182.448 174.584 185.968 172.768 186.64L174.112 182.448Z" fill="white"/>
<path d="M174.112 182.448C174.112 182.448 174.584 185.968 172.768 186.64" stroke="#263238" stroke-linecap="round" stroke-linejoin="round"/>
<path d="M284 167.8C284 167.8 283.696 172.776 280.672 175.6C277.648 178.424 257.744 188.712 256.056 189.2C254.368 189.688 248.192 186.616 251.256 181.752C254.32 176.888 271 168.712 274.504 166.272C278.008 163.832 280.592 164.84 280.592 164.84" fill="#1D4ED8"/>
<path d="M284 167.8C284 167.8 283.696 172.776 280.672 175.6C277.648 178.424 257.744 188.712 256.056 189.2C254.368 189.688 248.192 186.616 251.256 181.752C254.32 176.888 271 168.712 274.504 166.272C278.008 163.832 280.592 164.84 280.592 164.84" stroke="#263238" stroke-miterlimit="10"/>
<path d="M254.256 180C254.256 180 250.944 179.552 244.928 178.056C238.912 176.56 223.56 174.336 221.224 173.848L218.896 173.36L218.008 178.776C218.008 178.776 229.208 182.088 236.928 184.912C244.648 187.736 250.856 190.512 258.064 188.584" fill="#1D4ED8"/>
<path d="M254.256 180C254.256 180 250.944 179.552 244.928 178.056C238.912 176.56 223.56 174.336 221.224 173.848L218.896 173.36L218.008 178.776C218.008 178.776 229.208 182.088 236.928 184.912C244.648 187.736 250.856 190.512 258.064 188.584" stroke="#263238" stroke-linecap="round" stroke-linejoin="round"/>
<path d="M218.896 173.352L218.688 172.32C218.35 170.677 217.512 169.179 216.288 168.032C215.134 167.406 214.071 166.625 213.128 165.712L212.968 165.552C212.968 165.552 211.416 165.672 212.048 166.96C212.191 167.337 212.432 167.67 212.745 167.924C213.058 168.179 213.433 168.346 213.832 168.408L214.632 170.52L206.472 169.496C206.472 169.496 205.208 169.72 206 170.608C206.792 171.496 211.352 172.264 211.352 172.264L205.352 172.088C205.352 172.088 204.552 172.6 204.72 173.224C204.888 173.848 211.12 174.36 211.12 174.36L205.696 174.688C205.453 174.802 205.256 174.994 205.134 175.233C205.012 175.472 204.974 175.745 205.024 176.008C205.12 176.52 206.28 176.56 206.784 176.472C207.288 176.384 210.784 176.528 210.784 176.528L206.616 177.8C206.605 178.026 206.648 178.251 206.741 178.457C206.834 178.663 206.975 178.844 207.152 178.984C207.669 179.252 208.25 179.374 208.832 179.336L214.096 178.384C214.096 178.384 214.224 179.088 218.048 178.768L218.896 173.352Z" fill="white" stroke="#263238" stroke-linecap="round" stroke-linejoin="round"/>
<path d="M214.616 170.52C214.616 170.52 213.44 173.872 215.072 174.896L214.616 170.52Z" fill="white"/>
<path d="M214.616 170.52C214.616 170.52 213.44 173.872 215.072 174.896" stroke="#263238" stroke-linecap="round" stroke-linejoin="round"/>
<path d="M220.248 205.096H174.808V144.24H206.72L220.248 156.632V205.096Z" fill="white" stroke="#263238" stroke-linecap="round" stroke-linejoin="round"/>
<path d="M206.72 144.24V156.632H220.248L206.72 144.24Z" fill="#263238" stroke="#263238" stroke-linecap="round" stroke-linejoin="round"/>
<path d="M224.921 205.671C229.579 200.742 229.359 192.97 224.43 188.312C219.5 183.654 211.728 183.873 207.07 188.803C202.412 193.732 202.632 201.504 207.561 206.162C212.49 210.82 220.262 210.601 224.921 205.671Z" fill="#263238"/>
<path d="M222.608 195.816H217.408V190.624H214.576V195.816H209.384V198.656H214.576V203.848H217.408V198.656H222.608V195.816Z" fill="white"/>
<path d="M242.504 274.064H155.072L144.992 206.68H242.504V274.064Z" fill="#263238" stroke="#263238" stroke-linecap="round" stroke-linejoin="round"/>
<path d="M196.944 206.68L195.632 202.904C195.28 201.892 194.622 201.015 193.749 200.395C192.876 199.774 191.831 199.44 190.76 199.44H155.384V274.064H242.824L252.896 206.68H196.944Z" fill="#1D4ED8" stroke="#263238" stroke-linecap="round" stroke-linejoin="round"/>
<path d="M101.392 306.544C101.392 306.544 103.336 310.904 105.272 312.36C107.208 313.816 110.872 313.576 111.336 316C111.8 318.424 109.88 318.664 108.184 318.664C106.488 318.664 101.152 318.664 100.184 318.424C97.1266 317.351 94.261 315.795 91.6959 313.816C88.7919 311.416 88.0639 311.632 90.2479 307.024C92.4319 302.416 101.392 306.544 101.392 306.544Z" fill="#1D4ED8" stroke="#263238" stroke-miterlimit="10"/>
<path d="M111.4 316.464C109.048 316.88 104.44 317.448 100.384 316.464C96.3278 315.48 91.5358 311.832 89.1118 309.832C88.6078 311.72 89.5598 312.064 91.6958 313.832C94.2636 315.797 97.1291 317.339 100.184 318.4C101.152 318.64 106.488 318.64 108.184 318.64C109.88 318.64 111.552 318.448 111.4 316.464Z" fill="white" stroke="#263238" stroke-miterlimit="10"/>
<path d="M108.664 227.36C108.664 227.36 105.336 255.28 102.672 262.312C100.008 269.344 95.9919 273.792 95.0239 279.112C94.0559 284.432 90.2239 307.016 90.2239 307.016C90.2239 307.016 92.6239 309.416 94.3439 309.2C96.0639 308.984 101.128 309.688 102.584 307.016C104.04 304.344 104.4 300.024 104.64 299.296C104.88 298.568 115.04 278.912 117.496 271.152C119.952 263.392 127.728 231.344 127.488 227.464" fill="#263238"/>
<path d="M108.664 227.36C108.664 227.36 105.336 255.28 102.672 262.312C100.008 269.344 95.9919 273.792 95.0239 279.112C94.0559 284.432 90.2239 307.016 90.2239 307.016C90.2239 307.016 92.6239 309.416 94.3439 309.2C96.0639 308.984 101.128 309.688 102.584 307.016C104.04 304.344 104.4 300.024 104.64 299.296C104.88 298.568 115.04 278.912 117.496 271.152C119.952 263.392 127.728 231.344 127.488 227.464" stroke="#263238" stroke-miterlimit="10"/>
<path d="M106.888 208.208C106.888 208.208 103.92 216.936 105.032 224.736C106.144 232.536 114.88 236.44 121.032 235.32C127.184 234.2 128.832 229.936 128.832 222.52C128.812 217.931 128.494 213.348 127.88 208.8C121.018 210.993 113.615 210.784 106.888 208.208Z" fill="#263238" stroke="#263238" stroke-miterlimit="10"/>
<path d="M108.936 151.376C108.936 151.376 103.336 161.776 102.992 170.128C102.648 178.48 106.888 208.208 106.888 208.208C106.888 208.208 108.56 211.552 116.552 211.92C124.544 212.288 127.88 209.52 127.88 209.52C127.88 209.52 130.664 190.576 130.664 180.544C130.664 170.512 122.864 155.656 122.864 155.656L108.936 151.376Z" fill="#1D4ED8" stroke="#263238" stroke-miterlimit="10"/>
<path d="M104.632 174.504C104.632 174.504 105.12 180.384 112.232 181.12" stroke="#263238" stroke-linecap="round" stroke-linejoin="round"/>
<path d="M106.592 182.344C109.184 183.873 112.247 184.397 115.2 183.816" stroke="#263238" stroke-linecap="round" stroke-linejoin="round"/>
<path d="M109.288 208.56C109.288 208.56 116.392 202.44 120.072 196.8" stroke="#263238" stroke-linecap="round" stroke-linejoin="round"/>
<path d="M119.336 202.68C119.336 202.68 113.208 209.08 111 209.792" stroke="#263238" stroke-linecap="round" stroke-linejoin="round"/>
<path d="M113.016 137.6C113.016 137.6 112.832 142.8 112.28 146.328C111.728 149.856 111.536 151.344 111.536 151.344L121.752 155.24C121.752 155.24 120.816 148.184 122.12 145.208C122.855 143.619 123.356 141.932 123.608 140.2C123.608 140.2 120.264 132.024 116.736 131.464C113.208 130.904 113.016 137.6 113.016 137.6Z" fill="white" stroke="#263238" stroke-miterlimit="10"/>
<path d="M126.952 122.584C126.952 122.584 128.808 120.912 126.392 115.384C123.976 109.856 112.28 110.184 106.704 115.192C101.128 120.2 99.2718 129.128 104.104 134.88C108.936 140.632 114.688 141.384 118.408 139.152C122.128 136.92 122.488 132.656 122.488 130.984C122.488 129.312 121.192 125.224 123.048 124.112C124.258 123.394 125.576 122.878 126.952 122.584Z" fill="#263238" stroke="#263238" stroke-miterlimit="10"/>
<path d="M107.816 151.744L124.352 158.432L123.424 153.048L108.744 146.912L107.816 151.744Z" fill="white" stroke="#263238" stroke-miterlimit="10"/>
<path d="M129.032 313.088C129.032 313.088 133.88 316 136.544 317.208C139.208 318.416 139.456 318.176 139.456 319.872C139.456 321.568 139.696 321.816 135.328 321.816C130.96 321.816 118.36 322.056 117.152 321.088C115.944 320.12 127.336 312.36 129.032 313.088Z" fill="#1D4ED8" stroke="#263238" stroke-miterlimit="10"/>
<path d="M135.328 321.816C139.416 321.816 139.464 321.6 139.456 320.216C127.032 320.592 120.976 320.12 118.032 319.576C117.232 320.32 116.872 320.896 117.152 321.12C118.4 322.056 130.968 321.816 135.328 321.816Z" fill="white" stroke="#263238" stroke-miterlimit="10"/>
<path d="M126.4 121.28C126.4 121.28 117.672 125.368 117.672 126.88C117.672 128.392 121.384 128.92 120.272 130.784C119.743 131.708 119.116 132.572 118.4 133.36C118.4 133.36 119.88 135.96 118.584 136.328C117.288 136.696 116.728 136.696 115.384 134.84C114.04 132.984 112.784 132.056 112.416 135.216C112.048 138.376 113.528 138.928 114.64 139.112C115.504 139.215 116.376 139.215 117.24 139.112C117.24 139.112 119.104 143.568 120.4 144.128C121.696 144.688 128.016 145.432 129.312 143.944C130.608 142.456 129.688 135.768 129.688 135.768C129.688 135.768 131.544 135.4 131.544 133.728C131.544 132.056 128.576 129.64 128.576 129.64C128.576 129.64 129.312 128.528 128.76 125.928C128.342 124.218 127.534 122.627 126.4 121.28Z" fill="white" stroke="#263238" stroke-miterlimit="10"/>
<path d="M126.648 130.464C126.648 131.048 126.416 131.528 126.12 131.528C125.824 131.528 125.592 131.048 125.592 130.464C125.592 129.88 125.824 129.408 126.12 129.408C126.416 129.408 126.648 129.88 126.648 130.464Z" fill="#263238"/>
<path d="M124.296 128.568C124.296 128.568 124.568 126.968 126.976 127.28" stroke="#263238" stroke-linecap="round" stroke-linejoin="round"/>
<path d="M127.44 138.184C126.541 138.106 125.709 137.674 125.128 136.984" stroke="#263238" stroke-linecap="round" stroke-linejoin="round"/>
<path d="M107.2 227.84C107.2 227.84 108.896 244.568 111.072 251.84C113.248 259.112 113.256 262.24 112.528 268.568C111.8 274.896 109.376 280.688 111.072 286.504C112.768 292.32 116.168 317.208 116.168 318.176C116.168 319.144 115.92 320.576 117.136 321.088C118.352 321.6 128.768 314.544 129.016 313.088C129.264 311.632 127.32 307.272 127.32 303.392C127.32 299.512 128.528 276.808 128.528 265.904C128.528 255 129.744 234.144 125.864 224.448" fill="#263238"/>
<path d="M107.2 227.84C107.2 227.84 108.896 244.568 111.072 251.84C113.248 259.112 113.256 262.24 112.528 268.568C111.8 274.896 109.376 280.688 111.072 286.504C112.768 292.32 116.168 317.208 116.168 318.176C116.168 319.144 115.92 320.576 117.136 321.088C118.352 321.6 128.768 314.544 129.016 313.088C129.264 311.632 127.32 307.272 127.32 303.392C127.32 299.512 128.528 276.808 128.528 265.904C128.528 255 129.744 234.144 125.864 224.448" stroke="#263238" stroke-miterlimit="10"/>
<path d="M108.592 238.4C108.592 238.4 109.736 246.536 111.088 251.84C112.44 257.144 113.824 259.632 112.176 266.24C110.528 272.848 109.968 275.04 110.792 278.368" stroke="white" stroke-linecap="round" stroke-linejoin="round"/>
<path d="M256.848 308.352C256.848 308.352 246.928 311.664 244.568 312.352C242.208 313.04 240.08 313.536 242.208 315.896C244.336 318.256 254.728 318.496 257.792 318.496C260.856 318.496 262.992 320.144 263.696 318.256C264.4 316.368 264.408 311.168 264.408 311.168L256.848 308.352Z" fill="#1D4ED8" stroke="#263238" stroke-miterlimit="10"/>
<path d="M264 317.128C261.36 317.048 256.376 316.8 250.48 316.04C247.383 315.743 244.341 315.021 241.44 313.896C241.224 314.368 241.44 315 242.24 315.912C244.368 318.272 254.76 318.512 257.824 318.512C260.888 318.512 263.024 320.16 263.728 318.272C263.854 317.9 263.945 317.517 264 317.128Z" fill="white" stroke="#263238" stroke-miterlimit="10"/>
<path d="M286.84 310.712C286.84 310.712 279.28 316.384 277.16 317.56C275.04 318.736 274.56 320.632 276.448 320.632C278.336 320.632 293.688 321.104 295.816 319.688C297.944 318.272 294.872 311.424 294.872 311.424C294.872 311.424 289.2 310.712 286.84 310.712Z" fill="#1D4ED8" stroke="#263238" stroke-miterlimit="10"/>
<path d="M295.816 319.688C296.416 319.288 296.616 318.448 296.552 317.456C289.689 318.664 282.711 319.093 275.752 318.736C275 319.704 275.152 320.632 276.48 320.632C278.336 320.632 293.688 321.104 295.816 319.688Z" fill="white" stroke="#263238" stroke-miterlimit="10"/>
<path d="M268.656 201.096C268.656 201.096 258.256 237.224 257.792 245.728C257.328 254.232 256.848 299.384 256.848 301.504V308.352L264.408 311.184C264.408 311.184 267.952 284.456 268.656 278.08C269.36 271.704 269.84 264.616 270.784 261.28C271.728 257.944 273.616 244.48 274.328 241.68C275.04 238.88 276.688 227.04 276.216 213.576C275.744 200.112 270.312 197.784 268.656 201.096Z" fill="#263238" stroke="#263238" stroke-miterlimit="10"/>
<path d="M267.48 198.496C267.48 198.496 267.712 209.12 267.952 219.512C268.192 229.904 267.48 245.728 269.84 257.064C272.2 268.4 281.408 293.008 282.352 297.016C283.296 301.024 286.608 311.664 286.608 311.664C286.608 311.664 291.8 312.136 294.872 311.424C294.872 311.424 291.8 288.472 291.328 279.496C290.856 270.52 285.184 257.768 284.008 254.696C282.832 251.624 286.4 227.072 286.4 227.072C286.4 227.072 292.064 216.672 290.648 210.064C289.842 206.159 287.96 202.557 285.216 199.664C285.216 199.664 271.016 201.6 267.48 198.496Z" fill="#263238" stroke="#263238" stroke-miterlimit="10"/>
<path d="M268.24 213.304C268.24 213.304 267.968 240.6 269.04 248.32C270.112 256.04 271.24 259.08 271.24 259.08" stroke="white" stroke-linecap="round" stroke-linejoin="round"/>
<path d="M284.712 153.6C284.712 153.6 281.88 151.48 275.744 156C269.608 160.52 262.52 172.76 262.992 177.488C263.464 182.216 267.48 196.144 267.48 198.504C267.48 200.864 268.184 199.92 271.016 200.864C273.848 201.808 281.88 201.576 283.768 200.632C285.656 199.688 284.712 193.544 285.184 188.352C285.656 183.16 288.728 173 288.496 165.68C288.264 158.36 285.656 154.568 284.712 153.6Z" fill="#1D4ED8" stroke="#263238" stroke-miterlimit="10"/>
<path d="M273.144 126.704C273.144 126.704 270.312 130.248 270.312 132.608C270.312 134.968 269.784 137.408 268.368 138.568C266.952 139.728 267 140.872 268.184 141.112L269.368 141.344C269.368 141.344 270.032 146.496 270.968 148.392C271.904 150.288 275.264 148.664 275.968 148.392C276.672 148.12 275.736 155.24 275.736 155.952C275.736 156.664 282.816 155.712 283.736 155.712C284.656 155.712 284.208 147.208 285.152 144.616C286.096 142.024 289.152 138.712 285.392 133.04C281.632 127.368 275.272 122.688 273.144 126.704Z" fill="white" stroke="#263238" stroke-miterlimit="10"/>
<path d="M272.112 137.232C272.112 137.816 272.344 138.288 272.64 138.288C272.936 138.288 273.168 137.816 273.168 137.232C273.168 136.648 272.936 136.168 272.64 136.168C272.344 136.168 272.112 136.648 272.112 137.232Z" fill="#263238"/>
<path d="M270.672 143.2C270.672 143.2 271.472 144.12 273.28 142.888" stroke="#263238" stroke-linecap="round" stroke-linejoin="round"/>
<path d="M271.288 134.272C271.288 134.272 272.664 132.584 274.352 134.736" stroke="#263238" stroke-linecap="round" stroke-linejoin="round"/>
<path d="M279.848 153.184C279.848 153.184 273.72 155.384 272.736 156.856C271.752 158.328 271.024 160.776 272.496 160.776C273.968 160.776 280.328 156.496 282.048 156.12C283.768 155.744 282.048 150.976 279.848 153.184Z" fill="white" stroke="#263238" stroke-miterlimit="10"/>
<path d="M273.144 126.704C273.729 129.863 275.02 132.849 276.92 135.44C279.992 139.44 283.064 138.512 282.352 141.84C281.64 145.168 276.448 149.84 278.576 155.072C280.704 160.304 285.424 161.208 286.368 163.336C287.312 165.464 289.44 166.168 287.08 174.672C284.72 183.176 281.176 190.016 284.24 198.048C287.304 206.08 295.344 208.2 301.48 205.368C307.616 202.536 303.84 193.56 305.264 188.128C306.688 182.696 318.96 178.448 314.704 163.328C310.448 148.208 300.536 144.2 297.904 139C295.272 133.8 295.784 125.072 290.352 121.528C284.92 117.984 278.776 121.056 276.656 121.528C274.536 122 273.344 118.456 269.096 120.112C264.848 121.768 262.312 129.712 269.896 131.376C270.692 129.638 271.792 128.056 273.144 126.704Z" fill="#263238" stroke="#263238" stroke-miterlimit="10"/>
<path d="M280.952 138.016C282.433 139.552 284.207 140.776 286.168 141.616C294.968 145.472 301.056 150.992 301.056 160.36C301.056 169.728 292.256 176.08 291.952 184.08C291.648 192.08 296.088 198.136 300.752 195.656C305.416 193.176 303.24 188.216 301.552 188.216" stroke="white" stroke-linecap="round" stroke-linejoin="round"/>
<path d="M276.8 129.208C276.981 130.86 277.446 132.467 278.176 133.96" stroke="white" stroke-linecap="round" stroke-linejoin="round"/>
<path d="M305.52 155.336C307.297 159.254 308.219 163.506 308.224 167.808C307.944 177.456 296.368 181.872 294.984 187.664C293.744 192.872 297.472 197.584 300.776 195.664" stroke="white" stroke-linecap="round" stroke-linejoin="round"/>
<path d="M302.16 149.056C302.938 150.222 303.644 151.435 304.272 152.688" stroke="white" stroke-linecap="round" stroke-linejoin="round"/>
<path d="M289.2 167.808C290.319 164.107 290.221 160.145 288.92 156.504C286.712 150.712 284.232 147.952 284.232 144.92" stroke="white" stroke-linecap="round" stroke-linejoin="round"/>
<path d="M273.144 126.704C272.729 125.983 272.138 125.378 271.426 124.947C270.714 124.516 269.904 124.273 269.072 124.24C266.312 124.24 266.584 127.824 269.616 128.376" stroke="white" stroke-linecap="round" stroke-linejoin="round"/>
<path d="M111.088 161.424C111.088 161.424 107.696 166.272 108.424 171.12C109.152 175.968 120.064 200.208 121.272 201.904C122.48 203.6 130.48 205.304 131.208 198.512C131.936 191.72 122.488 171.848 121.032 167C119.576 162.152 116.424 161.184 116.424 161.184" fill="#1D4ED8"/>
<path d="M111.088 161.424C111.088 161.424 107.696 166.272 108.424 171.12C109.152 175.968 120.064 200.208 121.272 201.904C122.48 203.6 130.48 205.304 131.208 198.512C131.936 191.72 122.488 171.848 121.032 167C119.576 162.152 116.424 161.184 116.424 161.184" stroke="#263238" stroke-miterlimit="10"/>
<path d="M129.408 193.44C129.408 193.44 136.512 194.344 141.488 197.352C146.464 200.36 162.288 205.992 162.288 205.992L161.152 210.688C161.152 210.688 143.736 208.68 136.352 207.32C128.968 205.96 124.176 205.312 121.448 201.392" fill="#1D4ED8"/>
<path d="M129.408 193.44C129.408 193.44 136.512 194.344 141.488 197.352C146.464 200.36 162.288 205.992 162.288 205.992L161.152 210.688C161.152 210.688 143.736 208.68 136.352 207.32C128.968 205.96 124.176 205.312 121.448 201.392" stroke="#263238" stroke-miterlimit="10"/>
<path d="M176.68 211.944L170.216 209.92L170.288 209.24C170.288 209.24 175.8 210.304 176.4 210.376C177 210.448 177.2 210.152 177.2 209.776C177.161 209.491 177.028 209.227 176.824 209.024L167.784 205.776L172.976 204.8C173.728 204.2 172.896 203.6 172.896 203.6L166.8 203.744L162.304 205.992L161.168 210.688C161.168 210.688 169.512 217.888 169.888 218.12C170.264 218.352 170.488 218.72 171.088 218.344C171.688 217.968 171.464 217.544 171.464 217.544L168.8 214.808L173.392 216.16C173.912 216.312 173.992 216.464 174.368 216.312C174.744 216.16 174.816 215.184 174.816 215.184L169.472 212.704L169.704 212.176C169.704 212.176 175.632 213.6 176 213.6C176.368 213.6 176.6 213.6 176.904 212.928C176.999 212.766 177.029 212.575 176.987 212.392C176.946 212.209 176.836 212.049 176.68 211.944Z" fill="white" stroke="#263238" stroke-linecap="round" stroke-linejoin="round"/>
<path d="M286.248 163.52C286.248 163.52 282.968 158.968 278.344 161.92C273.72 164.872 256.952 180.408 256.952 180.408C256.952 180.408 253.56 184.408 258.552 187.336C263.544 190.264 284.024 172.056 286.24 170.536" fill="#1D4ED8"/>
<path d="M286.248 163.52C286.248 163.52 282.968 158.968 278.344 161.92C273.72 164.872 256.952 180.408 256.952 180.408C256.952 180.408 253.56 184.408 258.552 187.336C263.544 190.264 284.024 172.056 286.24 170.536" stroke="#263238" stroke-miterlimit="10"/>
<path d="M260.336 180.48C260.336 180.48 257.848 178.92 252.192 177.928C246.536 176.936 227.104 166.112 227.104 166.112L223.904 170.112C223.904 170.112 237.576 180.168 244.704 184.472C251.832 188.776 255.016 189.912 257.304 189.68C259.592 189.448 264.928 184.448 264.928 184.448" fill="#1D4ED8"/>
<path d="M260.336 180.48C260.336 180.48 257.848 178.92 252.192 177.928C246.536 176.936 227.104 166.112 227.104 166.112L223.904 170.112C223.904 170.112 237.576 180.168 244.704 184.472C251.832 188.776 255.016 189.912 257.304 189.68C259.592 189.448 264.928 184.448 264.928 184.448" stroke="#263238" stroke-miterlimit="10"/>
<path d="M213.688 157.448L218.856 161.568L219.36 161.144C219.36 161.144 215.504 157.272 215.12 156.824C214.736 156.376 214.848 156.024 215.12 155.824C215.369 155.707 215.649 155.67 215.92 155.72L223.456 161.264L221.424 156.536C221.504 155.6 222.44 155.944 222.44 155.944L225.64 160.952L226.632 165.88L224.152 170.336C224.152 170.336 212.736 166.456 212.352 166.28C211.968 166.104 211.552 166.12 211.512 165.424C211.472 164.728 211.976 164.672 211.976 164.672L215.64 165.384L212.088 162.4C211.68 162.056 211.52 162.08 211.432 161.688C211.344 161.296 212.104 160.712 212.104 160.712L217.016 163.68L217.32 163.208C217.32 163.208 212.928 159.208 212.72 158.88C212.512 158.552 212.392 158.392 212.776 157.784C212.856 157.621 212.995 157.496 213.165 157.433C213.334 157.371 213.522 157.376 213.688 157.448Z" fill="white" stroke="#263238" stroke-linecap="round" stroke-linejoin="round"/>
</svg>
