<svg width="16" height="16" viewBox="0 0 16 16" fill="none" xmlns="http://www.w3.org/2000/svg">
<path d="M10.8571 1.71436H12.5714C12.8745 1.71436 13.1652 1.83476 13.3795 2.04909C13.5939 2.26342 13.7143 2.55411 13.7143 2.85721V14.2858C13.7143 14.5889 13.5939 14.8796 13.3795 15.0939C13.1652 15.3082 12.8745 15.4286 12.5714 15.4286H3.42856C3.12546 15.4286 2.83477 15.3082 2.62044 15.0939C2.40611 14.8796 2.28571 14.5889 2.28571 14.2858V2.85721C2.28571 2.55411 2.40611 2.26342 2.62044 2.04909C2.83477 1.83476 3.12546 1.71436 3.42856 1.71436H5.14285" stroke="#32373D" stroke-linecap="round" stroke-linejoin="round"/>
<path d="M9.71425 0.571289H6.28568C5.6545 0.571289 5.14282 1.08296 5.14282 1.71415V2.28557C5.14282 2.91676 5.6545 3.42843 6.28568 3.42843H9.71425C10.3454 3.42843 10.8571 2.91676 10.8571 2.28557V1.71415C10.8571 1.08296 10.3454 0.571289 9.71425 0.571289Z" stroke="#32373D" stroke-linecap="round" stroke-linejoin="round"/>
<path d="M5.14282 6.28564H10.8571" stroke="#32373D" stroke-linecap="round" stroke-linejoin="round"/>
<path d="M5.14282 9.14258H10.8571" stroke="#32373D" stroke-linecap="round" stroke-linejoin="round"/>
<path d="M5.14282 12H10.8571" stroke="#32373D" stroke-linecap="round" stroke-linejoin="round"/>
</svg>
