<svg width="16" height="16" viewBox="0 0 16 16" fill="none" xmlns="http://www.w3.org/2000/svg">
<g clip-path="url(#clip0_57_289)">
<path d="M7.42847 8H15.4285" stroke="#EF4444" stroke-linecap="round" stroke-linejoin="round"/>
<path d="M13.1428 5.71436L15.4285 8.00007L13.1428 10.2858" stroke="#EF4444" stroke-linecap="round" stroke-linejoin="round"/>
<path d="M13.3713 13.1315C12.3451 14.2011 11.0223 14.9393 9.57311 15.2511C8.12392 15.5628 6.6146 15.4339 5.2393 14.8808C3.86399 14.3278 2.68559 13.3759 1.85567 12.1477C1.02576 10.9194 0.582275 9.47097 0.582275 7.98863C0.582275 6.50629 1.02576 5.05785 1.85567 3.82961C2.68559 2.60137 3.86399 1.6495 5.2393 1.09645C6.6146 0.543399 8.12392 0.414451 9.57311 0.726195C11.0223 1.03794 12.3451 1.77611 13.3713 2.84578" stroke="#EF4444" stroke-linecap="round" stroke-linejoin="round"/>
</g>
<defs>
<clipPath id="clip0_57_289">
<rect width="16" height="16" fill="white"/>
</clipPath>
</defs>
</svg>
