<svg width="400" height="400" viewBox="0 0 400 400" fill="none" xmlns="http://www.w3.org/2000/svg">
<path d="M78.5356 250.904C115.528 293.304 152.88 298.672 205.384 308.72C257.888 318.768 296.44 311.824 324.848 286.216C357.648 256.616 356.352 188.808 306.16 164.664C290.48 157.104 271.808 154.816 258.072 144.184C231.84 123.896 210.624 92.3282 168.512 86.4002C126.4 80.4722 98.0076 108.72 98.0076 108.72C63.4236 146.592 41.5436 208.472 78.5356 250.904Z" fill="#1D4ED8"/>
<path opacity="0.7" d="M78.5356 250.904C115.528 293.304 152.88 298.672 205.384 308.72C257.888 318.768 296.44 311.824 324.848 286.216C357.648 256.616 356.352 188.808 306.16 164.664C290.48 157.104 271.808 154.816 258.072 144.184C231.84 123.896 210.624 92.3282 168.512 86.4002C126.4 80.4722 98.0076 108.72 98.0076 108.72C63.4236 146.592 41.5436 208.472 78.5356 250.904Z" fill="white"/>
<path d="M360.76 318.704H48.7598V331.504H360.76V318.704Z" fill="#1D4ED8"/>
<path opacity="0.5" d="M360.76 318.704H48.7598V331.504H360.76V318.704Z" fill="white"/>
<path d="M122.336 181.032C120.81 181.53 119.312 182.109 117.848 182.768C118.648 182.184 119.448 181.576 120.248 180.96C123.81 178.095 127.2 175.023 130.4 171.76C126.645 175.408 122.635 178.785 118.4 181.864C118.984 180.85 119.497 179.797 119.936 178.712C120.736 176.72 120.88 174.712 118.984 173.648C116.64 172.336 113.808 174.296 114.552 177.648C115.006 179.519 115.891 181.259 117.136 182.728C114.373 184.641 111.487 186.37 108.496 187.904L108.216 188.048C108.848 186.953 109.407 185.817 109.888 184.648C110.64 182.664 110.832 180.648 108.928 179.592C106.584 178.272 103.752 180.24 104.504 183.592C104.951 185.438 105.816 187.157 107.032 188.616C103.44 190.384 99.7281 191.888 96.0321 193.52L95.4961 193.76C96.2175 192.985 96.8882 192.165 97.5041 191.304C98.7041 189.544 99.3521 187.64 97.7521 186.16C95.7841 184.336 92.5601 185.584 92.5121 189.04C92.5143 190.947 92.9578 192.828 93.8081 194.536C90.3495 196.152 87.0634 198.114 84.0001 200.392L83.9041 200.472C84.3185 199.815 84.6977 199.137 85.0401 198.44C85.9441 196.512 86.2801 194.528 84.4561 193.32C84.0855 193.065 83.6619 192.897 83.2172 192.83C82.7725 192.762 82.3182 192.796 81.8886 192.93C81.4589 193.063 81.065 193.292 80.7366 193.599C80.4081 193.906 80.1536 194.284 79.9921 194.704C79.7517 194.329 79.4253 194.016 79.0401 193.792C77.2081 192.736 75.4081 193.88 73.8641 195.496C73.4641 195.92 73.0641 196.376 72.7201 196.824C73.9112 193.518 75.4083 190.331 77.1921 187.304C78.8908 188.046 80.7225 188.435 82.5761 188.448C86.2241 188.448 87.7601 185.408 85.9681 183.52C84.5121 181.992 82.4641 182.576 80.5281 183.696C79.8906 184.068 79.2737 184.474 78.6801 184.912C80.5347 182.119 82.6393 179.5 84.9681 177.088C86.4941 178.322 88.2675 179.214 90.1681 179.704C93.7121 180.576 95.9361 178.008 94.6561 175.744C93.6161 173.904 91.4561 173.976 89.3361 174.592C88.3214 174.895 87.3273 175.264 86.3601 175.696C87.3281 174.752 88.3281 173.848 89.3441 172.952C90.6721 171.816 92.0481 170.72 93.4481 169.648C94.9534 170.849 96.6954 171.719 98.5601 172.2C102.104 173.072 104.328 170.504 103.048 168.24C102.008 166.4 99.8481 166.472 97.7201 167.088C97.2241 167.232 96.7201 167.408 96.2321 167.592C98.0801 166.272 99.9521 164.984 101.832 163.704L103.568 162.512C105.132 163.822 106.969 164.768 108.944 165.28C112.488 166.152 114.72 163.584 113.44 161.32C112.392 159.48 110.24 159.552 108.112 160.168C107.275 160.424 106.451 160.72 105.64 161.056L106.712 160.256C107.368 159.784 108.024 159.304 108.664 158.8C109.464 158.2 110.224 157.536 111 156.896C111.448 156.544 111.872 156.168 112.296 155.784C113.867 157.108 115.715 158.062 117.704 158.576C121.248 159.448 123.472 156.88 122.192 154.616C121.152 152.776 118.992 152.848 116.872 153.464C115.683 153.831 114.518 154.272 113.384 154.784C114.832 153.44 116.232 152.04 117.56 150.584C117.648 150.48 117.728 150.376 117.824 150.28C118.392 149.648 118.952 149.008 119.496 148.344C120.04 147.68 120.744 146.808 121.336 146.008C123.767 142.817 125.768 139.32 127.288 135.608C125.695 139.276 123.627 142.719 121.136 145.848C118.673 148.99 115.922 151.896 112.92 154.528L112.592 154.808C113.274 153.647 113.878 152.441 114.4 151.2C115.16 149.216 115.344 147.2 113.44 146.144C111.104 144.824 108.264 146.792 109.016 150.144C109.499 152.129 110.464 153.964 111.824 155.488L111.12 156.096L110.32 156.784C109.856 157.16 109.376 157.52 108.896 157.88C108.64 158.072 108.392 158.272 108.096 158.464C107.416 158.968 106.728 159.456 106.032 159.936L105.032 160.616L103.896 161.416C104.56 160.283 105.143 159.104 105.64 157.888C106.4 155.896 106.584 153.888 104.688 152.832C102.344 151.512 99.5041 153.48 100.256 156.832C100.72 158.757 101.639 160.543 102.936 162.04L102.136 162.584L99.0241 164.624L98.4081 165.024L96.6721 166.184L95.9201 166.688C95.1201 167.24 94.3201 167.8 93.5201 168.376C94.1629 167.225 94.7243 166.03 95.2001 164.8C96.0001 162.816 96.1441 160.8 94.2481 159.744C91.9041 158.424 89.0721 160.392 89.8241 163.744C90.294 165.695 91.2332 167.502 92.5601 169.008C91.2001 170.008 89.8561 171.032 88.5601 172.104C87.6081 172.904 86.6721 173.704 85.7521 174.568C86.1529 173.826 86.5109 173.062 86.8241 172.28C87.5761 170.288 87.7681 168.28 85.8641 167.224C83.5201 165.904 80.6881 167.872 81.4401 171.224C81.8866 173.07 82.7516 174.789 83.9681 176.248C81.3771 178.823 79.0434 181.644 77.0001 184.672C77.2321 183.799 77.4085 182.912 77.5281 182.016C77.7841 179.904 77.4801 177.92 75.3761 177.344C72.7841 176.632 70.5121 179.224 72.0561 182.312C72.9443 184.012 74.215 185.482 75.7681 186.608C73.7529 189.899 72.07 193.383 70.7441 197.008C70.7095 196.25 70.6348 195.494 70.5201 194.744C70.1601 192.64 69.3121 190.824 67.1281 190.864C64.4401 190.92 62.9921 194.064 65.3521 196.576C66.6107 197.888 68.1469 198.902 69.8481 199.544C68.9383 202.342 68.1983 205.193 67.6321 208.08C67.5361 208.536 67.4641 208.992 67.3761 209.448C67.2801 209.536 67.1841 209.624 67.0961 209.72C67.0001 209.328 66.8881 208.92 66.7601 208.544C66.0881 206.528 64.9681 204.856 62.8161 205.24C60.1761 205.704 59.2241 209.016 61.9441 211.152C63.3265 212.207 64.92 212.952 66.6161 213.336C66.6161 213.416 66.6801 213.488 66.7201 213.568C66.4241 215.736 66.2001 217.92 66.0641 220.112C65.9601 221.712 65.9041 223.384 65.8721 225.024C63.5841 225.024 61.9681 227.536 63.5441 230.256C64.2092 231.384 65.0613 232.39 66.0641 233.232C66.2561 236.312 66.5601 239.392 66.9681 242.448C66.6446 242.149 66.2487 241.939 65.8194 241.839C65.3902 241.74 64.9424 241.754 64.5201 241.88C63.0801 242.272 62.4321 243.432 62.2001 244.856C61.6877 245.386 61.4009 246.095 61.4001 246.832C60.3281 245.232 59.3121 243.632 58.3281 241.944C59.8302 240.792 61.0754 239.34 61.9841 237.68C63.7041 234.48 61.7601 231.672 59.2561 232.352C57.2081 232.912 56.7601 234.992 56.8561 237.224C56.8881 238.07 56.9683 238.914 57.0961 239.752L56.0401 237.896C55.1601 236.296 54.4401 234.696 53.5761 233.096C53.3681 232.704 53.1841 232.296 53.0161 231.896C54.7016 231.047 56.1918 229.856 57.3921 228.4C59.6881 225.568 58.3041 222.456 55.7121 222.656C53.6001 222.824 52.7601 224.784 52.4081 226.992C52.2709 227.955 52.1855 228.924 52.1521 229.896L51.4001 228.16C49.7985 224.222 48.4805 220.174 47.4561 216.048C49.3638 215.372 51.0966 214.279 52.5281 212.848C55.0961 210.248 54.0321 207.024 51.4321 206.96C49.3201 206.912 48.2881 208.776 47.7121 210.96C47.4298 212.119 47.2188 213.295 47.0801 214.48C46.5201 212.112 46.0401 209.712 45.6401 207.28C45.3681 205.792 45.1921 204.28 45.0081 202.776C47.0587 202.37 48.99 201.502 50.6561 200.24C53.5361 198 52.9041 194.64 50.3281 194.264C48.2401 193.936 46.9761 195.656 46.1281 197.728C45.6316 199.035 45.2149 200.371 44.8801 201.728C44.7201 199.984 44.5361 198.232 44.4561 196.48C44.2161 192.863 44.2161 189.233 44.4561 185.616C44.0909 189.23 43.9653 192.865 44.0801 196.496C44.0801 198.168 44.2241 199.832 44.3281 201.504C43.8711 200.367 43.3365 199.263 42.7281 198.2C41.6401 196.368 40.1841 195 38.1681 195.8C35.6801 196.824 35.4641 200.264 38.5841 201.768C40.4141 202.609 42.4214 202.99 44.4321 202.88C44.5761 204.376 44.7041 205.864 44.9281 207.344C45.2401 209.744 45.6401 212.048 46.1121 214.376C45.6002 213.484 45.031 212.626 44.4081 211.808C43.0881 210.136 41.4721 208.952 39.6081 210.032C37.2801 211.368 37.5041 214.832 40.7921 215.896C42.6527 216.474 44.6233 216.606 46.5441 216.28C47.4569 220.451 48.6571 224.554 50.1361 228.56L50.6081 229.76C50.1849 229.199 49.728 228.665 49.2401 228.16C47.7601 226.624 46.0401 225.608 44.2561 226.88C42.0721 228.48 42.6561 231.84 46.0161 232.592C47.8705 232.967 49.7862 232.913 51.6161 232.432C51.7841 232.84 51.9521 233.232 52.1521 233.648C52.9521 235.296 53.6641 236.984 54.5041 238.6L55.2001 240C54.7841 239.64 54.3521 239.296 53.9041 238.976C52.1601 237.752 50.2721 237.08 48.7681 238.656C46.9121 240.6 48.1121 243.832 51.5681 243.936C53.3674 243.978 55.1537 243.623 56.8001 242.896C57.7921 244.688 58.8081 246.456 59.9121 248.192C60.3201 248.856 60.7121 249.512 61.1761 250.168C60.5485 249.594 59.8859 249.06 59.1921 248.568C57.4481 247.344 55.5601 246.672 54.0481 248.248C52.2001 250.192 53.4001 253.424 56.8561 253.528C58.8314 253.552 60.7839 253.105 62.5521 252.224C63.1281 253.024 63.7201 253.824 64.3281 254.624C63.0401 256.12 63.4641 258.624 66.0801 259.768C67.3507 260.297 68.7049 260.598 70.0801 260.656C70.2401 260.784 70.4001 260.912 70.5761 261.032L70.6561 261.096C72.3095 267.272 74.2695 273.357 76.5361 279.352C77.4961 281.904 78.5281 284.432 79.5921 286.944H69.9921V324.8H99.3281V286.912H83.7121C82.3761 283.992 81.0881 281.04 79.8881 278.056C77.9281 273.16 76.1521 268.184 74.6081 263.136C74.8709 263.213 75.138 263.275 75.4081 263.32C75.7635 263.392 76.1278 263.408 76.4881 263.368L76.0721 260.736H75.7921C75.6253 260.712 75.4597 260.68 75.2961 260.64C74.9266 260.534 74.5655 260.4 74.2161 260.24L73.8001 260.048C75.3441 259.51 76.7779 258.697 78.0321 257.648C80.8081 255.248 80.0241 251.968 77.4321 251.688C75.3361 251.456 74.1521 253.232 73.4321 255.336C73.2161 255.936 73.0401 256.56 72.8881 257.168C72.7361 256.608 72.5841 256.048 72.4401 255.488C72.0161 253.832 71.6401 252.16 71.2561 250.488C72.9317 249.965 74.4889 249.12 75.8401 248C78.6161 245.6 77.8241 242.328 75.2401 242.048C73.1361 241.816 71.9601 243.592 71.2401 245.696C71.0241 246.304 70.8401 246.936 70.6801 247.56C70.4401 246.344 70.2081 245.12 69.9921 243.896C69.8401 242.992 69.6961 242.08 69.5601 241.168C69.5121 239.872 69.4881 238.576 69.5041 237.272C69.5041 236.56 69.5041 235.848 69.5681 235.136C71.1366 235.632 72.7816 235.84 74.4241 235.752C78.0721 235.512 79.4161 232.392 77.5121 230.624C75.9601 229.176 73.9521 229.896 72.0881 231.128C71.2522 231.696 70.4508 232.313 69.6881 232.976C69.9128 229.931 70.3755 226.909 71.0721 223.936C71.4804 222.185 71.9906 220.459 72.6001 218.768C74.2729 219.344 76.0414 219.592 77.8081 219.496C81.4561 219.264 82.8001 216.144 80.8961 214.368C79.3521 212.928 77.3361 213.64 75.4721 214.88C74.8215 215.327 74.1965 215.811 73.6001 216.328C74.3036 214.673 75.1216 213.069 76.0481 211.528C77.8856 208.419 80.1898 205.61 82.8801 203.2C84.2743 204.486 85.9233 205.464 87.7201 206.072C91.1921 207.208 93.6001 204.808 92.5201 202.456C91.6161 200.544 89.4881 200.456 87.2961 200.912C86.4514 201.092 85.618 201.322 84.8001 201.6L84.8561 201.552C87.8413 199.223 91.0583 197.207 94.4561 195.536C95.6549 197.105 97.1774 198.399 98.9201 199.328C102.168 201 104.928 199.016 104.208 196.52C103.624 194.488 101.536 194.064 99.3041 194.12C98.4275 194.168 97.5541 194.264 96.6881 194.408C100.296 192.704 103.976 191.096 107.528 189.216H107.608C109.198 190.589 111.085 191.575 113.12 192.096C116.664 192.976 118.888 190.4 117.608 188.096C116.568 186.256 114.408 186.336 112.288 186.944C111.688 187.12 111.088 187.336 110.504 187.56C112.876 186.181 115.175 184.681 117.392 183.064L117.576 183.264V183.16C119.182 184.545 121.084 185.544 123.136 186.08C126.672 186.952 128.904 184.384 127.624 182.08C126.616 180.344 124.488 180.416 122.336 181.032ZM66.4001 253.52C65.6721 252.672 64.9841 251.784 64.3121 250.888C64.4721 250.744 64.6481 250.584 64.8241 250.408C65.8238 250.719 66.8585 250.905 67.9041 250.96V251.128L68.3921 251.024C68.6481 252.288 68.9121 253.544 69.1921 254.8C68.867 254.374 68.4425 254.035 67.9557 253.812C67.4689 253.589 66.9347 253.488 66.4001 253.52ZM69.0081 223.4C68.7601 224.344 68.5521 225.288 68.3521 226.24L68.2321 226.072C68.2321 224.12 68.2615 222.173 68.3201 220.232C68.3761 218.872 68.4721 217.52 68.5921 216.16C69.2503 216.83 69.9739 217.433 70.7521 217.96C70.075 219.74 69.4955 221.556 69.0161 223.4H69.0081ZM72.2881 214.44C72.3361 214.088 72.3761 213.728 72.3921 213.376V212.84C72.6801 212.752 72.9761 212.648 73.2641 212.528C72.9441 213.16 72.6081 213.8 72.2961 214.44H72.2881ZM76.4561 207.68C76.3179 207.363 76.1169 207.078 75.8652 206.842C75.6136 206.605 75.3166 206.422 74.9921 206.304C73.0161 205.504 71.4161 206.944 70.1441 208.784L70.0801 208.872H69.9521C69.818 208.842 69.6815 208.823 69.5441 208.816C69.5347 208.704 69.5539 208.591 69.6001 208.488C70.1066 205.598 70.7906 202.742 71.6481 199.936C73.4846 200.169 75.3494 200.025 77.1281 199.512C78.2271 199.223 79.1829 198.543 79.8161 197.6C80.1682 199.213 80.8401 200.739 81.7921 202.088C79.824 203.762 78.0381 205.639 76.4641 207.688L76.4561 207.68Z" fill="#1D4ED8"/>
<path opacity="0.3" d="M122.336 181.032C120.81 181.53 119.312 182.109 117.848 182.768C118.648 182.184 119.448 181.576 120.248 180.96C123.81 178.095 127.2 175.023 130.4 171.76C126.645 175.408 122.635 178.785 118.4 181.864C118.984 180.85 119.497 179.797 119.936 178.712C120.736 176.72 120.88 174.712 118.984 173.648C116.64 172.336 113.808 174.296 114.552 177.648C115.006 179.519 115.891 181.259 117.136 182.728C114.373 184.641 111.487 186.37 108.496 187.904L108.216 188.048C108.848 186.953 109.407 185.817 109.888 184.648C110.64 182.664 110.832 180.648 108.928 179.592C106.584 178.272 103.752 180.24 104.504 183.592C104.951 185.438 105.816 187.157 107.032 188.616C103.44 190.384 99.7281 191.888 96.0321 193.52L95.4961 193.76C96.2175 192.985 96.8882 192.165 97.5041 191.304C98.7041 189.544 99.3521 187.64 97.7521 186.16C95.7841 184.336 92.5601 185.584 92.5121 189.04C92.5143 190.947 92.9578 192.828 93.8081 194.536C90.3495 196.152 87.0634 198.114 84.0001 200.392L83.9041 200.472C84.3185 199.815 84.6977 199.137 85.0401 198.44C85.9441 196.512 86.2801 194.528 84.4561 193.32C84.0855 193.065 83.6619 192.897 83.2172 192.83C82.7725 192.762 82.3182 192.796 81.8886 192.93C81.4589 193.063 81.065 193.292 80.7366 193.599C80.4081 193.906 80.1536 194.284 79.9921 194.704C79.7517 194.329 79.4253 194.016 79.0401 193.792C77.2081 192.736 75.4081 193.88 73.8641 195.496C73.4641 195.92 73.0641 196.376 72.7201 196.824C73.9112 193.518 75.4083 190.331 77.1921 187.304C78.8908 188.046 80.7225 188.435 82.5761 188.448C86.2241 188.448 87.7601 185.408 85.9681 183.52C84.5121 181.992 82.4641 182.576 80.5281 183.696C79.8906 184.068 79.2737 184.474 78.6801 184.912C80.5347 182.119 82.6393 179.5 84.9681 177.088C86.4941 178.322 88.2675 179.214 90.1681 179.704C93.7121 180.576 95.9361 178.008 94.6561 175.744C93.6161 173.904 91.4561 173.976 89.3361 174.592C88.3214 174.895 87.3273 175.264 86.3601 175.696C87.3281 174.752 88.3281 173.848 89.3441 172.952C90.6721 171.816 92.0481 170.72 93.4481 169.648C94.9534 170.849 96.6954 171.719 98.5601 172.2C102.104 173.072 104.328 170.504 103.048 168.24C102.008 166.4 99.8481 166.472 97.7201 167.088C97.2241 167.232 96.7201 167.408 96.2321 167.592C98.0801 166.272 99.9521 164.984 101.832 163.704L103.568 162.512C105.132 163.822 106.969 164.768 108.944 165.28C112.488 166.152 114.72 163.584 113.44 161.32C112.392 159.48 110.24 159.552 108.112 160.168C107.275 160.424 106.451 160.72 105.64 161.056L106.712 160.256C107.368 159.784 108.024 159.304 108.664 158.8C109.464 158.2 110.224 157.536 111 156.896C111.448 156.544 111.872 156.168 112.296 155.784C113.867 157.108 115.715 158.062 117.704 158.576C121.248 159.448 123.472 156.88 122.192 154.616C121.152 152.776 118.992 152.848 116.872 153.464C115.683 153.831 114.518 154.272 113.384 154.784C114.832 153.44 116.232 152.04 117.56 150.584C117.648 150.48 117.728 150.376 117.824 150.28C118.392 149.648 118.952 149.008 119.496 148.344C120.04 147.68 120.744 146.808 121.336 146.008C123.767 142.817 125.768 139.32 127.288 135.608C125.695 139.276 123.627 142.719 121.136 145.848C118.673 148.99 115.922 151.896 112.92 154.528L112.592 154.808C113.274 153.647 113.878 152.441 114.4 151.2C115.16 149.216 115.344 147.2 113.44 146.144C111.104 144.824 108.264 146.792 109.016 150.144C109.499 152.129 110.464 153.964 111.824 155.488L111.12 156.096L110.32 156.784C109.856 157.16 109.376 157.52 108.896 157.88C108.64 158.072 108.392 158.272 108.096 158.464C107.416 158.968 106.728 159.456 106.032 159.936L105.032 160.616L103.896 161.416C104.56 160.283 105.143 159.104 105.64 157.888C106.4 155.896 106.584 153.888 104.688 152.832C102.344 151.512 99.5041 153.48 100.256 156.832C100.72 158.757 101.639 160.543 102.936 162.04L102.136 162.584L99.0241 164.624L98.4081 165.024L96.6721 166.184L95.9201 166.688C95.1201 167.24 94.3201 167.8 93.5201 168.376C94.1629 167.225 94.7243 166.03 95.2001 164.8C96.0001 162.816 96.1441 160.8 94.2481 159.744C91.9041 158.424 89.0721 160.392 89.8241 163.744C90.294 165.695 91.2332 167.502 92.5601 169.008C91.2001 170.008 89.8561 171.032 88.5601 172.104C87.6081 172.904 86.6721 173.704 85.7521 174.568C86.1529 173.826 86.5109 173.062 86.8241 172.28C87.5761 170.288 87.7681 168.28 85.8641 167.224C83.5201 165.904 80.6881 167.872 81.4401 171.224C81.8866 173.07 82.7516 174.789 83.9681 176.248C81.3771 178.823 79.0434 181.644 77.0001 184.672C77.2321 183.799 77.4085 182.912 77.5281 182.016C77.7841 179.904 77.4801 177.92 75.3761 177.344C72.7841 176.632 70.5121 179.224 72.0561 182.312C72.9443 184.012 74.215 185.482 75.7681 186.608C73.7529 189.899 72.07 193.383 70.7441 197.008C70.7095 196.25 70.6348 195.494 70.5201 194.744C70.1601 192.64 69.3121 190.824 67.1281 190.864C64.4401 190.92 62.9921 194.064 65.3521 196.576C66.6107 197.888 68.1469 198.902 69.8481 199.544C68.9383 202.342 68.1983 205.193 67.6321 208.08C67.5361 208.536 67.4641 208.992 67.3761 209.448C67.2801 209.536 67.1841 209.624 67.0961 209.72C67.0001 209.328 66.8881 208.92 66.7601 208.544C66.0881 206.528 64.9681 204.856 62.8161 205.24C60.1761 205.704 59.2241 209.016 61.9441 211.152C63.3265 212.207 64.92 212.952 66.6161 213.336C66.6161 213.416 66.6801 213.488 66.7201 213.568C66.4241 215.736 66.2001 217.92 66.0641 220.112C65.9601 221.712 65.9041 223.384 65.8721 225.024C63.5841 225.024 61.9681 227.536 63.5441 230.256C64.2092 231.384 65.0613 232.39 66.0641 233.232C66.2561 236.312 66.5601 239.392 66.9681 242.448C66.6446 242.149 66.2487 241.939 65.8194 241.839C65.3902 241.74 64.9424 241.754 64.5201 241.88C63.0801 242.272 62.4321 243.432 62.2001 244.856C61.6877 245.386 61.4009 246.095 61.4001 246.832C60.3281 245.232 59.3121 243.632 58.3281 241.944C59.8302 240.792 61.0754 239.34 61.9841 237.68C63.7041 234.48 61.7601 231.672 59.2561 232.352C57.2081 232.912 56.7601 234.992 56.8561 237.224C56.8881 238.07 56.9683 238.914 57.0961 239.752L56.0401 237.896C55.1601 236.296 54.4401 234.696 53.5761 233.096C53.3681 232.704 53.1841 232.296 53.0161 231.896C54.7016 231.047 56.1918 229.856 57.3921 228.4C59.6881 225.568 58.3041 222.456 55.7121 222.656C53.6001 222.824 52.7601 224.784 52.4081 226.992C52.2709 227.955 52.1855 228.924 52.1521 229.896L51.4001 228.16C49.7985 224.222 48.4805 220.174 47.4561 216.048C49.3638 215.372 51.0966 214.279 52.5281 212.848C55.0961 210.248 54.0321 207.024 51.4321 206.96C49.3201 206.912 48.2881 208.776 47.7121 210.96C47.4298 212.119 47.2188 213.295 47.0801 214.48C46.5201 212.112 46.0401 209.712 45.6401 207.28C45.3681 205.792 45.1921 204.28 45.0081 202.776C47.0587 202.37 48.99 201.502 50.6561 200.24C53.5361 198 52.9041 194.64 50.3281 194.264C48.2401 193.936 46.9761 195.656 46.1281 197.728C45.6316 199.035 45.2149 200.371 44.8801 201.728C44.7201 199.984 44.5361 198.232 44.4561 196.48C44.2161 192.863 44.2161 189.233 44.4561 185.616C44.0909 189.23 43.9653 192.865 44.0801 196.496C44.0801 198.168 44.2241 199.832 44.3281 201.504C43.8711 200.367 43.3365 199.263 42.7281 198.2C41.6401 196.368 40.1841 195 38.1681 195.8C35.6801 196.824 35.4641 200.264 38.5841 201.768C40.4141 202.609 42.4214 202.99 44.4321 202.88C44.5761 204.376 44.7041 205.864 44.9281 207.344C45.2401 209.744 45.6401 212.048 46.1121 214.376C45.6002 213.484 45.031 212.626 44.4081 211.808C43.0881 210.136 41.4721 208.952 39.6081 210.032C37.2801 211.368 37.5041 214.832 40.7921 215.896C42.6527 216.474 44.6233 216.606 46.5441 216.28C47.4569 220.451 48.6571 224.554 50.1361 228.56L50.6081 229.76C50.1849 229.199 49.728 228.665 49.2401 228.16C47.7601 226.624 46.0401 225.608 44.2561 226.88C42.0721 228.48 42.6561 231.84 46.0161 232.592C47.8705 232.967 49.7862 232.913 51.6161 232.432C51.7841 232.84 51.9521 233.232 52.1521 233.648C52.9521 235.296 53.6641 236.984 54.5041 238.6L55.2001 240C54.7841 239.64 54.3521 239.296 53.9041 238.976C52.1601 237.752 50.2721 237.08 48.7681 238.656C46.9121 240.6 48.1121 243.832 51.5681 243.936C53.3674 243.978 55.1537 243.623 56.8001 242.896C57.7921 244.688 58.8081 246.456 59.9121 248.192C60.3201 248.856 60.7121 249.512 61.1761 250.168C60.5485 249.594 59.8859 249.06 59.1921 248.568C57.4481 247.344 55.5601 246.672 54.0481 248.248C52.2001 250.192 53.4001 253.424 56.8561 253.528C58.8314 253.552 60.7839 253.105 62.5521 252.224C63.1281 253.024 63.7201 253.824 64.3281 254.624C63.0401 256.12 63.4641 258.624 66.0801 259.768C67.3507 260.297 68.7049 260.598 70.0801 260.656C70.2401 260.784 70.4001 260.912 70.5761 261.032L70.6561 261.096C72.3095 267.272 74.2695 273.357 76.5361 279.352C77.4961 281.904 78.5281 284.432 79.5921 286.944H69.9921V324.8H99.3281V286.912H83.7121C82.3761 283.992 81.0881 281.04 79.8881 278.056C77.9281 273.16 76.1521 268.184 74.6081 263.136C74.8709 263.213 75.138 263.275 75.4081 263.32C75.7635 263.392 76.1278 263.408 76.4881 263.368L76.0721 260.736H75.7921C75.6253 260.712 75.4597 260.68 75.2961 260.64C74.9266 260.534 74.5655 260.4 74.2161 260.24L73.8001 260.048C75.3441 259.51 76.7779 258.697 78.0321 257.648C80.8081 255.248 80.0241 251.968 77.4321 251.688C75.3361 251.456 74.1521 253.232 73.4321 255.336C73.2161 255.936 73.0401 256.56 72.8881 257.168C72.7361 256.608 72.5841 256.048 72.4401 255.488C72.0161 253.832 71.6401 252.16 71.2561 250.488C72.9317 249.965 74.4889 249.12 75.8401 248C78.6161 245.6 77.8241 242.328 75.2401 242.048C73.1361 241.816 71.9601 243.592 71.2401 245.696C71.0241 246.304 70.8401 246.936 70.6801 247.56C70.4401 246.344 70.2081 245.12 69.9921 243.896C69.8401 242.992 69.6961 242.08 69.5601 241.168C69.5121 239.872 69.4881 238.576 69.5041 237.272C69.5041 236.56 69.5041 235.848 69.5681 235.136C71.1366 235.632 72.7816 235.84 74.4241 235.752C78.0721 235.512 79.4161 232.392 77.5121 230.624C75.9601 229.176 73.9521 229.896 72.0881 231.128C71.2522 231.696 70.4508 232.313 69.6881 232.976C69.9128 229.931 70.3755 226.909 71.0721 223.936C71.4804 222.185 71.9906 220.459 72.6001 218.768C74.2729 219.344 76.0414 219.592 77.8081 219.496C81.4561 219.264 82.8001 216.144 80.8961 214.368C79.3521 212.928 77.3361 213.64 75.4721 214.88C74.8215 215.327 74.1965 215.811 73.6001 216.328C74.3036 214.673 75.1216 213.069 76.0481 211.528C77.8856 208.419 80.1898 205.61 82.8801 203.2C84.2743 204.486 85.9233 205.464 87.7201 206.072C91.1921 207.208 93.6001 204.808 92.5201 202.456C91.6161 200.544 89.4881 200.456 87.2961 200.912C86.4514 201.092 85.618 201.322 84.8001 201.6L84.8561 201.552C87.8413 199.223 91.0583 197.207 94.4561 195.536C95.6549 197.105 97.1774 198.399 98.9201 199.328C102.168 201 104.928 199.016 104.208 196.52C103.624 194.488 101.536 194.064 99.3041 194.12C98.4275 194.168 97.5541 194.264 96.6881 194.408C100.296 192.704 103.976 191.096 107.528 189.216H107.608C109.198 190.589 111.085 191.575 113.12 192.096C116.664 192.976 118.888 190.4 117.608 188.096C116.568 186.256 114.408 186.336 112.288 186.944C111.688 187.12 111.088 187.336 110.504 187.56C112.876 186.181 115.175 184.681 117.392 183.064L117.576 183.264V183.16C119.182 184.545 121.084 185.544 123.136 186.08C126.672 186.952 128.904 184.384 127.624 182.08C126.616 180.344 124.488 180.416 122.336 181.032ZM66.4001 253.52C65.6721 252.672 64.9841 251.784 64.3121 250.888C64.4721 250.744 64.6481 250.584 64.8241 250.408C65.8238 250.719 66.8585 250.905 67.9041 250.96V251.128L68.3921 251.024C68.6481 252.288 68.9121 253.544 69.1921 254.8C68.867 254.374 68.4425 254.035 67.9557 253.812C67.4689 253.589 66.9347 253.488 66.4001 253.52ZM69.0081 223.4C68.7601 224.344 68.5521 225.288 68.3521 226.24L68.2321 226.072C68.2321 224.12 68.2615 222.173 68.3201 220.232C68.3761 218.872 68.4721 217.52 68.5921 216.16C69.2503 216.83 69.9739 217.433 70.7521 217.96C70.075 219.74 69.4955 221.556 69.0161 223.4H69.0081ZM72.2881 214.44C72.3361 214.088 72.3761 213.728 72.3921 213.376V212.84C72.6801 212.752 72.9761 212.648 73.2641 212.528C72.9441 213.16 72.6081 213.8 72.2961 214.44H72.2881ZM76.4561 207.68C76.3179 207.363 76.1169 207.078 75.8652 206.842C75.6136 206.605 75.3166 206.422 74.9921 206.304C73.0161 205.504 71.4161 206.944 70.1441 208.784L70.0801 208.872H69.9521C69.818 208.842 69.6815 208.823 69.5441 208.816C69.5347 208.704 69.5539 208.591 69.6001 208.488C70.1066 205.598 70.7906 202.742 71.6481 199.936C73.4846 200.169 75.3494 200.025 77.1281 199.512C78.2271 199.223 79.1829 198.543 79.8161 197.6C80.1682 199.213 80.8401 200.739 81.7921 202.088C79.824 203.762 78.0381 205.639 76.4641 207.688L76.4561 207.68Z" fill="white"/>
<path d="M319.592 289.896C319.592 289.896 315.72 281.248 314.792 280.36C313.864 279.472 306.448 276.784 304.392 269.96C302.336 263.136 298.432 244.92 308.272 246.112C318.112 247.304 315.72 266.384 319.296 265.784C322.872 265.184 316.32 234.792 322.576 230.584C328.832 226.376 338.968 230.288 337.776 246.384C336.584 262.48 334.2 271.712 336.288 270.824C338.376 269.936 344.336 266.648 344.336 273.504C344.336 280.36 338.672 285.128 335.392 285.424C332.112 285.72 330.592 286.024 330.592 286.024V290.488L319.592 289.896Z" fill="#2E353A" stroke="#2E353A" stroke-linecap="round" stroke-linejoin="round"/>
<path d="M316.44 273.136C314.192 271.008 312.128 268.944 311.176 267.048C309.288 263.264 307.864 252.648 307.864 252.648" stroke="white" stroke-width="0.5" stroke-linecap="round" stroke-linejoin="round"/>
<path d="M304.512 257.832C306 264.032 306.208 268.704 310.704 274.144C313.104 277.088 319.456 279.584 320.168 282.184C320.805 285.312 321.283 288.471 321.6 291.648L325.152 291.888C325.152 291.888 325.872 285.728 323.84 281.336" stroke="white" stroke-width="0.5" stroke-linecap="round" stroke-linejoin="round"/>
<path d="M305.504 247.888C305.504 247.888 302.848 249.928 303.792 254.952" stroke="white" stroke-width="0.5" stroke-linecap="round" stroke-linejoin="round"/>
<path d="M322.52 266.184L321.112 268.464" stroke="white" stroke-width="0.5" stroke-linecap="round" stroke-linejoin="round"/>
<path d="M323.009 265.392L322.521 266.184" stroke="white" stroke-width="0.5" stroke-linecap="round" stroke-linejoin="round"/>
<path d="M327.736 231.328C327.736 231.328 322.296 231.096 322.296 236.296C322.296 240.688 323.64 255.68 323.352 262.536" stroke="white" stroke-width="0.5" stroke-linecap="round" stroke-linejoin="round"/>
<path d="M332.001 273.928C331.873 275.712 331.793 276.976 331.793 277.456C331.793 280.056 338.409 270.12 341.489 269.888C341.489 269.888 344.561 269.648 343.377 275.328C342.946 277.436 341.948 279.387 340.49 280.97C339.033 282.553 337.17 283.709 335.105 284.312C332.497 285.024 330.369 283.84 329.897 285.024C329.52 286.415 329.281 287.841 329.185 289.28" stroke="white" stroke-width="0.5" stroke-linecap="round" stroke-linejoin="round"/>
<path d="M333.544 236.264C333.956 237.979 334.149 239.74 334.12 241.504C334.12 247.04 333.064 260.096 332.36 268.912" stroke="white" stroke-width="0.5" stroke-linecap="round" stroke-linejoin="round"/>
<path d="M330.809 231.808C331.519 232.215 332.095 232.822 332.465 233.552" stroke="white" stroke-width="0.5" stroke-linecap="round" stroke-linejoin="round"/>
<path d="M326.96 272.488L326.792 275.8" stroke="white" stroke-width="0.5" stroke-linecap="round" stroke-linejoin="round"/>
<path d="M328.208 234.64C328.208 234.64 326.792 235.112 327.264 240.08C327.656 244.184 327.264 262.816 327.08 269.176" stroke="white" stroke-width="0.5" stroke-linecap="round" stroke-linejoin="round"/>
<path d="M343.112 271.304C341.084 275.1 337.834 278.102 333.888 279.824C327.488 282.424 327.264 281.24 327.264 283.824C327.264 286.408 327.024 291.16 327.024 291.16" stroke="white" stroke-width="0.5" stroke-linecap="round" stroke-linejoin="round"/>
<path d="M334.241 324.776H313.569L309.145 294.832H338.665L334.241 324.776Z" fill="#1D4ED8" stroke="#2E353A" stroke-linecap="round" stroke-linejoin="round"/>
<path d="M341.2 290.112H306.608V298.128H341.2V290.112Z" fill="#1D4ED8" stroke="#2E353A" stroke-linecap="round" stroke-linejoin="round"/>
<path d="M220.736 304.616V288.36H172.864V304.616C172.856 309.911 171.063 315.049 167.776 319.2L165.68 321.84H227.92L225.824 319.2C222.536 315.049 220.743 309.911 220.736 304.616Z" fill="white" stroke="#2E353A" stroke-linecap="round" stroke-linejoin="round"/>
<path d="M169.92 316H223.68C221.75 312.516 220.737 308.599 220.736 304.616V288.36H172.864V304.616C172.863 308.599 171.85 312.516 169.92 316Z" fill="#1D4ED8"/>
<path d="M286.216 149.176H107.376C103.629 149.176 100.592 152.213 100.592 155.96V286.704C100.592 290.45 103.629 293.488 107.376 293.488H286.216C289.962 293.488 293 290.45 293 286.704V155.96C293 152.213 289.962 149.176 286.216 149.176Z" fill="#2E353A" stroke="#2E353A" stroke-linecap="round" stroke-linejoin="round"/>
<path d="M100.592 271.056H293.008V286.696C293.008 288.495 292.293 290.22 291.021 291.493C289.749 292.765 288.023 293.48 286.224 293.48H107.384C105.585 293.48 103.859 292.765 102.587 291.493C101.315 290.22 100.6 288.495 100.6 286.696V271.056H100.592Z" fill="white" stroke="#2E353A" stroke-linecap="round" stroke-linejoin="round"/>
<path d="M283.327 158.16H110.271V260.112H283.327V158.16Z" fill="white" stroke="#2E353A" stroke-linecap="round" stroke-linejoin="round"/>
<path d="M200.352 282.272C200.352 281.569 200.144 280.882 199.753 280.298C199.363 279.714 198.808 279.259 198.159 278.99C197.51 278.721 196.796 278.651 196.107 278.788C195.418 278.925 194.785 279.263 194.288 279.76C193.792 280.257 193.453 280.89 193.316 281.579C193.179 282.268 193.25 282.982 193.518 283.631C193.787 284.28 194.243 284.835 194.827 285.225C195.411 285.615 196.098 285.824 196.8 285.824C197.742 285.824 198.646 285.449 199.312 284.783C199.978 284.117 200.352 283.214 200.352 282.272Z" fill="#2E353A" stroke="#2E353A" stroke-linecap="round" stroke-linejoin="round"/>
<path d="M227.928 321.872H165.68V324.776H227.928V321.872Z" fill="white" stroke="#2E353A" stroke-linecap="round" stroke-linejoin="round"/>
<path d="M281.704 165.344H111.632V174.28H281.704V165.344Z" fill="white" stroke="#2E353A" stroke-linecap="round" stroke-linejoin="round"/>
<path d="M139.696 174.28L137.656 168.76H111.632V174.28V181.6V255.768H281.704V174.28H139.696Z" fill="#1D4ED8" stroke="#2E353A" stroke-linecap="round" stroke-linejoin="round"/>
<path d="M157.408 214.688H237.152" stroke="#2E353A" stroke-width="2" stroke-linecap="round" stroke-linejoin="round"/>
<path d="M157.408 222.528H237.152" stroke="#2E353A" stroke-width="2" stroke-linecap="round" stroke-linejoin="round"/>
<path d="M157.408 230.368H237.152" stroke="#2E353A" stroke-width="2" stroke-linecap="round" stroke-linejoin="round"/>
<path d="M157.408 238.216H237.152" stroke="#2E353A" stroke-width="2" stroke-linecap="round" stroke-linejoin="round"/>
<path d="M232.936 193.784H160.672C159.928 193.785 159.191 193.639 158.504 193.355C157.816 193.072 157.191 192.655 156.665 192.13C156.138 191.605 155.72 190.981 155.434 190.294C155.149 189.608 155.001 188.871 155 188.128C154.999 187.384 155.144 186.647 155.428 185.959C155.712 185.272 156.128 184.647 156.653 184.12C157.178 183.593 157.802 183.175 158.489 182.89C159.176 182.604 159.912 182.457 160.656 182.456H232.936C233.681 182.455 234.419 182.601 235.108 182.885C235.796 183.17 236.422 183.588 236.949 184.115C237.476 184.641 237.894 185.267 238.178 185.956C238.463 186.644 238.609 187.382 238.608 188.128C238.607 188.871 238.459 189.608 238.174 190.294C237.888 190.981 237.47 191.605 236.943 192.13C236.417 192.655 235.792 193.072 235.104 193.355C234.417 193.639 233.68 193.785 232.936 193.784Z" fill="white" stroke="#2E353A" stroke-linecap="round" stroke-linejoin="round"/>
<path d="M232.935 193.784H223.063V182.44H232.935C233.681 182.439 234.419 182.585 235.107 182.87C235.796 183.154 236.422 183.572 236.949 184.099C237.475 184.626 237.893 185.251 238.178 185.94C238.463 186.629 238.609 187.367 238.607 188.112C238.609 188.857 238.463 189.595 238.178 190.284C237.893 190.972 237.475 191.598 236.949 192.125C236.422 192.652 235.796 193.07 235.107 193.354C234.419 193.639 233.681 193.785 232.935 193.784Z" fill="#2E353A" stroke="#2E353A" stroke-linecap="round" stroke-linejoin="round"/>
<path d="M230.736 183.88C230.266 183.44 229.676 183.148 229.04 183.044C228.405 182.939 227.753 183.024 227.166 183.29C226.579 183.556 226.085 183.99 225.745 184.537C225.405 185.084 225.234 185.72 225.256 186.364C225.277 187.007 225.489 187.63 225.864 188.154C226.239 188.677 226.762 189.077 227.365 189.304C227.968 189.53 228.624 189.573 229.251 189.426C229.879 189.28 230.448 188.95 230.888 188.48C231.181 188.17 231.41 187.804 231.562 187.405C231.713 187.006 231.784 186.581 231.771 186.154C231.757 185.727 231.66 185.307 231.484 184.918C231.307 184.53 231.056 184.179 230.744 183.888L230.736 183.88ZM230.416 188.04C230.063 188.415 229.606 188.677 229.104 188.793C228.602 188.909 228.077 188.873 227.595 188.691C227.113 188.509 226.696 188.188 226.396 187.769C226.097 187.35 225.928 186.851 225.911 186.336C225.894 185.821 226.031 185.313 226.303 184.875C226.574 184.438 226.97 184.09 227.439 183.877C227.908 183.664 228.43 183.595 228.938 183.678C229.447 183.761 229.919 183.993 230.296 184.344C230.802 184.818 231.099 185.474 231.121 186.167C231.144 186.86 230.89 187.534 230.416 188.04Z" fill="white"/>
<path d="M233.184 189.664C233.112 189.594 233.022 189.547 232.924 189.527C232.826 189.507 232.725 189.516 232.632 189.552L231.456 188.448C231.396 188.389 231.315 188.356 231.232 188.356C231.148 188.356 231.067 188.389 231.008 188.448L230.904 188.56C230.846 188.622 230.814 188.703 230.814 188.788C230.814 188.872 230.846 188.954 230.904 189.016L232.064 190.104C232.029 190.203 232.024 190.31 232.048 190.412C232.072 190.514 232.125 190.607 232.2 190.68L234.2 192.64C234.332 192.771 234.51 192.844 234.696 192.844C234.881 192.844 235.06 192.771 235.192 192.64C235.323 192.508 235.396 192.33 235.396 192.144C235.396 191.958 235.323 191.78 235.192 191.648L233.184 189.664Z" fill="white"/>
<path d="M253.84 228C254.074 228.58 254.421 229.106 254.862 229.549C255.304 229.991 255.829 230.341 256.408 230.576C257.312 230.944 258.52 230.864 259.912 231.648C263.056 233.416 270.904 231.84 276.592 232.448C282.28 233.056 289.944 226.76 289.944 226.76L312.512 228V205.6C312.512 205.6 288.96 206.584 283.856 204.616C278.752 202.648 273.064 198.536 270.512 198.728C267.96 198.92 246.96 201.28 246.96 201.28L253.832 228H253.84Z" fill="white" stroke="#2E353A" stroke-linecap="round" stroke-linejoin="round"/>
<path d="M247.999 137.68C243.34 138.196 238.937 140.082 235.35 143.1C231.762 146.117 229.149 150.131 227.843 154.634C226.536 159.136 226.594 163.925 228.009 168.395C229.424 172.864 232.132 176.814 235.792 179.744C239.452 182.674 243.898 184.453 248.569 184.857C253.24 185.26 257.925 184.269 262.033 182.009C266.141 179.749 269.486 176.322 271.646 172.161C273.806 168 274.683 163.292 274.167 158.632C273.827 155.537 272.88 152.54 271.38 149.812C269.88 147.083 267.857 144.677 265.427 142.732C262.996 140.786 260.206 139.338 257.216 138.471C254.226 137.604 251.094 137.336 247.999 137.68ZM252.703 180.144C248.965 180.559 245.188 179.857 241.849 178.126C238.511 176.394 235.76 173.712 233.946 170.417C232.132 167.123 231.336 163.364 231.658 159.617C231.979 155.87 233.405 152.302 235.755 149.365C238.104 146.428 241.272 144.254 244.857 143.118C248.442 141.981 252.284 141.933 255.896 142.98C259.508 144.027 262.729 146.121 265.151 148.998C267.574 151.875 269.088 155.406 269.503 159.144C269.779 161.626 269.563 164.138 268.868 166.537C268.173 168.935 267.013 171.174 265.453 173.124C263.893 175.074 261.964 176.697 259.776 177.902C257.589 179.107 255.185 179.868 252.703 180.144Z" fill="white" stroke="#2E353A" stroke-linecap="round" stroke-linejoin="round"/>
<path d="M247.871 136.328C243.212 136.844 238.81 138.73 235.222 141.748C231.634 144.765 229.021 148.779 227.715 153.282C226.408 157.784 226.466 162.573 227.881 167.043C229.296 171.512 232.004 175.462 235.664 178.392C239.324 181.322 243.77 183.101 248.441 183.505C253.112 183.908 257.797 182.917 261.905 180.657C266.013 178.397 269.358 174.97 271.518 170.809C273.678 166.648 274.555 161.94 274.039 157.28C273.346 151.033 270.2 145.316 265.293 141.387C260.386 137.458 254.12 135.639 247.871 136.328ZM252.575 178.792C248.837 179.207 245.06 178.505 241.722 176.774C238.383 175.042 235.632 172.36 233.818 169.065C232.004 165.771 231.208 162.012 231.53 158.265C231.852 154.518 233.277 150.95 235.627 148.013C237.976 145.076 241.144 142.902 244.729 141.766C248.314 140.629 252.156 140.581 255.768 141.628C259.381 142.674 262.601 144.769 265.023 147.646C267.446 150.523 268.96 154.054 269.375 157.792C269.651 160.274 269.436 162.786 268.741 165.185C268.045 167.583 266.885 169.822 265.325 171.772C263.765 173.722 261.836 175.345 259.648 176.55C257.461 177.755 255.057 178.516 252.575 178.792Z" fill="white" stroke="#2E353A" stroke-linecap="round" stroke-linejoin="round"/>
<path d="M253.868 183.888L252.747 184.012C251.482 184.153 250.571 185.291 250.711 186.556L252.53 202.984C252.67 204.248 253.809 205.16 255.074 205.02L256.195 204.896C257.46 204.756 258.371 203.617 258.231 202.352L256.412 185.925C256.272 184.66 255.133 183.748 253.868 183.888Z" fill="#1D4ED8" stroke="#2E353A" stroke-linecap="round" stroke-linejoin="round"/>
<path d="M253.504 197.6L255.904 197.344C256.936 197.234 257.97 197.535 258.782 198.182C259.593 198.829 260.117 199.769 260.24 200.8L263.832 233.288C263.978 234.616 263.59 235.948 262.755 236.991C261.919 238.033 260.704 238.701 259.376 238.848H259.216C258.558 238.922 257.892 238.864 257.256 238.68C256.621 238.496 256.028 238.188 255.511 237.774C254.995 237.36 254.565 236.848 254.247 236.268C253.928 235.688 253.727 235.05 253.656 234.392L250.064 201.912C250.006 201.398 250.05 200.877 250.194 200.38C250.337 199.883 250.578 199.419 250.901 199.014C251.224 198.61 251.624 198.274 252.078 198.024C252.531 197.775 253.029 197.617 253.544 197.56L253.504 197.6Z" fill="#2E353A" stroke="#2E353A" stroke-linecap="round" stroke-linejoin="round"/>
<path d="M256.992 224.672C256.992 224.672 251.304 224.88 250.504 225.864C249.704 226.848 249.848 230.272 251.392 230.664C255.328 231.696 263.696 231.096 264.024 230.392C264.352 229.688 265.024 225.592 263.296 225.152C261.209 224.833 259.102 224.672 256.992 224.672Z" fill="white" stroke="#2E353A" stroke-linecap="round" stroke-linejoin="round"/>
<path d="M255.351 216.736C255.351 216.736 248.735 216.488 247.703 217.68C246.671 218.872 246.471 223.328 248.215 224C252.663 225.704 262.671 225.04 263.127 224.16C263.583 223.28 264.575 218.712 262.615 217.976C260.655 217.24 255.351 216.736 255.351 216.736Z" fill="white" stroke="#2E353A" stroke-linecap="round" stroke-linejoin="round"/>
<path d="M254.399 207.776C254.399 207.776 247.327 207.504 246.223 208.784C245.119 210.064 244.903 214.816 246.767 215.536C251.567 217.36 261.967 217.36 262.455 216.416C262.943 215.472 264.255 209.888 262.159 209.096C260.063 208.304 254.399 207.776 254.399 207.776Z" fill="white" stroke="#2E353A" stroke-linecap="round" stroke-linejoin="round"/>
<path d="M250.32 199.392C250.32 199.392 243.248 199.128 242.144 200.4C241.04 201.672 240.776 206.576 242.688 207.152C244.6 207.728 257.888 208.976 258.376 208.04C258.864 207.104 260.176 201.504 258.08 200.712C255.984 199.92 250.32 199.392 250.32 199.392Z" fill="white" stroke="#2E353A" stroke-linecap="round" stroke-linejoin="round"/>
<path d="M273.48 222.92C272.211 222.571 271.008 222.014 269.92 221.272C264.232 217.344 264.424 208.32 264.424 208.32L263.056 207.928C261.926 207.498 260.867 206.902 259.912 206.16C260.37 208.024 260.638 209.93 260.712 211.848C260.692 212.902 260.28 213.911 259.557 214.679C258.834 215.446 257.851 215.917 256.8 216C255.032 216.2 254.248 216.392 253.656 214.04C253.064 211.688 250.128 202.264 249.928 200.888C249.752 199.64 251.848 197.416 255.184 196.888C260.312 197.304 265.368 198.736 270.536 198.736C272.334 198.905 274.058 199.539 275.536 200.576" fill="white"/>
<path d="M273.48 222.92C272.211 222.571 271.008 222.014 269.92 221.272C264.232 217.344 264.424 208.32 264.424 208.32L263.056 207.928C261.926 207.498 260.867 206.902 259.912 206.16C260.37 208.024 260.638 209.93 260.712 211.848C260.692 212.902 260.28 213.911 259.557 214.679C258.834 215.446 257.851 215.917 256.8 216C255.032 216.2 254.248 216.392 253.656 214.04C253.064 211.688 250.128 202.264 249.928 200.888C249.752 199.64 251.848 197.416 255.184 196.888C260.312 197.304 265.368 198.736 270.536 198.736C272.334 198.905 274.058 199.539 275.536 200.576" stroke="#2E353A" stroke-linecap="round" stroke-linejoin="round"/>
<path d="M278.888 223.416C278.264 223.448 277.639 223.448 277.016 223.416H278.888Z" fill="white"/>
<path d="M278.888 223.416C278.264 223.448 277.639 223.448 277.016 223.416" stroke="#2E353A" stroke-linecap="round" stroke-linejoin="round"/>
<path d="M283.072 222.64C281.713 223.07 280.309 223.339 278.888 223.44L283.072 222.64Z" fill="white"/>
<path d="M283.072 222.64C281.713 223.07 280.309 223.339 278.888 223.44" stroke="#2E353A" stroke-linecap="round" stroke-linejoin="round"/>
<path d="M290.136 220.096H297.2" stroke="#2E353A" stroke-linecap="round" stroke-linejoin="round"/>
<path d="M290.728 222.056H293.672" stroke="#2E353A" stroke-linecap="round" stroke-linejoin="round"/>
<path d="M264.424 208.32C264.424 208.32 268.328 208.32 270.888 205.992" stroke="#2E353A" stroke-linecap="round" stroke-linejoin="round"/>
<path d="M259.824 205.904C259.712 204.839 259.489 203.788 259.16 202.768" stroke="#2E353A" stroke-linecap="round" stroke-linejoin="round"/>
<path d="M253.599 213.008C253.599 213.008 252.855 210.944 253.759 210.2C254.663 209.456 257.063 208.384 257.479 209.208C257.895 210.032 258.799 213.832 258.551 214.576L258.303 215.32" stroke="#2E353A" stroke-width="0.5" stroke-linecap="round" stroke-linejoin="round"/>
<path d="M362.039 238.04H294.399V204.792H362.039" fill="#1D4ED8"/>
<path d="M362.039 238.04H294.399V204.792H362.039" stroke="#2E353A" stroke-linecap="round" stroke-linejoin="round"/>
<path d="M299.36 235.816C300.199 235.816 300.88 235.136 300.88 234.296C300.88 233.457 300.199 232.776 299.36 232.776C298.52 232.776 297.84 233.457 297.84 234.296C297.84 235.136 298.52 235.816 299.36 235.816Z" fill="white" stroke="#2E353A" stroke-linecap="round" stroke-linejoin="round"/>
<path d="M191.864 173.128C192.444 172.895 192.97 172.547 193.413 172.106C193.855 171.665 194.205 171.139 194.44 170.56C194.808 169.656 194.72 168.456 195.512 167.056C197.272 163.92 195.704 156.072 196.312 150.376C196.92 144.68 190.616 137.032 190.616 137.032L191.84 114.464H169.44C169.44 114.464 170.416 138.016 168.456 143.112C166.496 148.208 162.376 153.912 162.568 156.464C162.76 159.016 165.136 180 165.136 180L191.824 173.128H191.864Z" fill="white" stroke="#2E353A" stroke-linecap="round" stroke-linejoin="round"/>
<path d="M101.6 178.952C102.112 183.612 103.995 188.016 107.01 191.606C110.025 195.196 114.037 197.812 118.539 199.122C123.041 200.432 127.83 200.377 132.3 198.965C136.771 197.553 140.723 194.847 143.655 191.19C146.588 187.532 148.37 183.086 148.777 178.416C149.183 173.745 148.195 169.059 145.938 164.949C143.68 160.84 140.255 157.493 136.095 155.33C131.936 153.167 127.228 152.287 122.568 152.8H122.512C116.274 153.502 110.568 156.649 106.648 161.552C102.728 166.455 100.912 172.712 101.6 178.952ZM144 174.24C144.416 177.979 143.715 181.758 141.984 185.099C140.253 188.44 137.57 191.192 134.275 193.008C130.98 194.824 127.22 195.622 123.471 195.302C119.722 194.981 116.153 193.556 113.214 191.206C110.275 188.857 108.099 185.689 106.961 182.103C105.822 178.517 105.773 174.674 106.818 171.059C107.864 167.445 109.958 164.222 112.835 161.798C115.713 159.374 119.244 157.857 122.984 157.44C127.998 156.883 133.029 158.339 136.969 161.49C140.91 164.64 143.439 169.226 144 174.24Z" fill="white" stroke="#2E353A" stroke-linecap="round" stroke-linejoin="round"/>
<path d="M100.216 179.096C100.733 183.753 102.62 188.153 105.637 191.738C108.654 195.324 112.666 197.934 117.167 199.239C121.667 200.545 126.454 200.486 130.921 199.072C135.388 197.657 139.336 194.949 142.265 191.292C145.193 187.634 146.972 183.189 147.375 178.521C147.779 173.852 146.789 169.169 144.531 165.063C142.273 160.957 138.848 157.613 134.69 155.453C130.531 153.293 125.826 152.414 121.168 152.928C118.074 153.27 115.077 154.218 112.349 155.718C109.621 157.218 107.216 159.241 105.27 161.671C103.324 164.101 101.876 166.891 101.009 169.881C100.142 172.871 99.8725 176.002 100.216 179.096ZM142.68 174.4C143.095 178.138 142.393 181.915 140.661 185.254C138.93 188.593 136.247 191.343 132.953 193.157C129.658 194.971 125.9 195.768 122.153 195.446C118.406 195.124 114.838 193.698 111.901 191.349C108.964 188.999 106.79 185.832 105.653 182.247C104.517 178.662 104.469 174.82 105.516 171.207C106.562 167.595 108.657 164.374 111.534 161.952C114.411 159.53 117.942 158.016 121.68 157.6C124.162 157.324 126.674 157.54 129.073 158.235C131.471 158.93 133.709 160.091 135.659 161.651C137.61 163.211 139.233 165.14 140.438 167.327C141.642 169.515 142.404 171.918 142.68 174.4Z" fill="white" stroke="#2E353A" stroke-linecap="round" stroke-linejoin="round"/>
<path d="M166.246 168.749L149.818 170.568C148.554 170.708 147.642 171.847 147.782 173.112L147.906 174.233C148.046 175.498 149.185 176.409 150.45 176.269L166.877 174.45C168.142 174.31 169.054 173.171 168.914 171.906L168.789 170.785C168.649 169.52 167.511 168.609 166.246 168.749Z" fill="#1D4ED8" stroke="#2E353A" stroke-linecap="round" stroke-linejoin="round"/>
<path d="M161.488 173.472L161.224 171.072C161.109 170.032 161.413 168.99 162.067 168.174C162.721 167.358 163.672 166.835 164.712 166.72L197.192 163.128C197.852 163.051 198.522 163.106 199.161 163.288C199.801 163.471 200.398 163.778 200.918 164.192C201.438 164.606 201.872 165.119 202.193 165.701C202.515 166.283 202.718 166.923 202.792 167.584V167.744C202.869 168.405 202.814 169.074 202.632 169.713C202.449 170.353 202.142 170.95 201.728 171.47C201.314 171.99 200.801 172.424 200.219 172.745C199.637 173.067 198.997 173.27 198.336 173.344L165.856 176.936C164.818 177.053 163.776 176.755 162.957 176.105C162.139 175.456 161.61 174.509 161.488 173.472Z" fill="#2E353A" stroke="#2E353A" stroke-linecap="round" stroke-linejoin="round"/>
<path d="M188.552 169.984C188.552 169.984 188.768 175.664 189.744 176.464C190.72 177.264 194.16 177.12 194.544 175.576C195.584 171.648 194.976 163.272 194.272 162.952C193.568 162.632 189.472 161.944 189.04 163.68C188.717 165.766 188.554 167.873 188.552 169.984Z" fill="white" stroke="#2E353A" stroke-linecap="round" stroke-linejoin="round"/>
<path d="M180.624 171.616C180.624 171.616 180.368 178.232 181.56 179.264C182.752 180.296 187.208 180.504 187.88 178.752C189.592 174.304 188.92 164.296 188.04 163.848C187.16 163.4 182.592 162.4 181.856 164.36C181.12 166.32 180.624 171.616 180.624 171.616Z" fill="white" stroke="#2E353A" stroke-linecap="round" stroke-linejoin="round"/>
<path d="M171.664 172.584C171.664 172.584 171.392 179.656 172.664 180.76C173.936 181.864 178.704 182.08 179.424 180.208C181.248 175.456 181.248 165.008 180.304 164.528C179.36 164.048 173.768 162.728 172.984 164.824C172.2 166.92 171.664 172.584 171.664 172.584Z" fill="white" stroke="#2E353A" stroke-linecap="round" stroke-linejoin="round"/>
<path d="M163.28 176.656C163.28 176.656 163.008 183.728 164.288 184.832C165.568 185.936 170.464 186.2 171.04 184.28C171.616 182.36 172.864 169.08 171.92 168.592C170.976 168.104 165.392 166.8 164.6 168.896C163.808 170.992 163.28 176.656 163.28 176.656Z" fill="white" stroke="#2E353A" stroke-linecap="round" stroke-linejoin="round"/>
<path d="M187.296 148.064C187.622 151.216 186.866 154.384 185.152 157.048C181.232 162.744 172.2 162.544 172.2 162.544L171.808 163.92C171.381 165.049 170.785 166.107 170.04 167.056C171.907 166.598 173.815 166.33 175.736 166.256C176.787 166.287 177.789 166.705 178.549 167.43C179.31 168.156 179.776 169.137 179.856 170.184C180.056 171.952 180.248 172.736 177.896 173.32C175.544 173.904 166.12 176.856 164.744 177.056C163.496 177.232 161.272 175.136 160.744 171.8C161.168 166.672 162.6 161.608 162.6 156.448C162.768 154.648 163.402 152.921 164.44 151.44" fill="white"/>
<path d="M187.296 148.064C187.622 151.216 186.866 154.384 185.152 157.048C181.232 162.744 172.2 162.544 172.2 162.544L171.808 163.92C171.381 165.049 170.785 166.107 170.04 167.056C171.907 166.598 173.815 166.33 175.736 166.256C176.787 166.287 177.789 166.705 178.549 167.43C179.31 168.156 179.776 169.137 179.856 170.184C180.056 171.952 180.248 172.736 177.896 173.32C175.544 173.904 166.12 176.856 164.744 177.056C163.496 177.232 161.272 175.136 160.744 171.8C161.168 166.672 162.6 161.608 162.6 156.448C162.768 154.648 163.402 152.921 164.44 151.44" stroke="#2E353A" stroke-linecap="round" stroke-linejoin="round"/>
<path d="M186.527 143.904C186.764 144.653 186.946 145.417 187.071 146.192L186.527 143.904Z" fill="white"/>
<path d="M186.527 143.904C186.764 144.653 186.946 145.417 187.071 146.192" stroke="#2E353A" stroke-linecap="round" stroke-linejoin="round"/>
<path d="M183.976 136.832V129.768" stroke="#2E353A" stroke-linecap="round" stroke-linejoin="round"/>
<path d="M185.936 136.248V133.304" stroke="#2E353A" stroke-linecap="round" stroke-linejoin="round"/>
<path d="M172.2 162.544C172.2 162.544 172.2 158.64 169.872 156.08" stroke="#2E353A" stroke-linecap="round" stroke-linejoin="round"/>
<path d="M169.792 167.152C168.727 167.262 167.676 167.482 166.656 167.808" stroke="#2E353A" stroke-linecap="round" stroke-linejoin="round"/>
<path d="M176.896 173.344C176.896 173.344 174.832 174.088 174.088 173.176C173.344 172.264 172.272 169.872 173.096 169.464C173.92 169.056 177.72 168.144 178.464 168.392L179.208 168.632" stroke="#2E353A" stroke-width="0.5" stroke-linecap="round" stroke-linejoin="round"/>
<path d="M201.928 64.9282V132.568H168.672V64.9282" fill="#1D4ED8"/>
<path d="M201.928 64.9282V132.568H168.672V64.9282" stroke="#2E353A" stroke-linecap="round" stroke-linejoin="round"/>
<path d="M198.176 129.128C199.016 129.128 199.696 128.448 199.696 127.608C199.696 126.769 199.016 126.088 198.176 126.088C197.337 126.088 196.656 126.769 196.656 127.608C196.656 128.448 197.337 129.128 198.176 129.128Z" fill="white" stroke="#2E353A" stroke-linecap="round" stroke-linejoin="round"/>
<path d="M158.4 293.6C158.167 294.18 157.82 294.708 157.379 295.15C156.938 295.593 156.411 295.942 155.832 296.176C154.928 296.552 153.728 296.464 152.328 297.248C149.192 299.016 141.344 297.448 135.648 298.048C129.952 298.648 122.304 292.36 122.304 292.36L99.7119 293.6V271.2C99.7119 271.2 123.264 272.184 128.368 270.224C133.472 268.264 139.16 264.136 141.712 264.336C144.264 264.536 165.264 266.888 165.264 266.888L158.4 293.6Z" fill="white" stroke="#2E353A" stroke-linecap="round" stroke-linejoin="round"/>
<path d="M164.2 203.328C168.859 203.844 173.262 205.73 176.849 208.748C180.437 211.766 183.05 215.779 184.356 220.282C185.663 224.784 185.605 229.573 184.19 234.043C182.775 238.512 180.067 242.462 176.407 245.392C172.747 248.322 168.301 250.102 163.63 250.505C158.959 250.908 154.274 249.917 150.166 247.657C146.058 245.397 142.713 241.97 140.553 237.809C138.393 233.648 137.516 228.94 138.032 224.28C138.723 218.034 141.868 212.318 146.774 208.391C151.68 204.463 157.945 202.645 164.192 203.336L164.2 203.328ZM159.496 245.792C163.235 246.209 167.014 245.508 170.355 243.777C173.695 242.046 176.448 239.363 178.264 236.068C180.08 232.772 180.878 229.013 180.557 225.264C180.236 221.515 178.811 217.946 176.462 215.007C174.113 212.068 170.945 209.892 167.359 208.753C163.772 207.615 159.929 207.565 156.315 208.611C152.701 209.657 149.478 211.751 147.054 214.628C144.629 217.505 143.113 221.037 142.696 224.776C142.138 229.791 143.595 234.821 146.745 238.762C149.896 242.703 154.482 245.232 159.496 245.792Z" fill="white" stroke="#2E353A" stroke-linecap="round" stroke-linejoin="round"/>
<path d="M164.344 201.976C169.002 202.494 173.401 204.38 176.987 207.398C180.572 210.416 183.182 214.429 184.487 218.93C185.792 223.43 185.733 228.217 184.318 232.685C182.902 237.152 180.194 241.099 176.535 244.028C172.876 246.956 168.432 248.734 163.763 249.136C159.094 249.538 154.41 248.547 150.305 246.288C146.199 244.029 142.855 240.603 140.696 236.444C138.538 232.284 137.661 227.578 138.176 222.92C138.519 219.827 139.467 216.831 140.968 214.104C142.468 211.377 144.491 208.972 146.921 207.027C149.351 205.082 152.141 203.635 155.13 202.769C158.12 201.902 161.251 201.633 164.344 201.976ZM159.64 244.44C163.379 244.857 167.158 244.156 170.499 242.425C173.84 240.694 176.592 238.011 178.408 234.716C180.224 231.42 181.022 227.661 180.702 223.912C180.381 220.163 178.956 216.594 176.607 213.655C174.257 210.716 171.089 208.54 167.503 207.401C163.917 206.263 160.074 206.213 156.459 207.259C152.845 208.305 149.622 210.399 147.198 213.276C144.774 216.153 143.257 219.685 142.84 223.424C142.285 228.437 143.743 233.464 146.893 237.402C150.044 241.34 154.628 243.865 159.64 244.424V244.44Z" fill="white" stroke="#2E353A" stroke-linecap="round" stroke-linejoin="round"/>
<path d="M155.798 251.573L153.978 268.001C153.838 269.266 154.75 270.405 156.015 270.545L157.136 270.669C158.4 270.809 159.539 269.897 159.679 268.632L161.499 252.205C161.639 250.94 160.727 249.801 159.462 249.661L158.341 249.537C157.077 249.397 155.938 250.309 155.798 251.573Z" fill="#1D4ED8" stroke="#2E353A" stroke-linecap="round" stroke-linejoin="round"/>
<path d="M153.016 304.528H152.856C152.195 304.456 151.554 304.253 150.972 303.932C150.389 303.61 149.876 303.177 149.461 302.656C149.047 302.136 148.74 301.538 148.558 300.898C148.376 300.258 148.322 299.589 148.4 298.928L151.992 266.448C152.048 265.933 152.205 265.434 152.454 264.979C152.703 264.525 153.039 264.124 153.443 263.8C153.848 263.476 154.312 263.235 154.81 263.091C155.308 262.947 155.829 262.902 156.344 262.96L158.744 263.224C159.784 263.339 160.735 263.862 161.389 264.678C162.043 265.494 162.346 266.536 162.232 267.576L158.64 300.096C158.565 300.757 158.361 301.396 158.039 301.978C157.717 302.559 157.284 303.071 156.764 303.485C156.244 303.899 155.647 304.206 155.008 304.39C154.369 304.573 153.7 304.628 153.04 304.552L153.016 304.528Z" fill="#2E353A" stroke="#2E353A" stroke-linecap="round" stroke-linejoin="round"/>
<path d="M155.2 290.312C155.2 290.312 160.88 290.528 161.68 291.504C162.48 292.48 162.336 295.912 160.792 296.304C156.864 297.344 148.488 296.736 148.168 296.032C147.848 295.328 147.16 291.232 148.896 290.792C150.982 290.472 153.089 290.312 155.2 290.312Z" fill="white" stroke="#2E353A" stroke-linecap="round" stroke-linejoin="round"/>
<path d="M156.863 282.4C156.863 282.4 163.479 282.144 164.511 283.336C165.543 284.528 165.751 288.984 163.999 289.656C159.551 291.36 149.543 290.696 149.095 289.816C148.647 288.936 147.647 284.368 149.607 283.632C151.567 282.896 156.863 282.4 156.863 282.4Z" fill="white" stroke="#2E353A" stroke-linecap="round" stroke-linejoin="round"/>
<path d="M157.832 273.416C157.832 273.416 164.904 273.152 166.008 274.424C167.112 275.696 167.328 280.464 165.464 281.176C160.664 283.008 150.264 283 149.776 282.064C149.288 281.128 147.976 275.528 150.072 274.736C152.168 273.944 157.832 273.416 157.832 273.416Z" fill="white" stroke="#2E353A" stroke-linecap="round" stroke-linejoin="round"/>
<path d="M161.903 265.04C161.903 265.04 168.975 264.768 170.079 266.04C171.183 267.312 171.447 272.224 169.527 272.8C167.607 273.376 154.327 274.616 153.839 273.68C153.351 272.744 152.047 267.144 154.143 266.36C156.239 265.576 161.903 265.04 161.903 265.04Z" fill="white" stroke="#2E353A" stroke-linecap="round" stroke-linejoin="round"/>
<path d="M134.399 289.096C137.189 289.206 139.944 288.443 142.279 286.912C147.975 282.984 147.775 273.96 147.775 273.96L149.151 273.568C150.28 273.142 151.338 272.545 152.287 271.8C151.829 273.665 151.561 275.57 151.487 277.488C151.518 278.54 151.936 279.543 152.661 280.305C153.386 281.067 154.367 281.534 155.415 281.616C157.183 281.808 157.967 282.008 158.559 279.648C159.151 277.288 162.087 267.872 162.287 266.504C162.487 265.136 160.367 263.024 157.031 262.504C151.903 262.928 146.839 264.36 141.679 264.36C139.88 264.528 138.155 265.159 136.671 266.192" fill="white"/>
<path d="M134.399 289.096C137.189 289.206 139.944 288.443 142.279 286.912C147.975 282.984 147.775 273.96 147.775 273.96L149.151 273.568C150.28 273.142 151.338 272.545 152.287 271.8C151.829 273.665 151.561 275.57 151.487 277.488C151.518 278.54 151.936 279.543 152.661 280.305C153.386 281.067 154.367 281.534 155.415 281.616C157.183 281.808 157.967 282.008 158.559 279.648C159.151 277.288 162.087 267.872 162.287 266.504C162.487 265.136 160.367 263.024 157.031 262.504C151.903 262.928 146.839 264.36 141.679 264.36C139.88 264.528 138.155 265.159 136.671 266.192" stroke="#2E353A" stroke-linecap="round" stroke-linejoin="round"/>
<path d="M129.151 288.288C130.27 288.632 131.419 288.865 132.583 288.984L129.151 288.288Z" fill="white"/>
<path d="M129.151 288.288C130.27 288.632 131.419 288.865 132.583 288.984" stroke="#2E353A" stroke-linecap="round" stroke-linejoin="round"/>
<path d="M122.08 285.736H115.016" stroke="#2E353A" stroke-linecap="round" stroke-linejoin="round"/>
<path d="M121.496 287.696H118.552" stroke="#2E353A" stroke-linecap="round" stroke-linejoin="round"/>
<path d="M147.792 273.96C147.792 273.96 143.888 273.96 141.328 271.632" stroke="#2E353A" stroke-linecap="round" stroke-linejoin="round"/>
<path d="M152.399 271.544C152.509 270.479 152.729 269.428 153.055 268.408" stroke="#2E353A" stroke-linecap="round" stroke-linejoin="round"/>
<path d="M158.592 278.648C158.592 278.648 159.336 276.584 158.424 275.84C157.512 275.096 155.12 274.024 154.712 274.848C154.304 275.672 153.392 279.48 153.64 280.216L153.888 280.96" stroke="#2E353A" stroke-width="0.5" stroke-linecap="round" stroke-linejoin="round"/>
<path d="M50.1758 303.688H117.816V270.432H50.1758" fill="#1D4ED8"/>
<path d="M50.1758 303.688H117.816V270.432H50.1758" stroke="#2E353A" stroke-linecap="round" stroke-linejoin="round"/>
<path d="M111.336 299.936C111.336 300.237 111.425 300.531 111.592 300.78C111.759 301.03 111.997 301.225 112.274 301.34C112.552 301.455 112.858 301.485 113.152 301.427C113.447 301.368 113.718 301.223 113.931 301.011C114.143 300.798 114.288 300.527 114.347 300.233C114.405 299.938 114.375 299.632 114.26 299.354C114.145 299.077 113.95 298.839 113.7 298.672C113.45 298.505 113.157 298.416 112.856 298.416C112.453 298.416 112.066 298.576 111.781 298.861C111.496 299.146 111.336 299.533 111.336 299.936Z" fill="white" stroke="#2E353A" stroke-linecap="round" stroke-linejoin="round"/>
</svg>
