<svg width="16" height="16" viewBox="0 0 16 16" fill="none" xmlns="http://www.w3.org/2000/svg">
<g clip-path="url(#clip0_57_100)">
<path d="M7.74302 0.696777C9.04334 0.696777 10.2904 1.21333 11.2099 2.13279C12.1293 3.05225 12.6459 4.29932 12.6459 5.59963C12.6459 11.0511 14.6345 12.1253 15.1716 12.1253H0.314453C0.863025 12.1253 2.84017 11.0396 2.84017 5.59963C2.84017 4.29932 3.35672 3.05225 4.27618 2.13279C5.19565 1.21333 6.44271 0.696777 7.74302 0.696777Z" stroke="#32373D" stroke-linecap="round" stroke-linejoin="round"/>
<path d="M6.02881 14.2168C6.1276 14.5963 6.3495 14.9322 6.65973 15.172C6.96996 15.4118 7.35099 15.5419 7.74309 15.5419C8.1352 15.5419 8.51623 15.4118 8.82646 15.172C9.13669 14.9322 9.35859 14.5963 9.45738 14.2168" stroke="#32373D" stroke-linecap="round" stroke-linejoin="round"/>
</g>
<defs>
<clipPath id="clip0_57_100">
<rect width="16" height="16" fill="white"/>
</clipPath>
</defs>
</svg>
