<svg width="83" height="22" viewBox="0 0 83 22" fill="none" xmlns="http://www.w3.org/2000/svg">
<path d="M9.47 21.3C15.17 21.3 18.83 17.22 18.83 10.95C18.83 4.68 15.17 0.6 9.47 0.6C3.74 0.6 0.0800001 4.68 0.0800001 10.95C0.0800001 17.22 3.74 21.3 9.47 21.3ZM9.47 18.18C5.3 18.18 3.53 16.17 3.53 10.95C3.53 5.73 5.3 3.72 9.47 3.72C13.64 3.72 15.38 5.73 15.38 10.95C15.38 16.17 13.64 18.18 9.47 18.18ZM24.6622 21V12.33H34.8022V21H38.0422V0.899999H34.8022V9.42H24.6622V0.899999H21.4222V21H24.6622ZM44.672 21V9.12L44.492 5.76H44.762L45.962 9.12L50.492 19.8H54.392L58.892 9.12L60.152 5.76H60.362L60.242 9.12V21H63.452V0.899999H58.862L54.362 11.94L52.622 16.74H52.382L50.612 11.94L46.022 0.899999H41.432V21H44.672ZM74.7573 21.3C79.8873 21.3 82.1673 18.69 82.1673 15.54C82.1673 12.51 80.5173 10.62 76.7373 9.84L73.3173 9.12C70.5573 8.52 69.7473 8.01 69.7473 6.18C69.7473 4.41 70.9473 3.57 73.9173 3.57C77.5173 3.57 78.5973 4.86 78.5973 7.32V7.65H81.7773V7.29C81.7773 3.72 79.5573 0.6 74.0073 0.6C68.8173 0.6 66.5073 3.36 66.5073 6.33C66.5073 9.51 68.3673 11.19 71.8173 11.85L75.2373 12.54C78.3273 13.17 78.9273 13.83 78.9273 15.66C78.9273 17.52 77.8473 18.33 74.8773 18.33C70.6773 18.33 69.6273 17.07 69.6273 14.58V14.25H66.4473V14.76C66.4473 18.63 68.9673 21.3 74.7573 21.3Z" fill="#1D4ED8"/>
</svg>
