<svg width="400" height="400" viewBox="0 0 400 400" fill="none" xmlns="http://www.w3.org/2000/svg">
<path d="M301.528 121.944C288.848 103.24 278.328 79.8482 257.824 68.2882C228.664 51.8482 200.632 74.2002 177.024 89.9762C164.624 98.2562 151.424 106.88 136.4 109.28C114.912 112.72 93.088 103.208 71.784 109.032C35.784 118.872 25.936 162.632 38.04 193.728C54.84 236.928 92.44 283.328 99.64 318.528C106.84 353.728 140.44 378.528 198.04 362.528C255.64 346.528 252.44 309.728 303.64 301.728C354.84 293.728 379.64 256.928 370.84 210.528C366.512 187.688 352.48 170.928 334.232 157.472C321.176 147.872 310.6 135.32 301.528 121.944Z" fill="#1D4ED8"/>
<g opacity="0.7">
<path d="M301.528 121.944C288.848 103.24 278.328 79.8482 257.824 68.2882C228.664 51.8482 200.632 74.2002 177.024 89.9762C164.624 98.2562 151.424 106.88 136.4 109.28C114.912 112.72 93.088 103.208 71.784 109.032C35.784 118.872 25.936 162.632 38.04 193.728C54.84 236.928 92.44 283.328 99.64 318.528C106.84 353.728 140.44 378.528 198.04 362.528C255.64 346.528 252.44 309.728 303.64 301.728C354.84 293.728 379.64 256.928 370.84 210.528C366.512 187.688 352.48 170.928 334.232 157.472C321.176 147.872 310.6 135.32 301.528 121.944Z" fill="white"/>
</g>
<path d="M98.336 48.736C98.336 48.736 102.584 45.384 103.672 43.232C104.6 41.4 105.272 38.808 104.312 36.832C104.101 36.3673 103.795 35.9522 103.413 35.6137C103.031 35.2751 102.582 35.0206 102.095 34.8667C101.609 34.7128 101.095 34.663 100.588 34.7204C100.081 34.7778 99.5919 34.9412 99.152 35.2C96.536 36.8 96.256 42.4 96.92 45.04C96.976 45.272 98.296 48.8 98.336 48.736Z" fill="#1D4ED8"/>
<path d="M59.08 76.6803C59.248 76.8403 62.28 79.0323 62.28 78.9763C62.28 78.9203 64 73.8403 63.712 71.4483C63.472 69.4083 62.6 66.8723 60.728 65.7763C60.2959 65.5023 59.811 65.3222 59.3048 65.2478C58.7986 65.1734 58.2825 65.2063 57.7898 65.3443C57.2971 65.4824 56.839 65.7225 56.4452 66.0492C56.0514 66.3758 55.7307 66.7817 55.504 67.2403C54.224 70.0403 57.048 74.8163 59.08 76.6803Z" fill="#1D4ED8"/>
<path d="M148.056 53.8159C148.056 53.8159 132.512 69.8639 132.592 89.5999C132.672 109.336 148.368 125.224 148.368 125.224C148.368 125.224 163.912 109.176 163.824 89.4639C163.736 69.7519 148.056 53.8159 148.056 53.8159Z" fill="#1D4ED8"/>
<path d="M125.888 101.384C126.095 101.162 126.285 100.924 126.456 100.672C127.584 98.9601 128.552 96.4641 127.824 94.4161C127.669 93.929 127.414 93.4798 127.075 93.0977C126.736 92.7155 126.32 92.4089 125.854 92.1978C125.389 91.9866 124.885 91.8755 124.374 91.8718C123.862 91.8681 123.356 91.9717 122.888 92.1761C120.776 93.1761 119.736 96.5601 119.512 99.3281C118.712 99.1361 117.912 98.9841 117.264 98.8801C116.984 98.2481 116.704 97.6161 116.416 96.9841C116.128 96.3521 115.896 95.6641 115.616 95.0001C115.24 94.0161 114.904 92.9841 114.568 91.9521C115.8 91.4001 119.368 89.7281 120.712 88.2481C122.056 86.7681 123.424 84.4081 123.016 82.2721C122.938 81.7664 122.754 81.2827 122.477 80.8528C122.199 80.4228 121.834 80.0563 121.405 79.7769C120.977 79.4976 120.494 79.3119 119.988 79.2318C119.483 79.1517 118.966 79.1791 118.472 79.3121C115.52 80.1841 113.784 85.4641 113.728 88.2081C113.728 88.2961 113.728 88.8801 113.832 89.5761C113.536 88.5521 113.232 87.5441 112.968 86.5041C112.208 83.5521 111.528 80.5201 110.832 77.4881C110.688 76.8561 110.536 76.2241 110.384 75.5921C111.424 75.1361 115.32 73.3521 116.72 71.8081C118.12 70.2641 119.424 67.9681 119.016 65.8321C118.939 65.3258 118.756 64.8414 118.479 64.4108C118.202 63.9802 117.837 63.6131 117.407 63.3336C116.978 63.0541 116.495 62.8684 115.989 62.7889C115.483 62.7094 114.966 62.7377 114.472 62.8721C111.528 63.7441 109.792 69.0241 109.728 71.7681C109.728 71.8721 109.784 72.5681 109.856 73.3681C109.456 71.7201 109.056 70.0881 108.568 68.4801C107.782 65.7195 106.812 63.0148 105.664 60.3841C106.032 60.2241 110.64 58.2321 112.192 56.5121C113.568 54.9841 114.904 52.6641 114.496 50.5281C114.417 50.0229 114.232 49.54 113.954 49.1107C113.677 48.6814 113.312 48.3154 112.883 48.0363C112.455 47.7572 111.972 47.5712 111.467 47.4906C110.962 47.4099 110.446 47.4364 109.952 47.5681C107 48.4481 105.264 53.7201 105.208 56.4721C105.208 56.6641 105.432 59.1761 105.544 60.0721V59.9761C104.352 57.4187 102.936 54.9718 101.312 52.6641C99.8719 50.5985 98.3119 48.6191 96.64 46.7361C95.112 44.9681 93.6 43.4481 92.248 42.1121C91.52 41.3921 90.832 40.7521 90.184 40.1601H90.248C90.304 40.1601 88.808 36.7281 88.696 36.5201C87.312 34.1201 83.248 30.3521 80.24 31.0081C79.7419 31.1308 79.2752 31.3572 78.8705 31.6724C78.4657 31.9877 78.1321 32.3848 77.8912 32.8378C77.6504 33.2908 77.5078 33.7894 77.4728 34.3013C77.4378 34.8131 77.5111 35.3266 77.688 35.8081C78.36 37.8721 80.648 39.2721 82.592 39.9361C84.536 40.6001 88.928 40.2961 90 40.2001C90.664 40.8241 91.36 41.5041 92.112 42.2721C93.424 43.6401 94.896 45.1841 96.384 46.9761C96.784 47.4561 97.184 47.9841 97.592 48.4881C96.736 47.7761 95.544 46.8241 95.416 46.7441C93.096 45.2641 87.744 43.7761 85.376 45.7441C84.9922 46.0823 84.6838 46.4974 84.4708 46.9624C84.2578 47.4275 84.1451 47.9322 84.1398 48.4436C84.1345 48.9551 84.2368 49.462 84.4402 49.9314C84.6435 50.4008 84.9433 50.8221 85.32 51.1681C86.864 52.6881 89.536 52.8721 91.568 52.5761C93.6 52.2801 97.48 49.8961 98.296 49.3761C99.176 50.5121 100.056 51.6961 100.896 52.9841C102.444 55.295 103.783 57.7393 104.896 60.2881C104.96 60.4401 105.008 60.6001 105.064 60.7441C104.704 60.3201 102.544 58.1361 102.368 58.0001C100.224 56.2801 95.072 54.2161 92.504 55.9121C92.0842 56.2049 91.7308 56.5829 91.467 57.0215C91.2032 57.4601 91.0348 57.9495 90.9729 58.4575C90.911 58.9656 90.9569 59.481 91.1077 59.9702C91.2585 60.4593 91.5108 60.9111 91.848 61.2961C93.216 62.9761 95.848 63.4561 97.904 63.3761C100.304 63.2961 104.928 60.9761 105.104 60.8561C106.153 63.4277 107.032 66.0654 107.736 68.7521C108.264 70.7361 108.72 72.7521 109.16 74.8161C108.68 74.2721 106.664 72.2481 106.504 72.1121C104.36 70.3921 99.208 68.3281 96.632 70.0241C96.2132 70.3177 95.8608 70.6961 95.5977 71.1347C95.3346 71.5733 95.1667 72.0623 95.1048 72.57C95.043 73.0777 95.0886 73.5928 95.2387 74.0817C95.3887 74.5706 95.6399 75.0226 95.976 75.4081C97.352 77.0881 99.976 77.5681 102.04 77.4881C104.344 77.4081 108.824 75.1761 109.24 74.9841C109.44 75.9121 109.64 76.8401 109.832 77.7761C110.464 80.8161 111.08 83.8721 111.776 86.8641C112.024 87.9041 112.296 88.9201 112.576 89.9361C111.824 89.1361 110.424 87.7361 110.296 87.6321C108.152 85.9041 102.992 83.8401 100.424 85.5361C100.004 85.8289 99.6508 86.2069 99.387 86.6455C99.1232 87.0841 98.9548 87.5735 98.8929 88.0815C98.831 88.5896 98.8769 89.105 99.0277 89.5942C99.1785 90.0833 99.4308 90.5351 99.768 90.9201C101.136 92.6081 103.768 93.0801 105.824 93.0081C107.88 92.9361 111.688 91.1361 112.752 90.6081C113.224 92.2961 113.72 93.9601 114.296 95.5761C114.56 96.2641 114.776 96.9841 115.096 97.6321L115.536 98.6641L114.936 98.6081C114.936 98.6081 114.936 99.5761 114.992 101.136C112.728 99.5361 109.464 98.1361 107.344 99.1121C106.885 99.3389 106.48 99.6596 106.153 100.053C105.826 100.447 105.586 100.905 105.448 101.398C105.31 101.891 105.277 102.407 105.351 102.913C105.426 103.419 105.606 103.904 105.88 104.336C106.016 104.567 106.174 104.784 106.352 104.984C106.754 107.372 107.763 109.617 109.28 111.504C109.392 111.632 110.928 113.056 111.736 113.76C110.936 113.344 110.184 112.96 109.384 112.472C108.232 111.832 107.032 111.12 105.864 110.432L104 109.24C103.384 108.864 102.84 108.44 102.248 108.024C101.392 107.408 100.544 106.736 99.696 106.056C100.416 104.92 102.48 101.552 102.784 99.5841C103.088 97.6161 102.92 94.8801 101.4 93.3281C101.058 92.9479 100.64 92.6438 100.172 92.4357C99.7052 92.2275 99.1995 92.12 98.688 92.12C98.1765 92.12 97.6707 92.2275 97.2035 92.4357C96.7363 92.6438 96.3181 92.9479 95.976 93.3281C94 95.7281 95.464 101.048 96.928 103.376C96.976 103.448 97.336 103.912 97.728 104.448C96.928 103.768 96.128 103.088 95.328 102.368C93.072 100.32 90.832 98.1681 88.576 96.0241L87.2 94.7201C87.816 93.7681 90.08 90.1361 90.4 88.0801C90.72 86.0241 90.536 83.3761 89.024 81.8161C88.6819 81.4359 88.2637 81.1318 87.7965 80.9237C87.3292 80.7155 86.8235 80.608 86.312 80.608C85.8005 80.608 85.2948 80.7155 84.8275 80.9237C84.3603 81.1318 83.9421 81.4359 83.6 81.8161C81.624 84.2161 83.088 89.5281 84.552 91.8561C84.6 91.9441 85.032 92.4881 85.52 93.0961C84.28 91.9521 83.032 90.8161 81.752 89.7361C79.5736 87.8669 77.2725 86.1457 74.864 84.5841C75.08 84.2481 77.824 80.0401 78.176 77.7521C78.48 75.7201 78.312 73.0481 76.792 71.4961C76.4506 71.1161 76.0331 70.8121 75.5665 70.6041C75.1 70.396 74.5948 70.2885 74.084 70.2885C73.5732 70.2885 73.068 70.396 72.6015 70.6041C72.1349 70.8121 71.7174 71.1161 71.376 71.4961C69.392 73.8961 70.856 79.2161 72.32 81.5441C72.424 81.7041 74.008 83.6801 74.592 84.3601L74.504 84.3041C72.1017 82.8247 69.5715 81.5637 66.944 80.5361C64.5923 79.5978 62.1883 78.7965 59.744 78.1361C57.488 77.5041 55.392 77.0721 53.536 76.6961C52.52 76.5041 51.6 76.3521 50.728 76.2081H50.784C50.824 76.2081 47.688 74.1361 47.472 74.0321C45.016 72.8081 39.536 71.8961 37.384 74.0961C37.0377 74.4726 36.7745 74.9177 36.6113 75.4025C36.4482 75.8873 36.3889 76.4009 36.4371 76.9102C36.4854 77.4194 36.6403 77.9128 36.8916 78.3583C37.1429 78.8038 37.4851 79.1915 37.896 79.4961C39.6 80.8481 42.272 80.7521 44.296 80.2401C46.32 79.7281 49.776 77.0401 50.616 76.3681C51.512 76.5281 52.472 76.7121 53.528 76.9361C55.376 77.3441 57.456 77.8241 59.68 78.5361C60.28 78.7201 60.912 78.9361 61.528 79.1281C60.416 79.0161 58.896 78.8721 58.744 78.8721C56 78.9281 50.744 80.6321 49.824 83.5841C49.6882 84.0771 49.6581 84.5932 49.7356 85.0986C49.813 85.604 49.9963 86.0874 50.2734 86.5171C50.5506 86.9468 50.9154 87.3131 51.3438 87.5921C51.7723 87.8711 52.2549 88.0565 52.76 88.1361C54.896 88.5521 57.224 87.2321 58.752 85.8641C60.28 84.4961 62.2 80.3681 62.6 79.4641C63.96 79.9201 65.344 80.4241 66.752 81.0641C69.3231 82.1367 71.7941 83.4352 74.136 84.9441C74.272 85.0321 74.4 85.1441 74.536 85.2321C74 85.0801 70.992 84.4321 70.776 84.4321C68.04 84.1761 62.6 85.2961 61.392 88.1281C61.2025 88.6021 61.115 89.1106 61.1352 89.6206C61.1554 90.1306 61.2829 90.6306 61.5094 91.0881C61.7358 91.5455 62.0561 91.9501 62.4494 92.2754C62.8428 92.6007 63.3002 92.8395 63.792 92.9761C65.872 93.6241 68.328 92.5681 70 91.3761C71.928 90.0001 74.512 85.4641 74.608 85.2961C76.9014 86.8637 79.0901 88.5794 81.16 90.4321C82.696 91.8001 84.2 93.2401 85.696 94.7041C84.992 94.5201 82.2 93.9041 81.992 93.9041C79.256 93.6481 73.816 94.7681 72.608 97.6001C72.4197 98.0747 72.3332 98.5835 72.354 99.0937C72.3747 99.6038 72.5023 100.104 72.7286 100.562C72.9548 101.019 73.2745 101.424 73.6672 101.751C74.0598 102.077 74.5166 102.317 75.008 102.456C77.088 103.104 79.544 102.048 81.216 100.856C83.096 99.5121 85.592 95.1841 85.808 94.8161L87.84 96.8161C90.04 99.0081 92.24 101.216 94.48 103.328C95.28 104.056 96.08 104.752 96.832 105.448C95.768 105.208 93.824 104.8 93.632 104.784C90.888 104.536 85.456 105.656 84.24 108.488C84.0518 108.962 83.9653 109.47 83.9861 109.98C84.007 110.49 84.1346 110.989 84.3609 111.446C84.5872 111.903 84.907 112.308 85.2996 112.633C85.6923 112.959 86.1489 113.198 86.64 113.336C88.712 113.984 91.176 112.928 92.848 111.736C94.52 110.544 96.704 106.936 97.304 105.92C98.624 107.064 99.96 108.176 101.304 109.208C101.904 109.64 102.488 110.12 103.088 110.504L104.856 111.688C106.088 112.488 107.256 113.168 108.408 113.848C108.992 114.2 109.552 114.512 110.128 114.848C109.088 114.44 107.432 113.824 107.272 113.784C104.608 113.12 99.056 113.4 97.432 116.016C97.1742 116.458 97.0124 116.949 96.9572 117.458C96.902 117.966 96.9546 118.481 97.1116 118.968C97.2686 119.455 97.5265 119.903 97.8684 120.283C98.2103 120.664 98.6286 120.968 99.096 121.176C101.048 122.136 103.64 121.464 105.496 120.536C107.512 119.512 110.552 115.736 110.92 115.288C112.336 116.088 113.72 116.888 115.024 117.56C118.512 119.432 121.56 120.92 123.92 122.024C131.6 128.664 142.408 129.4 142.408 129.4C142.408 129.4 142.976 116.456 135.36 107.936C132.717 105.089 129.485 102.852 125.888 101.384ZM112.184 114C112.424 113.472 114.264 109.36 114.392 107.04C114.816 106.96 115.248 106.872 115.664 106.776C116.452 110.869 118.087 114.752 120.464 118.176C119.064 117.512 117.552 116.776 115.952 115.96C114.72 115.352 113.464 114.696 112.184 114Z" fill="#1D4ED8"/>
<path d="M182.52 98.9043C182.52 98.9043 169.568 99.3043 161.64 107.536C153.712 115.768 153.816 128.728 153.816 128.728C153.816 128.728 166.768 128.328 174.688 120.096C182.608 111.864 182.52 98.9043 182.52 98.9043Z" fill="#1D4ED8"/>
<g opacity="0.5">
<path d="M98.336 48.736C98.336 48.736 102.584 45.384 103.672 43.232C104.6 41.4 105.272 38.808 104.312 36.832C104.101 36.3673 103.795 35.9522 103.413 35.6137C103.031 35.2751 102.582 35.0206 102.095 34.8667C101.609 34.7128 101.095 34.663 100.588 34.7204C100.081 34.7778 99.5919 34.9412 99.152 35.2C96.536 36.8 96.256 42.4 96.92 45.04C96.976 45.272 98.296 48.8 98.336 48.736Z" fill="white"/>
<path d="M59.08 76.6803C59.248 76.8403 62.28 79.0323 62.28 78.9763C62.28 78.9203 64 73.8403 63.712 71.4483C63.472 69.4083 62.6 66.8723 60.728 65.7763C60.2959 65.5023 59.811 65.3222 59.3048 65.2478C58.7986 65.1734 58.2825 65.2063 57.7898 65.3443C57.2971 65.4824 56.839 65.7225 56.4452 66.0492C56.0514 66.3758 55.7307 66.7817 55.504 67.2403C54.224 70.0403 57.048 74.8163 59.08 76.6803Z" fill="white"/>
<path d="M148.056 53.8159C148.056 53.8159 132.512 69.8639 132.592 89.5999C132.672 109.336 148.368 125.224 148.368 125.224C148.368 125.224 163.912 109.176 163.824 89.4639C163.736 69.7519 148.056 53.8159 148.056 53.8159Z" fill="white"/>
<path d="M125.888 101.384C126.095 101.162 126.285 100.924 126.456 100.672C127.584 98.9601 128.552 96.4641 127.824 94.4161C127.669 93.929 127.414 93.4798 127.075 93.0977C126.736 92.7155 126.32 92.4089 125.854 92.1978C125.389 91.9866 124.885 91.8755 124.374 91.8718C123.862 91.8681 123.356 91.9717 122.888 92.1761C120.776 93.1761 119.736 96.5601 119.512 99.3281C118.712 99.1361 117.912 98.9841 117.264 98.8801C116.984 98.2481 116.704 97.6161 116.416 96.9841C116.128 96.3521 115.896 95.6641 115.616 95.0001C115.24 94.0161 114.904 92.9841 114.568 91.9521C115.8 91.4001 119.368 89.7281 120.712 88.2481C122.056 86.7681 123.424 84.4081 123.016 82.2721C122.938 81.7664 122.754 81.2827 122.477 80.8528C122.199 80.4228 121.834 80.0563 121.405 79.7769C120.977 79.4976 120.494 79.3119 119.988 79.2318C119.483 79.1517 118.966 79.1791 118.472 79.3121C115.52 80.1841 113.784 85.4641 113.728 88.2081C113.728 88.2961 113.728 88.8801 113.832 89.5761C113.536 88.5521 113.232 87.5441 112.968 86.5041C112.208 83.5521 111.528 80.5201 110.832 77.4881C110.688 76.8561 110.536 76.2241 110.384 75.5921C111.424 75.1361 115.32 73.3521 116.72 71.8081C118.12 70.2641 119.424 67.9681 119.016 65.8321C118.939 65.3258 118.756 64.8414 118.479 64.4108C118.202 63.9802 117.837 63.6131 117.407 63.3336C116.978 63.0541 116.495 62.8684 115.989 62.7889C115.483 62.7094 114.966 62.7377 114.472 62.8721C111.528 63.7441 109.792 69.0241 109.728 71.7681C109.728 71.8721 109.784 72.5681 109.856 73.3681C109.456 71.7201 109.056 70.0881 108.568 68.4801C107.782 65.7195 106.812 63.0148 105.664 60.3841C106.032 60.2241 110.64 58.2321 112.192 56.5121C113.568 54.9841 114.904 52.6641 114.496 50.5281C114.417 50.0229 114.232 49.54 113.954 49.1107C113.677 48.6814 113.312 48.3154 112.883 48.0363C112.455 47.7572 111.972 47.5712 111.467 47.4906C110.962 47.4099 110.446 47.4364 109.952 47.5681C107 48.4481 105.264 53.7201 105.208 56.4721C105.208 56.6641 105.432 59.1761 105.544 60.0721V59.9761C104.352 57.4187 102.936 54.9718 101.312 52.6641C99.8719 50.5985 98.3119 48.6191 96.64 46.7361C95.112 44.9681 93.6 43.4481 92.248 42.1121C91.52 41.3921 90.832 40.7521 90.184 40.1601H90.248C90.304 40.1601 88.808 36.7281 88.696 36.5201C87.312 34.1201 83.248 30.3521 80.24 31.0081C79.7419 31.1308 79.2752 31.3572 78.8705 31.6724C78.4657 31.9877 78.1321 32.3848 77.8912 32.8378C77.6504 33.2908 77.5078 33.7894 77.4728 34.3013C77.4378 34.8131 77.5111 35.3266 77.688 35.8081C78.36 37.8721 80.648 39.2721 82.592 39.9361C84.536 40.6001 88.928 40.2961 90 40.2001C90.664 40.8241 91.36 41.5041 92.112 42.2721C93.424 43.6401 94.896 45.1841 96.384 46.9761C96.784 47.4561 97.184 47.9841 97.592 48.4881C96.736 47.7761 95.544 46.8241 95.416 46.7441C93.096 45.2641 87.744 43.7761 85.376 45.7441C84.9922 46.0823 84.6838 46.4974 84.4708 46.9624C84.2578 47.4275 84.1451 47.9322 84.1398 48.4436C84.1345 48.9551 84.2368 49.462 84.4402 49.9314C84.6435 50.4008 84.9433 50.8221 85.32 51.1681C86.864 52.6881 89.536 52.8721 91.568 52.5761C93.6 52.2801 97.48 49.8961 98.296 49.3761C99.176 50.5121 100.056 51.6961 100.896 52.9841C102.444 55.295 103.783 57.7393 104.896 60.2881C104.96 60.4401 105.008 60.6001 105.064 60.7441C104.704 60.3201 102.544 58.1361 102.368 58.0001C100.224 56.2801 95.072 54.2161 92.504 55.9121C92.0842 56.2049 91.7308 56.5829 91.467 57.0215C91.2032 57.4601 91.0348 57.9495 90.9729 58.4575C90.911 58.9656 90.9569 59.481 91.1077 59.9702C91.2585 60.4593 91.5108 60.9111 91.848 61.2961C93.216 62.9761 95.848 63.4561 97.904 63.3761C100.304 63.2961 104.928 60.9761 105.104 60.8561C106.153 63.4277 107.032 66.0654 107.736 68.7521C108.264 70.7361 108.72 72.7521 109.16 74.8161C108.68 74.2721 106.664 72.2481 106.504 72.1121C104.36 70.3921 99.208 68.3281 96.632 70.0241C96.2132 70.3177 95.8608 70.6961 95.5977 71.1347C95.3346 71.5733 95.1667 72.0623 95.1048 72.57C95.043 73.0777 95.0886 73.5928 95.2387 74.0817C95.3887 74.5706 95.6399 75.0226 95.976 75.4081C97.352 77.0881 99.976 77.5681 102.04 77.4881C104.344 77.4081 108.824 75.1761 109.24 74.9841C109.44 75.9121 109.64 76.8401 109.832 77.7761C110.464 80.8161 111.08 83.8721 111.776 86.8641C112.024 87.9041 112.296 88.9201 112.576 89.9361C111.824 89.1361 110.424 87.7361 110.296 87.6321C108.152 85.9041 102.992 83.8401 100.424 85.5361C100.004 85.8289 99.6508 86.2069 99.387 86.6455C99.1232 87.0841 98.9548 87.5735 98.8929 88.0815C98.831 88.5896 98.8769 89.105 99.0277 89.5942C99.1785 90.0833 99.4308 90.5351 99.768 90.9201C101.136 92.6081 103.768 93.0801 105.824 93.0081C107.88 92.9361 111.688 91.1361 112.752 90.6081C113.224 92.2961 113.72 93.9601 114.296 95.5761C114.56 96.2641 114.776 96.9841 115.096 97.6321L115.536 98.6641L114.936 98.6081C114.936 98.6081 114.936 99.5761 114.992 101.136C112.728 99.5361 109.464 98.1361 107.344 99.1121C106.885 99.3389 106.48 99.6596 106.153 100.053C105.826 100.447 105.586 100.905 105.448 101.398C105.31 101.891 105.277 102.407 105.351 102.913C105.426 103.419 105.606 103.904 105.88 104.336C106.016 104.567 106.174 104.784 106.352 104.984C106.754 107.372 107.763 109.617 109.28 111.504C109.392 111.632 110.928 113.056 111.736 113.76C110.936 113.344 110.184 112.96 109.384 112.472C108.232 111.832 107.032 111.12 105.864 110.432L104 109.24C103.384 108.864 102.84 108.44 102.248 108.024C101.392 107.408 100.544 106.736 99.696 106.056C100.416 104.92 102.48 101.552 102.784 99.5841C103.088 97.6161 102.92 94.8801 101.4 93.3281C101.058 92.9479 100.64 92.6438 100.172 92.4357C99.7052 92.2275 99.1995 92.12 98.688 92.12C98.1765 92.12 97.6707 92.2275 97.2035 92.4357C96.7363 92.6438 96.3181 92.9479 95.976 93.3281C94 95.7281 95.464 101.048 96.928 103.376C96.976 103.448 97.336 103.912 97.728 104.448C96.928 103.768 96.128 103.088 95.328 102.368C93.072 100.32 90.832 98.1681 88.576 96.0241L87.2 94.7201C87.816 93.7681 90.08 90.1361 90.4 88.0801C90.72 86.0241 90.536 83.3761 89.024 81.8161C88.6819 81.4359 88.2637 81.1318 87.7965 80.9237C87.3292 80.7155 86.8235 80.608 86.312 80.608C85.8005 80.608 85.2948 80.7155 84.8275 80.9237C84.3603 81.1318 83.9421 81.4359 83.6 81.8161C81.624 84.2161 83.088 89.5281 84.552 91.8561C84.6 91.9441 85.032 92.4881 85.52 93.0961C84.28 91.9521 83.032 90.8161 81.752 89.7361C79.5736 87.8669 77.2725 86.1457 74.864 84.5841C75.08 84.2481 77.824 80.0401 78.176 77.7521C78.48 75.7201 78.312 73.0481 76.792 71.4961C76.4506 71.1161 76.0331 70.8121 75.5665 70.6041C75.1 70.396 74.5948 70.2885 74.084 70.2885C73.5732 70.2885 73.068 70.396 72.6015 70.6041C72.1349 70.8121 71.7174 71.1161 71.376 71.4961C69.392 73.8961 70.856 79.2161 72.32 81.5441C72.424 81.7041 74.008 83.6801 74.592 84.3601L74.504 84.3041C72.1017 82.8247 69.5715 81.5637 66.944 80.5361C64.5923 79.5978 62.1883 78.7965 59.744 78.1361C57.488 77.5041 55.392 77.0721 53.536 76.6961C52.52 76.5041 51.6 76.3521 50.728 76.2081H50.784C50.824 76.2081 47.688 74.1361 47.472 74.0321C45.016 72.8081 39.536 71.8961 37.384 74.0961C37.0377 74.4726 36.7745 74.9177 36.6113 75.4025C36.4482 75.8873 36.3889 76.4009 36.4371 76.9102C36.4854 77.4194 36.6403 77.9128 36.8916 78.3583C37.1429 78.8038 37.4851 79.1915 37.896 79.4961C39.6 80.8481 42.272 80.7521 44.296 80.2401C46.32 79.7281 49.776 77.0401 50.616 76.3681C51.512 76.5281 52.472 76.7121 53.528 76.9361C55.376 77.3441 57.456 77.8241 59.68 78.5361C60.28 78.7201 60.912 78.9361 61.528 79.1281C60.416 79.0161 58.896 78.8721 58.744 78.8721C56 78.9281 50.744 80.6321 49.824 83.5841C49.6882 84.0771 49.6581 84.5932 49.7356 85.0986C49.813 85.604 49.9963 86.0874 50.2734 86.5171C50.5506 86.9468 50.9154 87.3131 51.3438 87.5921C51.7723 87.8711 52.2549 88.0565 52.76 88.1361C54.896 88.5521 57.224 87.2321 58.752 85.8641C60.28 84.4961 62.2 80.3681 62.6 79.4641C63.96 79.9201 65.344 80.4241 66.752 81.0641C69.3231 82.1367 71.7941 83.4352 74.136 84.9441C74.272 85.0321 74.4 85.1441 74.536 85.2321C74 85.0801 70.992 84.4321 70.776 84.4321C68.04 84.1761 62.6 85.2961 61.392 88.1281C61.2025 88.6021 61.115 89.1106 61.1352 89.6206C61.1554 90.1306 61.2829 90.6306 61.5094 91.0881C61.7358 91.5455 62.0561 91.9501 62.4494 92.2754C62.8428 92.6007 63.3002 92.8395 63.792 92.9761C65.872 93.6241 68.328 92.5681 70 91.3761C71.928 90.0001 74.512 85.4641 74.608 85.2961C76.9014 86.8637 79.0901 88.5794 81.16 90.4321C82.696 91.8001 84.2 93.2401 85.696 94.7041C84.992 94.5201 82.2 93.9041 81.992 93.9041C79.256 93.6481 73.816 94.7681 72.608 97.6001C72.4197 98.0747 72.3332 98.5835 72.354 99.0937C72.3747 99.6038 72.5023 100.104 72.7286 100.562C72.9548 101.019 73.2745 101.424 73.6672 101.751C74.0598 102.077 74.5166 102.317 75.008 102.456C77.088 103.104 79.544 102.048 81.216 100.856C83.096 99.5121 85.592 95.1841 85.808 94.8161L87.84 96.8161C90.04 99.0081 92.24 101.216 94.48 103.328C95.28 104.056 96.08 104.752 96.832 105.448C95.768 105.208 93.824 104.8 93.632 104.784C90.888 104.536 85.456 105.656 84.24 108.488C84.0518 108.962 83.9653 109.47 83.9861 109.98C84.007 110.49 84.1346 110.989 84.3609 111.446C84.5872 111.903 84.907 112.308 85.2996 112.633C85.6923 112.959 86.1489 113.198 86.64 113.336C88.712 113.984 91.176 112.928 92.848 111.736C94.52 110.544 96.704 106.936 97.304 105.92C98.624 107.064 99.96 108.176 101.304 109.208C101.904 109.64 102.488 110.12 103.088 110.504L104.856 111.688C106.088 112.488 107.256 113.168 108.408 113.848C108.992 114.2 109.552 114.512 110.128 114.848C109.088 114.44 107.432 113.824 107.272 113.784C104.608 113.12 99.056 113.4 97.432 116.016C97.1742 116.458 97.0124 116.949 96.9572 117.458C96.902 117.966 96.9546 118.481 97.1116 118.968C97.2686 119.455 97.5265 119.903 97.8684 120.283C98.2103 120.664 98.6286 120.968 99.096 121.176C101.048 122.136 103.64 121.464 105.496 120.536C107.512 119.512 110.552 115.736 110.92 115.288C112.336 116.088 113.72 116.888 115.024 117.56C118.512 119.432 121.56 120.92 123.92 122.024C131.6 128.664 142.408 129.4 142.408 129.4C142.408 129.4 142.976 116.456 135.36 107.936C132.717 105.089 129.485 102.852 125.888 101.384ZM112.184 114C112.424 113.472 114.264 109.36 114.392 107.04C114.816 106.96 115.248 106.872 115.664 106.776C116.452 110.869 118.087 114.752 120.464 118.176C119.064 117.512 117.552 116.776 115.952 115.96C114.72 115.352 113.464 114.696 112.184 114Z" fill="white"/>
<path d="M182.52 98.9043C182.52 98.9043 169.568 99.3043 161.64 107.536C153.712 115.768 153.816 128.728 153.816 128.728C153.816 128.728 166.768 128.328 174.688 120.096C182.608 111.864 182.52 98.9043 182.52 98.9043Z" fill="white"/>
</g>
<path d="M148.696 107.248L161.416 95.8159L160.872 95.2079L148.688 106.16L148.624 91.1679L148.696 91.2159L159.448 75.4879L158.776 75.0239L148.624 89.8719L148.464 53.8159H147.648L147.752 78.2959L139.656 71.2879L139.128 71.9039L147.76 79.3759L147.832 96.8799L135.56 86.0159L135.024 86.6319L147.84 97.9679L147.904 113.904L138.68 106.664L138.184 107.312L147.912 114.944L147.96 125.2H148.776L148.696 107.248Z" fill="white"/>
<path d="M136.976 111.664L136.168 111.568L135.144 120.624L129.68 114.52H129.696L128.304 103.56L127.496 103.664L128.736 113.464L115.16 98.2881L114.552 98.8321L123.768 109.128L117.936 109.2L117.944 110.016L124.488 109.936L130.944 117.16L121.824 117.168V117.984L131.672 117.976L137.544 124.536L131.112 124.928L131.168 125.736L138.24 125.312L142.152 129.688L142.76 129.144L135.872 121.44L136.976 111.664Z" fill="white"/>
<path d="M167.712 114.888L178.544 112.696L178.376 111.896L168.696 113.856L182.808 99.192L182.224 98.624L172.648 108.576L172.136 102.768L171.328 102.84L171.896 109.36L165.176 116.336L164.488 107.24L163.672 107.304L164.416 117.128L158.312 123.472L157.448 117.088L156.632 117.192L157.592 124.224L153.52 128.448L154.104 129.008L161.272 121.568L171.104 121.944L171.136 121.128L162.032 120.784L167.712 114.88V114.888Z" fill="white"/>
<path d="M187.92 346.192L92.64 172.248L26.808 194.528L48.16 236.048L46.808 233.728L42.808 235.056C42.4097 235.189 42.045 235.407 41.7389 235.695C41.4327 235.982 41.1924 236.332 41.0343 236.721C40.8763 237.111 40.8042 237.529 40.8232 237.949C40.8421 238.368 40.9515 238.779 41.144 239.152L51.672 259.624C52.3431 260.933 53.4134 261.995 54.728 262.655C56.0426 263.315 57.5332 263.54 58.984 263.296L61.904 262.808L113.184 362.528L187.92 346.192Z" fill="#2E353A"/>
<path d="M249.472 97.1438C248.448 97.7034 247.244 97.834 246.124 97.5071C245.003 97.1802 244.058 96.4224 243.496 95.3998L241.056 90.9438L92.64 172.248L187.92 346.192L336.344 264.896L284.472 170.2C283.913 169.177 283.782 167.974 284.109 166.855C284.436 165.736 285.194 164.793 286.216 164.232C286.723 163.954 287.17 163.579 287.533 163.129C287.895 162.678 288.164 162.16 288.326 161.605C288.488 161.05 288.539 160.469 288.477 159.894C288.414 159.319 288.238 158.763 287.96 158.256L255.44 98.8878C254.879 97.8659 253.936 97.1082 252.817 96.7812C251.698 96.4542 250.495 96.5847 249.472 97.1438Z" fill="#1D4ED8" stroke="#2E353A" stroke-linecap="round" stroke-linejoin="round"/>
<path d="M256.855 103.562L136.317 146.531L193.87 307.979L314.408 265.01L256.855 103.562Z" fill="white" stroke="#2E353A" stroke-linecap="round" stroke-linejoin="round"/>
<path d="M256.862 103.567L136.323 146.537L157.526 206.014L278.064 163.045L256.862 103.567Z" fill="white" stroke="#2E353A" stroke-linecap="round" stroke-linejoin="round"/>
<path d="M247.532 164.673C256.533 158.959 259.197 147.03 253.483 138.03C247.768 129.029 235.84 126.365 226.839 132.079C217.838 137.793 215.174 149.722 220.888 158.722C226.603 167.723 238.531 170.387 247.532 164.673Z" fill="#2E353A" stroke="#2E353A" stroke-linecap="round" stroke-linejoin="round"/>
<path d="M243.664 166.584C246.34 165.633 248.773 164.102 250.788 162.1C252.803 160.099 254.351 157.677 255.32 155.008C251.968 147.504 243.776 143.592 236.4 146.208C229.024 148.824 225.16 157.056 227.312 164.984C229.751 166.439 232.482 167.337 235.309 167.613C238.136 167.89 240.989 167.538 243.664 166.584Z" fill="white" stroke="#2E353A" stroke-linecap="round" stroke-linejoin="round"/>
<path d="M242.371 152.123C246.421 148.546 246.803 142.362 243.226 138.313C239.648 134.263 233.465 133.881 229.415 137.459C225.366 141.036 224.983 147.219 228.561 151.269C232.139 155.318 238.322 155.701 242.371 152.123Z" fill="white" stroke="#2E353A" stroke-linecap="round" stroke-linejoin="round"/>
<path d="M196.653 148.891L154.469 163.928L156.196 168.774L198.38 153.736L196.653 148.891Z" fill="white" stroke="#2E353A" stroke-linecap="round" stroke-linejoin="round"/>
<path d="M200.808 160.532L158.625 175.57L160.352 180.415L202.536 165.378L200.808 160.532Z" fill="white" stroke="#2E353A" stroke-linecap="round" stroke-linejoin="round"/>
<path d="M204.257 170.222L162.073 185.26L162.938 187.686L205.122 172.649L204.257 170.222Z" fill="#2E353A"/>
<path d="M206.332 176.044L164.148 191.082L165.013 193.508L207.197 178.47L206.332 176.044Z" fill="#2E353A"/>
<path d="M216.875 205.621L174.692 220.659L175.556 223.085L217.74 208.048L216.875 205.621Z" fill="#2E353A"/>
<path d="M218.773 210.96L176.589 225.998L177.454 228.424L219.638 213.386L218.773 210.96Z" fill="#2E353A"/>
<path d="M220.678 216.291L178.494 231.329L179.359 233.755L221.543 218.717L220.678 216.291Z" fill="#2E353A"/>
<path d="M274.09 185.222L231.906 200.26L232.771 202.686L274.955 187.649L274.09 185.222Z" fill="#2E353A"/>
<path d="M275.995 190.561L233.811 205.599L234.676 208.025L276.86 192.987L275.995 190.561Z" fill="#2E353A"/>
<path d="M277.893 195.895L235.709 210.933L236.574 213.359L278.758 198.321L277.893 195.895Z" fill="#2E353A"/>
<path d="M171.984 216.176L273.816 179.888" stroke="#2E353A" stroke-linecap="round" stroke-linejoin="round"/>
<path d="M226.728 233.259L184.544 248.296L185.409 250.723L227.593 235.685L226.728 233.259Z" fill="#2E353A"/>
<path d="M228.626 238.601L186.442 253.638L187.307 256.065L229.491 241.027L228.626 238.601Z" fill="#2E353A"/>
<path d="M230.531 243.931L188.347 258.969L189.212 261.395L231.396 246.358L230.531 243.931Z" fill="#2E353A"/>
<path d="M283.943 212.863L241.759 227.9L242.624 230.327L284.808 215.289L283.943 212.863Z" fill="#2E353A"/>
<path d="M285.848 218.202L243.664 233.239L244.529 235.666L286.713 220.628L285.848 218.202Z" fill="#2E353A"/>
<path d="M287.746 223.535L245.562 238.573L246.427 240.999L288.611 225.962L287.746 223.535Z" fill="#2E353A"/>
<path d="M181.832 243.816L283.664 207.528" stroke="#2E353A" stroke-linecap="round" stroke-linejoin="round"/>
<path d="M291.547 234.194L191.656 269.803L200.298 294.044L300.188 258.436L291.547 234.194Z" fill="#2E353A" stroke="#2E353A" stroke-linecap="round" stroke-linejoin="round"/>
<path d="M241.077 113.554L123.466 163.987L191.015 321.515L308.627 271.082L241.077 113.554Z" fill="white" stroke="#2E353A" stroke-linecap="round" stroke-linejoin="round"/>
<path d="M241.083 113.557L123.472 163.989L148.357 222.023L265.969 171.59L241.083 113.557Z" fill="white" stroke="#2E353A" stroke-linecap="round" stroke-linejoin="round"/>
<path d="M240.568 169.834C246.259 160.819 243.564 148.897 234.548 143.206C225.532 137.516 213.611 140.211 207.92 149.227C202.23 158.242 204.925 170.164 213.941 175.855C222.956 181.545 234.878 178.85 240.568 169.834Z" fill="#2E353A" stroke="#2E353A" stroke-linecap="round" stroke-linejoin="round"/>
<path d="M231.856 177.28C234.467 176.162 236.798 174.481 238.684 172.357C240.569 170.232 241.961 167.717 242.76 164.992C238.952 157.72 230.528 154.32 223.336 157.408C216.144 160.496 212.8 168.936 215.44 176.712C217.966 178.01 220.747 178.733 223.585 178.832C226.422 178.93 229.247 178.4 231.856 177.28Z" fill="white" stroke="#2E353A" stroke-linecap="round" stroke-linejoin="round"/>
<path d="M229.405 163.151C233.356 159.465 233.571 153.273 229.886 149.322C226.2 145.371 220.009 145.156 216.057 148.842C212.106 152.528 211.891 158.719 215.577 162.67C219.263 166.621 225.454 166.836 229.405 163.151Z" fill="white" stroke="#2E353A" stroke-linecap="round" stroke-linejoin="round"/>
<path d="M183.828 162.57L142.669 180.219L144.696 184.947L185.856 167.297L183.828 162.57Z" fill="white" stroke="#2E353A" stroke-linecap="round" stroke-linejoin="round"/>
<path d="M188.7 173.923L147.54 191.572L149.568 196.3L190.727 178.65L188.7 173.923Z" fill="white" stroke="#2E353A" stroke-linecap="round" stroke-linejoin="round"/>
<path d="M192.759 183.381L151.6 201.03L152.615 203.398L193.774 185.748L192.759 183.381Z" fill="#2E353A"/>
<path d="M195.193 189.059L154.033 206.708L155.048 209.076L196.208 191.426L195.193 189.059Z" fill="#2E353A"/>
<path d="M207.571 217.917L166.412 235.567L167.427 237.934L208.587 220.285L207.571 217.917Z" fill="#2E353A"/>
<path d="M209.803 223.121L168.644 240.77L169.659 243.138L210.818 225.488L209.803 223.121Z" fill="#2E353A"/>
<path d="M212.028 228.334L170.868 245.984L171.883 248.351L213.043 230.702L212.028 228.334Z" fill="#2E353A"/>
<path d="M263.391 193.99L222.232 211.639L223.247 214.007L264.406 196.357L263.391 193.99Z" fill="#2E353A"/>
<path d="M265.62 199.185L224.46 216.835L225.476 219.202L266.635 201.553L265.62 199.185Z" fill="#2E353A"/>
<path d="M267.86 204.396L226.7 222.046L227.716 224.413L268.875 206.764L267.86 204.396Z" fill="#2E353A"/>
<path d="M163.424 231.264L262.784 188.664" stroke="#2E353A" stroke-linecap="round" stroke-linejoin="round"/>
<path d="M219.131 244.891L177.972 262.54L178.987 264.908L220.146 247.258L219.131 244.891Z" fill="#2E353A"/>
<path d="M221.368 250.086L180.208 267.735L181.223 270.103L222.383 252.453L221.368 250.086Z" fill="#2E353A"/>
<path d="M223.6 255.297L182.44 272.946L183.455 275.314L224.615 257.664L223.6 255.297Z" fill="#2E353A"/>
<path d="M274.963 220.952L233.804 238.602L234.819 240.969L275.978 223.32L274.963 220.952Z" fill="#2E353A"/>
<path d="M277.192 226.148L236.032 243.797L237.048 246.165L278.207 228.515L277.192 226.148Z" fill="#2E353A"/>
<path d="M279.416 231.362L238.257 249.011L239.272 251.379L280.432 233.729L279.416 231.362Z" fill="#2E353A"/>
<path d="M174.984 258.232L274.344 215.632" stroke="#2E353A" stroke-linecap="round" stroke-linejoin="round"/>
<path d="M283.884 241.762L186.419 283.556L196.561 307.209L294.027 265.415L283.884 241.762Z" fill="#2E353A" stroke="#2E353A" stroke-linecap="round" stroke-linejoin="round"/>
<path d="M214.183 112.512L106.848 182.19L200.174 325.954L307.509 256.277L214.183 112.512Z" fill="white" stroke="#2E353A" stroke-linecap="round" stroke-linejoin="round"/>
<path d="M214.187 112.519L106.852 182.196L141.234 235.159L248.569 165.482L214.187 112.519Z" fill="white" stroke="#2E353A" stroke-linecap="round" stroke-linejoin="round"/>
<path d="M208.491 179.715C219.014 178.005 226.159 168.088 224.449 157.565C222.739 147.041 212.822 139.897 202.298 141.607C191.775 143.317 184.631 153.234 186.341 163.757C188.051 174.28 197.968 181.425 208.491 179.715Z" fill="#2E353A" stroke="#2E353A" stroke-linecap="round" stroke-linejoin="round"/>
<path d="M215.92 176.8C218.304 175.255 220.316 173.203 221.814 170.789C223.312 168.376 224.258 165.661 224.584 162.84C219.592 156.312 210.712 154.408 204.152 158.664C197.592 162.92 195.72 171.816 199.648 179.032C202.357 179.883 205.221 180.124 208.034 179.739C210.847 179.353 213.54 178.349 215.92 176.8Z" fill="#1D4ED8" stroke="#2E353A" stroke-linecap="round" stroke-linejoin="round"/>
<path d="M209.655 164.864C213.768 161.36 214.262 155.185 210.757 151.072C207.253 146.959 201.078 146.465 196.965 149.969C192.851 153.474 192.358 159.649 195.862 163.762C199.366 167.875 205.542 168.369 209.655 164.864Z" fill="white" stroke="#2E353A" stroke-linecap="round" stroke-linejoin="round"/>
<path d="M166.087 170.539L128.524 194.923L131.325 199.238L168.888 174.853L166.087 170.539Z" fill="white" stroke="#2E353A" stroke-linecap="round" stroke-linejoin="round"/>
<path d="M172.811 180.901L135.248 205.286L138.049 209.6L175.612 185.216L172.811 180.901Z" fill="white" stroke="#2E353A" stroke-linecap="round" stroke-linejoin="round"/>
<path d="M177.745 190.599L140.126 214.782L141.517 216.946L179.136 192.763L177.745 190.599Z" fill="#2E353A"/>
<path d="M181.785 194.712L144.222 219.096L145.625 221.257L183.188 196.872L181.785 194.712Z" fill="#2E353A"/>
<path d="M198.887 221.049L161.324 245.433L162.727 247.594L200.29 223.209L198.887 221.049Z" fill="#2E353A"/>
<path d="M201.97 225.805L164.407 250.19L165.81 252.351L203.373 227.966L201.97 225.805Z" fill="#2E353A"/>
<path d="M205.053 230.562L167.49 254.946L168.892 257.107L206.456 232.722L205.053 230.562Z" fill="#2E353A"/>
<path d="M249.838 187.971L212.274 212.356L213.677 214.517L251.24 190.132L249.838 187.971Z" fill="#2E353A"/>
<path d="M252.927 192.724L215.364 217.108L216.767 219.269L254.33 194.884L252.927 192.724Z" fill="#2E353A"/>
<path d="M256.01 197.481L218.447 221.865L219.849 224.026L257.413 199.641L256.01 197.481Z" fill="#2E353A"/>
<path d="M157.664 241.664L248.336 182.792" stroke="#2E353A" stroke-linecap="round" stroke-linejoin="round"/>
<path d="M214.867 245.669L177.303 270.053L178.706 272.214L216.269 247.829L214.867 245.669Z" fill="#2E353A"/>
<path d="M217.945 250.419L180.382 274.803L181.785 276.964L219.348 252.579L217.945 250.419Z" fill="#2E353A"/>
<path d="M221.035 255.163L183.471 279.548L184.874 281.709L222.437 257.324L221.035 255.163Z" fill="#2E353A"/>
<path d="M265.817 212.592L228.254 236.976L229.656 239.137L267.22 214.752L265.817 212.592Z" fill="#2E353A"/>
<path d="M268.902 217.337L231.339 241.722L232.742 243.882L270.305 219.498L268.902 217.337Z" fill="#2E353A"/>
<path d="M271.977 222.094L234.414 246.479L235.816 248.639L273.38 224.255L271.977 222.094Z" fill="#2E353A"/>
<path d="M173.64 266.272L264.312 207.408" stroke="#2E353A" stroke-linecap="round" stroke-linejoin="round"/>
<path d="M278.157 231.591L189.208 289.333L203.221 310.92L292.17 253.178L278.157 231.591Z" fill="#2E353A" stroke="#2E353A" stroke-linecap="round" stroke-linejoin="round"/>
<path d="M92.64 172.248L35.744 128.2L69.6 191.712C70.4 193.248 68.28 193.536 66.12 192.176C63.936 190.808 61.784 191.112 62.64 192.664L80.2 224.584C80.479 225.039 80.8462 225.433 81.28 225.744L89.856 232.208C90.3021 232.522 90.6758 232.929 90.952 233.4L126.48 300.88L187.928 346.192L92.64 172.248Z" fill="#1D4ED8" stroke="#2E353A" stroke-linecap="round" stroke-linejoin="round"/>
<path opacity="0.25" d="M92.64 172.248L35.744 128.2L69.6 191.712C70.4 193.248 68.28 193.536 66.12 192.176C63.936 190.808 61.784 191.112 62.64 192.664L80.2 224.584C80.479 225.039 80.8462 225.433 81.28 225.744L89.856 232.208C90.3021 232.522 90.6758 232.929 90.952 233.4L126.48 300.88L187.928 346.192L92.64 172.248Z" fill="#2E353A" stroke="#2E353A" stroke-linecap="round" stroke-linejoin="round"/>
<path d="M334.984 269.216C334.972 269.187 334.949 269.164 334.92 269.152C333.984 268.744 326.12 268.816 325.912 269.28C325.912 269.336 325.952 269.408 326.072 269.488C326.24 269.594 326.417 269.685 326.6 269.76C326.824 269.856 327.096 269.96 327.4 270.064C327.704 270.168 327.992 270.272 328.304 270.368L329.64 270.784L330.344 270.992L330.808 271.12L322.664 279C320.968 280.549 319.186 282.002 317.328 283.352L316.96 282.984C316.428 282.47 315.864 281.989 315.272 281.544V281.336C314.583 281.775 313.864 282.165 313.12 282.504C310.336 283.904 302.528 287.408 299.744 293.024C298.348 295.874 296.8 298.646 295.104 301.328V301.696H294.88C292.184 301.464 287.048 303.256 283.272 305.12C280.047 306.903 276.942 308.894 273.976 311.08L271.048 312.112C269.984 312.264 268.032 312.512 267.76 312.84C267.488 313.168 265.592 312.84 264.752 313.048C263.912 313.256 264.152 313.848 264.152 313.848L265.752 314L255.2 317.672L263.688 324.408L275.2 320.136L275.816 320.288C277.044 320.665 278.37 320.548 279.512 319.96C279.918 319.808 280.316 319.634 280.704 319.44C282.832 319.16 289.304 317.736 291.552 317.24C293.24 319.528 298.056 323.376 298.88 325.04C298.919 325.128 298.951 325.219 298.976 325.312C298.976 325.312 298.976 325.352 298.976 325.376C298.993 325.444 298.993 325.516 298.976 325.584C298.595 326.515 298.098 327.394 297.496 328.2C296.4 327.747 295.268 327.386 294.112 327.12C289.736 326.112 287.344 330.656 286.584 330.88C285.824 331.104 284.896 331.776 285.784 332.416C286.672 333.056 285.328 333.648 284.784 334.512C284.446 335.195 284.216 335.926 284.104 336.68C281.216 336.928 278.744 338.12 278.104 339.88C277.304 342.128 284.592 343.776 284.592 343.776C284.592 343.776 294.68 347.72 302.376 345.248C310.072 342.776 309.776 338.656 310.376 336.448C310.976 334.24 317.256 328.808 324.304 325.024C331.352 321.24 334.416 317.824 327.712 312.696C323.312 309.328 319.44 307.712 316.248 307.584C316.328 307.392 316.416 307.2 316.504 307.016L316.664 306.664C316.76 306.464 316.872 306.272 316.976 306.072L317.136 305.784C317.304 305.496 317.48 305.216 317.672 304.936C318.006 304.461 318.298 303.958 318.544 303.432C319.322 301.806 319.527 299.965 319.128 298.208C318.991 297.702 318.916 297.181 318.904 296.656C319.064 295.608 320.808 291.488 321.256 289.656C321.273 289.529 321.273 289.4 321.256 289.272C321.192 288.755 321.029 288.255 320.776 287.8C322.576 286.728 326.2 284.776 327.864 282.928C329.528 281.08 333.168 274.496 334.528 271.12C334.584 270.984 334.632 270.848 334.68 270.72C334.728 270.6 334.768 270.472 334.808 270.36C334.84 270.248 334.872 270.144 334.904 270.048V270.008C334.904 269.928 334.952 269.84 334.968 269.768C334.964 269.755 334.964 269.741 334.968 269.728C334.968 269.656 334.968 269.592 334.968 269.536V269.48C334.972 269.437 334.972 269.395 334.968 269.352V269.288C334.968 269.288 334.992 269.24 334.984 269.216ZM292.48 314.248C290.008 314.936 284.312 316.736 281.28 317.744L275.68 312.616C277.04 311.912 280.056 310.6 283.48 309.128C286.655 307.939 289.949 307.094 293.304 306.608C293.582 307.123 293.764 307.684 293.84 308.264C294.16 309.256 294.561 310.219 295.04 311.144C294.397 312.335 293.527 313.39 292.48 314.248Z" fill="#2E353A"/>
<path d="M325.4 230.704C327.076 235.804 328.478 240.99 329.6 246.24C330.728 252.424 333.088 265.296 333.088 265.296C333.088 265.296 327.152 265.632 327.048 266.6C326.944 267.568 334.88 271.4 336.064 271.024C337.248 270.648 337.928 246.496 337.216 241.008C336.504 235.52 332.712 228.208 332.416 226.56C332.12 224.912 331.472 221.704 331.472 221.704L325.4 230.704Z" fill="white" stroke="#2E353A" stroke-linecap="round" stroke-linejoin="round"/>
<path d="M336.064 271.024C336.36 270.936 336.624 269.424 336.864 267.024C334.536 268.736 332.864 267.024 332.864 267.024L333.08 265.312C333.08 265.312 327.144 265.648 327.04 266.616C326.936 267.584 334.88 271.392 336.064 271.024Z" fill="#1D4ED8" stroke="#2E353A" stroke-linecap="round" stroke-linejoin="round"/>
<path d="M321.872 158.344C321.872 158.344 312.448 148.632 311.048 147.944C309.648 147.256 309.16 148.744 309.56 149.584C309.96 150.424 319.544 163.128 321.168 164.784C322.792 166.44 321.872 158.344 321.872 158.344Z" fill="white" stroke="#2E353A" stroke-linecap="round" stroke-linejoin="round"/>
<path d="M297.424 130.832L284.792 139.936L299.736 161.496L311.288 151.776L297.424 130.832Z" fill="#2E353A" stroke="#2E353A" stroke-linecap="round" stroke-linejoin="round"/>
<path d="M297.512 133.176L286.824 140.88L299.472 159.128L309.248 150.904L297.512 133.176Z" fill="#1D4ED8" stroke="#2E353A" stroke-linecap="round" stroke-linejoin="round"/>
<path d="M312.176 149.664C311.766 148.654 311.262 147.684 310.672 146.768C309.632 145.168 308.968 144.312 307.136 144.416C305.775 144.456 304.413 144.356 303.072 144.12C302.024 144.008 302.008 145.52 302.56 146.04C303.112 146.56 306.16 146.432 306.16 146.432C305.848 146.024 306.08 146.688 308.096 149.464C308.664 150.264 310.656 150.4 311.104 150.448" fill="white"/>
<path d="M312.176 149.664C311.766 148.654 311.262 147.684 310.672 146.768C309.632 145.168 308.968 144.312 307.136 144.416C305.775 144.456 304.413 144.356 303.072 144.12C302.024 144.008 302.008 145.52 302.56 146.04C303.112 146.56 306.16 146.432 306.16 146.432C305.848 146.024 306.08 146.688 308.096 149.464C308.664 150.264 310.656 150.4 311.104 150.448" stroke="#2E353A" stroke-linecap="round" stroke-linejoin="round"/>
<path d="M325.696 115C325.217 116.975 324.904 118.988 324.76 121.016C324.76 122.936 325.8 124.728 324.504 125.544C323.208 126.36 323.752 128.104 324.384 128.888C325.016 129.672 324.688 139.6 329.72 139.672C334.752 139.744 339.592 137.152 340.616 134.384C341.64 131.616 344.176 123.736 340.984 120.024C337.792 116.312 328.64 110.04 325.696 115Z" fill="white" stroke="#2E353A" stroke-linecap="round" stroke-linejoin="round"/>
<path d="M325.888 124.192L326.68 125.648L325.72 125.68" stroke="#2E353A" stroke-linecap="round" stroke-linejoin="round"/>
<path d="M325.728 121.856C325.728 121.856 327.232 121.856 327.328 124.352" stroke="#2E353A" stroke-linecap="round" stroke-linejoin="round"/>
<path d="M333.72 138.184C333.911 140.42 333.911 142.668 333.72 144.904C333.66 145.268 333.515 145.614 333.296 145.912C335.795 144.196 338.478 142.766 341.296 141.648L342.096 141.344C341.687 137.949 341.484 134.532 341.488 131.112L333.72 138.184Z" fill="white" stroke="#2E353A" stroke-linecap="round" stroke-linejoin="round"/>
<path d="M312.256 233.944C312.256 233.944 311.824 244.784 312.736 248.488C313.648 252.192 317.016 282.832 316.872 285.6C316.728 288.368 316.616 289.504 316.616 289.504C316.616 289.504 308.288 290.72 307.44 290.96C306.592 291.2 306.312 292.312 310.92 293.632C315.528 294.952 319.072 296.976 320.056 295.448C321.04 293.92 322.376 288.248 322.768 284.112C323.688 274.512 325.264 263.728 324.32 258.88C323.376 254.032 320.92 248 321.256 246.4C321.592 244.8 326.792 227.2 326.792 227.2L312.256 233.944Z" fill="white" stroke="#2E353A" stroke-linecap="round" stroke-linejoin="round"/>
<path d="M320.056 295.448C320.564 294.393 320.912 293.269 321.088 292.112C318.648 293.4 315.648 291.576 315.648 291.576L316.616 289.504C316.616 289.504 308.288 290.72 307.44 290.96C306.592 291.2 306.312 292.312 310.92 293.632C315.528 294.952 319.072 296.976 320.056 295.448Z" fill="#1D4ED8" stroke="#2E353A" stroke-linecap="round" stroke-linejoin="round"/>
<path d="M333.72 138.184C333.911 140.42 333.911 142.668 333.72 144.904C333.384 147.984 319.44 157.016 319.792 160.416C320.144 163.816 321.784 168.552 320.864 172.528C319.944 176.504 314.84 190.344 313.824 195.272C312.808 200.2 308.944 237.672 310.688 239.32C312.432 240.968 319.488 240.272 323.04 238.264C326.592 236.256 333.928 228.664 334.576 224.896C335.224 221.128 335.952 212.328 336.424 210.216C336.896 208.104 340.568 203.016 340.16 193.592C339.752 184.168 343.152 172.792 343.952 165.456C344.752 158.12 343.952 148.176 342.68 144.2C341.408 140.224 341.472 131.112 341.472 131.112L333.72 138.184Z" fill="#1D4ED8" stroke="#2E353A" stroke-linecap="round" stroke-linejoin="round"/>
<path d="M334.56 224.896C335.216 221.128 335.936 212.328 336.408 210.216C336.88 208.104 340.552 203.016 340.144 193.592C339.912 188.424 340.84 182.664 341.856 177.296C339.192 179.824 332.256 185.712 324.856 186.4C319.504 186.904 317.76 185.344 317.256 183.888C315.776 188.352 314.304 192.872 313.808 195.272C312.784 200.2 308.928 237.672 310.672 239.32C312.416 240.968 319.472 240.272 323.024 238.264C326.576 236.256 333.912 228.664 334.56 224.896Z" fill="#2E353A" stroke="#2E353A" stroke-linecap="round" stroke-linejoin="round"/>
<path d="M333.048 213.968L322.248 232.784" stroke="white" stroke-width="0.5" stroke-linecap="round" stroke-linejoin="round"/>
<path d="M328.112 226L323.176 235.872" stroke="white" stroke-width="0.5" stroke-linecap="round" stroke-linejoin="round"/>
<path d="M368.52 151.528C366.432 142.48 360.52 139.352 355.304 136.224C352.904 134.792 352.104 132.344 351.992 130.104L351.728 132.504C351.597 131.369 351.597 130.223 351.728 129.088C351.816 128.56 351.928 127.992 352.056 127.376C351.943 128.27 351.916 129.173 351.976 130.072L352.512 125.064V125.12C353.312 120.632 353.672 114.656 348.968 108.392C342.688 100.024 330.128 102.976 330.128 102.976C330.128 102.976 321.752 102.776 321.232 107.52C320.712 112.264 323.832 116.68 328.048 117.624C328.048 117.624 328.904 119.448 329.88 122.176C329.437 122.592 329.095 123.104 328.88 123.672C328.88 123.672 330.272 124.368 330.968 128.888C331.664 133.408 324.704 141.76 325.368 147.288C326.032 152.816 331.976 152.888 331.624 155.984C331.272 159.08 327.104 158.384 327.456 162.24C327.704 164.984 332.432 168.448 335.456 170.96C335.269 173.623 335.251 176.295 335.4 178.96C333.535 181.986 332.582 185.486 332.656 189.04C332.864 194.192 337.624 196.024 342.144 194.816C343.387 194.477 344.597 194.027 345.76 193.472C350.016 195.184 360.368 193.864 365.344 185.568C370.56 176.872 365.688 174.088 365.344 167.832C365 161.576 370.608 160.568 368.52 151.528Z" fill="#2E353A" stroke="#2E353A" stroke-linecap="round" stroke-linejoin="round"/>
<path d="M327.432 110.568C329.959 113.934 333.034 116.852 336.528 119.2C343.136 123.376 338.616 135.896 333.4 141.456C328.184 147.016 329.224 152.24 335.136 155.016C341.048 157.792 351.48 160.928 345.536 171.016C339.592 181.104 338.928 189.096 347.624 191.536" stroke="white" stroke-width="0.5" stroke-linecap="round" stroke-linejoin="round"/>
<path d="M325.4 107.712C325.4 107.712 325.88 108.512 326.76 109.672" stroke="white" stroke-width="0.5" stroke-linecap="round" stroke-linejoin="round"/>
<path d="M355.056 190.344C355.629 190.481 356.224 190.501 356.806 190.403C357.387 190.306 357.943 190.092 358.44 189.776" stroke="white" stroke-width="0.5" stroke-linecap="round" stroke-linejoin="round"/>
<path d="M348.672 152.176C354.064 154.112 359.872 155.744 360.52 161.264C361.568 170.304 349.392 174.48 349.392 181.776C349.392 185.208 350.696 187.64 352.4 189.04" stroke="white" stroke-width="0.5" stroke-linecap="round" stroke-linejoin="round"/>
<path d="M336.528 119.2C336.528 119.2 344.872 122.328 346.928 127.544C348.984 132.76 336.152 140.416 340.32 147.024C341.608 149.056 343.912 150.328 346.528 151.384" stroke="white" stroke-width="0.5" stroke-linecap="round" stroke-linejoin="round"/>
<path d="M348.16 111.856C348.16 111.856 355.36 119.208 352.072 127.408C348.784 135.608 347.272 139.312 349.672 141.472C352.072 143.632 364.8 144.56 367.904 154.4" stroke="white" stroke-width="0.5" stroke-linecap="round" stroke-linejoin="round"/>
<path d="M318.912 180.952C318.912 180.952 311.632 175.576 308.192 169.624C304.752 163.672 301.856 158.616 301.928 157.968C302 157.32 302.352 154.08 301.344 152.824C300.336 151.568 296.896 150.04 296.448 149.664C296 149.288 295.064 150.336 296.104 151.264C297.144 152.192 298.176 153.296 298.176 153.296L291.488 151.584C291.322 151.864 291.246 152.187 291.269 152.512C291.291 152.836 291.413 153.146 291.616 153.4C292.352 154.136 294.456 154.36 294.528 155.192C294.6 156.024 296.728 157.592 297.632 158.312C298.016 158.694 298.493 158.969 299.016 159.112C299.016 159.112 302.848 171.984 305.544 177.36C308.24 182.736 312.344 188.56 315.2 189.36C318.056 190.16 321.56 185.136 321.56 185.136L318.912 180.952Z" fill="white" stroke="#2E353A" stroke-linecap="round" stroke-linejoin="round"/>
<path d="M331.56 155.144C331.56 155.144 327.664 157.832 326.448 161.464C325.232 165.096 319.024 173.92 318.128 176.12C317.721 177.217 317.167 178.253 316.48 179.2C316.48 179.2 317.28 184 320.592 186.528C323.904 189.056 324.928 188.808 324.928 188.808C324.928 188.808 336.928 169.304 338.864 164.768C340.8 160.232 336.72 152.92 331.56 155.144Z" fill="#1D4ED8" stroke="#2E353A" stroke-linecap="round" stroke-linejoin="round"/>
</svg>
