<svg width="24" height="24" viewBox="0 0 24 24" fill="none" xmlns="http://www.w3.org/2000/svg">
<path d="M11.1429 12.8569V23.1426" stroke="#797D80" stroke-width="1.71429" stroke-linecap="round" stroke-linejoin="round"/>
<path d="M7.71436 16.2855L11.1429 12.8569L14.5715 16.2855" stroke="#797D80" stroke-width="1.71429" stroke-linecap="round" stroke-linejoin="round"/>
<path d="M20.5715 13.8856C21.2082 13.5182 21.7588 13.0186 22.1861 12.4204C22.6134 11.8221 22.9075 11.1393 23.0486 10.4178C23.1896 9.69631 23.1744 8.95297 23.0038 8.23788C22.8333 7.5228 22.5114 6.85259 22.0599 6.27243C21.6084 5.69228 21.0377 5.21566 20.3864 4.87472C19.7351 4.53377 19.0183 4.33642 18.2843 4.29597C17.5502 4.25552 16.816 4.37291 16.1312 4.64022C15.4464 4.90754 14.8268 5.31856 14.3143 5.84559C13.8649 4.25103 12.8534 2.87308 11.4668 1.96649C10.0801 1.05989 8.41218 0.685961 6.77123 0.913813C5.13028 1.14166 3.62731 1.95589 2.54015 3.20598C1.45299 4.45606 0.85516 6.05747 0.857183 7.71416C0.858398 9.27266 1.39048 10.7843 2.36575 11.9999" stroke="#797D80" stroke-width="1.71429" stroke-linecap="round" stroke-linejoin="round"/>
</svg>
